<?xml version="1.0" encoding="utf-8"?>
<!-- Generator: Adobe Illustrator 28.1.0, SVG Export Plug-In . SVG Version: 6.00 Build 0)  -->
<svg version="1.1" id="Capa_1" xmlns="http://www.w3.org/2000/svg" xmlns:xlink="http://www.w3.org/1999/xlink" x="0px" y="0px"
	 viewBox="0 0 206 131" style="enable-background:new 0 0 206 131;" xml:space="preserve">
<style type="text/css">
	.st0{fill:#6A787D;}
</style>
<g>
	<rect x="62.32" y="29.88" class="st0" width="7.39" height="45.8"/>
	<path class="st0" d="M95.36,75.68h7.39V44.65h-7.39v16.39h0.13c0,6.85-5.91,7.52-7.52,7.52c-4.3,0-5.24-4.17-5.24-6.71V44.65h-7.39
		v17.46c0,4.3,1.48,7.79,3.63,10.34c2.01,2.01,5.24,3.22,8.86,3.22c2.55,0,5.91-0.67,7.52-2.55V75.68z"/>
	<polygon class="st0" points="109.86,75.68 117.25,75.68 117.25,52.04 122.62,52.04 122.62,44.65 117.25,44.65 117.25,33.64 
		109.86,33.64 109.86,44.65 104.36,44.65 104.36,52.04 109.86,52.04 	"/>
	<path class="st0" d="M139.82,75.54c4.16,0,8.06-1.48,11.01-4.16l1.08-1.08l-5.1-5.1l-1.08,1.34c-1.61,1.48-3.62,2.28-5.91,2.28
		c-5.1,0-8.86-3.62-8.86-9c0-5.37,3.62-8.87,8.86-8.87c2.28,0,4.3,0.67,5.91,2.28l1.08,0.94l4.83-4.83l-1.07-1.08
		c-3.09-2.55-6.72-4.16-10.75-4.16c-9.13-0.13-15.85,6.45-15.85,15.71C123.97,68.56,130.82,75.54,139.82,75.54"/>
	<path class="st0" d="M162.78,58.35c0-6.85,5.1-7.52,6.71-7.52c4.3,0,4.3,4.16,4.3,6.71v18.13h7.39V57.41
		c0.13-4.03-0.81-7.66-3.22-10.07c-2.01-2.02-4.7-3.22-8.06-3.22c-2.55,0-5.24,0.67-7.25,2.55V29.88h-7.39v45.8h7.39V58.35
		L162.78,58.35L162.78,58.35z"/>
	<path class="st0" d="M134.18,59.83c0,2.96,2.42,5.24,5.24,5.24c2.96,0,5.24-2.42,5.24-5.24c0-2.96-2.42-5.24-5.24-5.24
		C136.59,54.59,134.18,56.87,134.18,59.83"/>
	<path class="st0" d="M41.5,75.54c5.91,0,11.55-2.28,15.31-6.45l1.07-1.07l-4.83-5.1l-0.94,1.34c-2.69,2.69-6.71,4.3-10.61,4.3
		c-8.33,0-14.24-6.45-14.24-15.18c0-8.87,5.91-15.18,14.1-15.18c3.9,0,7.52,1.61,10.61,4.3l1.08,1.08l4.83-4.83l-1.07-1.08
		c-4.03-4.3-9.54-6.45-15.31-6.45c-12.09,0.13-21.09,9.54-21.09,22.16C20.41,66,29.41,75.54,41.5,75.54"/>
	<path class="st0" d="M107.85,89.57h-5.64c-0.13,0-0.4-0.13-0.4-0.27l-1.74-5.37c-0.13-0.4-0.81-0.4-0.94,0l-1.74,5.37
		c0,0.13-0.27,0.27-0.4,0.27h-5.64c-0.4,0-0.67,0.54-0.27,0.81l4.57,3.36c0.13,0.13,0.27,0.27,0.13,0.54l-1.74,5.37
		c-0.13,0.4,0.4,0.81,0.67,0.54l4.57-3.36c0.13-0.13,0.4-0.13,0.54,0l4.57,3.36c0.4,0.27,0.81-0.13,0.67-0.54l-1.74-5.37
		c0-0.13,0-0.4,0.13-0.54l4.57-3.36C108.52,90.11,108.39,89.57,107.85,89.57"/>
	<path class="st0" d="M125.98,89.57h-5.64c-0.13,0-0.4-0.13-0.4-0.27l-1.75-5.37c-0.13-0.4-0.81-0.4-0.94,0l-1.74,5.37
		c0,0.13-0.27,0.27-0.4,0.27h-5.64c-0.4,0-0.67,0.54-0.27,0.81l4.57,3.36c0.13,0.13,0.27,0.27,0.13,0.54l-1.74,5.37
		c-0.13,0.4,0.4,0.81,0.67,0.54l4.57-3.36c0.13-0.13,0.4-0.13,0.54,0l4.57,3.36c0.4,0.27,0.81-0.13,0.67-0.54l-1.74-5.37
		c0-0.13,0-0.4,0.13-0.54l4.57-3.36C126.52,90.11,126.39,89.57,125.98,89.57"/>
	<path class="st0" d="M144.52,89.57h-5.64c-0.13,0-0.4-0.13-0.4-0.27l-1.74-5.37c-0.13-0.4-0.81-0.4-0.94,0l-1.74,5.37
		c0,0.13-0.27,0.27-0.4,0.27H128c-0.4,0-0.67,0.54-0.27,0.81l4.57,3.36c0.13,0.13,0.27,0.27,0.13,0.54l-1.74,5.37
		c-0.13,0.4,0.4,0.81,0.67,0.54l4.57-3.36c0.13-0.13,0.4-0.13,0.54,0l4.57,3.36c0.4,0.27,0.81-0.13,0.67-0.54l-1.74-5.37
		c0-0.13,0-0.4,0.13-0.54l4.57-3.36C145.06,90.11,144.92,89.57,144.52,89.57"/>
	<path class="st0" d="M162.92,89.57h-5.64c-0.13,0-0.4-0.13-0.4-0.27l-1.74-5.37c-0.13-0.4-0.81-0.4-0.94,0l-1.74,5.37
		c0,0.13-0.27,0.27-0.4,0.27h-5.64c-0.4,0-0.67,0.54-0.27,0.81l4.57,3.36c0.13,0.13,0.27,0.27,0.13,0.54l-1.74,5.37
		c-0.13,0.4,0.4,0.81,0.67,0.54l4.57-3.36c0.13-0.13,0.4-0.13,0.54,0l4.57,3.36c0.4,0.27,0.81-0.13,0.67-0.54l-1.74-5.37
		c0-0.13,0-0.4,0.13-0.54l4.57-3.36C163.45,90.11,163.32,89.57,162.92,89.57"/>
	<path class="st0" d="M181.19,90.38c0.4-0.27,0.13-0.81-0.27-0.81h-5.64c-0.13,0-0.4-0.13-0.4-0.27l-1.74-5.37
		c-0.13-0.4-0.81-0.4-0.94,0l-1.74,5.37c0,0.13-0.27,0.27-0.4,0.27h-5.64c-0.4,0-0.67,0.54-0.27,0.81l4.57,3.36
		c0.13,0.13,0.27,0.27,0.13,0.54l-1.74,5.37c-0.13,0.4,0.4,0.81,0.67,0.54l4.57-3.36c0.13-0.13,0.4-0.13,0.54,0l4.57,3.36
		c0.4,0.27,0.81-0.13,0.67-0.54l-1.74-5.37c0-0.13,0-0.4,0.13-0.54L181.19,90.38z"/>
	<g>
		<path class="st0" d="M28.04,94.65c0.59-0.66,0.59-0.66,1.26-1.45l2.85-3.34c0.63-0.72,0.88-1.05,1.22-1.56h2.7
			c-0.08,0.78-0.11,1.3-0.11,2.18v4.28h0.38c0.41,0,0.84-0.04,1.3-0.11v2.39c-0.39-0.05-0.88-0.08-1.29-0.08h-0.39v0.66
			c0,0.74,0.03,1.12,0.11,1.62h-2.71c0.07-0.45,0.11-1,0.11-1.64v-0.64h-3.72c-0.85,0-1.22,0.01-1.71,0.05V94.65z M33.48,93.26
			c0-0.59,0.03-1.32,0.08-1.89c-0.26,0.37-0.46,0.63-0.82,1.08l-1.92,2.34h2.66V93.26z"/>
		<path class="st0" d="M41.27,96.58v2.66h-2.66v-2.66H41.27z"/>
		<path class="st0" d="M51.07,94.44c0.41,0.49,0.58,1.04,0.58,1.8c0,0.83-0.3,1.58-0.87,2.1c-0.8,0.76-2.14,1.17-3.79,1.17
			c-1.67,0-3.02-0.43-3.81-1.21c-0.53-0.51-0.8-1.24-0.8-2.06c0-0.91,0.34-1.63,1.01-2.16c0.41-0.32,0.75-0.47,1.38-0.61
			c-0.66-0.21-0.96-0.37-1.28-0.72c-0.41-0.43-0.63-1.03-0.63-1.68c0-0.68,0.18-1.28,0.54-1.72c0.7-0.85,2-1.34,3.6-1.34
			c2.55,0,4.17,1.16,4.17,2.99c0,1.25-0.61,2.05-1.86,2.49C50.15,93.62,50.64,93.89,51.07,94.44z M45.09,96.02
			c0,0.85,0.72,1.37,1.92,1.37c1.22,0,1.92-0.51,1.92-1.39c0-0.88-0.71-1.39-1.89-1.39C45.83,94.6,45.09,95.14,45.09,96.02z
			 M45.47,91.24c0,0.72,0.61,1.18,1.57,1.18c0.95,0,1.53-0.45,1.53-1.18c0-0.71-0.59-1.16-1.54-1.16
			C46.08,90.09,45.47,90.53,45.47,91.24z"/>
		<path class="st0" d="M59.39,88.3l-4.72,12.82h-2.35l4.73-12.82H59.39z"/>
		<path class="st0" d="M63.22,91.99c0,0.07-0.01,0.2-0.04,0.42c0.59-0.43,1.28-0.63,2.13-0.63c1.17,0,2.13,0.37,2.83,1.08
			c0.66,0.67,0.99,1.53,0.99,2.63c0,2.53-1.66,4.02-4.45,4.02c-1.66,0-2.96-0.57-3.72-1.62c-0.3-0.41-0.46-0.79-0.66-1.47l2.64-0.41
			c0.22,0.87,0.78,1.28,1.72,1.28c1.1,0,1.84-0.7,1.84-1.75c0-1.05-0.71-1.74-1.82-1.74c-0.83,0-1.37,0.33-1.66,0.97l-2.45-0.24
			c0.05-0.39,0.09-0.71,0.13-1.08l0.36-4.1c0.03-0.28,0.04-0.59,0.05-1.09c0.55,0.03,0.68,0.03,1.32,0.03h3.93
			c1.16,0,1.64-0.03,2.17-0.09v2.3c-0.7-0.07-1.3-0.09-2.14-0.09h-3.05L63.22,91.99z"/>
		<path class="st0" d="M73.12,96.58v2.66h-2.66v-2.66H73.12z"/>
		<path class="st0" d="M75.67,98.25c-0.43-0.43-0.76-0.93-0.96-1.46c-0.34-0.93-0.51-1.95-0.51-3.01c0-1.38,0.33-2.81,0.83-3.64
			c0.8-1.34,2.17-2.08,3.83-2.08c1.28,0,2.39,0.43,3.2,1.22c0.43,0.43,0.76,0.93,0.96,1.46c0.34,0.93,0.51,1.95,0.51,3.03
			c0,1.38-0.33,2.83-0.83,3.66c-0.79,1.32-2.17,2.05-3.84,2.05C77.56,99.48,76.47,99.06,75.67,98.25z M76.89,93.68
			c0,2.35,0.67,3.56,1.97,3.56c1.29,0,1.95-1.18,1.95-3.52c0-2.25-0.68-3.43-1.96-3.43C77.62,90.28,76.89,91.53,76.89,93.68z"/>
	</g>
</g>
</svg>
