<svg width="56" height="56" viewBox="0 0 56 56" fill="none" xmlns="http://www.w3.org/2000/svg">
<path d="M35 44.3335C37.8 35.7515 40.894 32.6552 49 30.3335C40.894 28.0118 37.8 24.9155 35 16.3335C32.2 24.9155 29.106 28.0118 21 30.3335C29.106 32.6552 32.2 35.7515 35 44.3335ZM16.3333 23.3335C17.7333 19.0402 19.2803 17.4932 23.3333 16.3335C19.2803 15.1738 17.7333 13.6268 16.3333 9.3335C14.9333 13.6268 13.3863 15.1738 9.33331 16.3335C13.3863 17.4932 14.9333 19.0402 16.3333 23.3335ZM19.8333 46.6668C20.5333 44.5202 21.3056 43.7478 23.3333 43.1668C21.3056 42.5858 20.5333 41.8135 19.8333 39.6668C19.1333 41.8135 18.361 42.5858 16.3333 43.1668C18.361 43.7478 19.1333 44.5202 19.8333 46.6668Z" stroke="#4533A4" stroke-width="4.66667" stroke-linejoin="round"/>
</svg>
