<svg width="56" height="56" viewBox="0 0 56 56" fill="none" xmlns="http://www.w3.org/2000/svg">
<path d="M44.3333 25.6665V23.3332C44.3333 14.5342 44.3333 10.1335 41.5987 7.40117C38.864 4.66884 34.4657 4.6665 25.6667 4.6665C16.8677 4.6665 12.467 4.6665 9.73467 7.40117C7.00233 10.1358 7 14.5342 7 23.3332V32.6665C7 41.4655 7 45.8662 9.73467 48.5985C12.4693 51.3308 16.8677 51.3332 25.6667 51.3332" stroke="#4533A4" stroke-width="4" stroke-linecap="round" stroke-linejoin="round"/>
<path d="M49 51.3333L45.0007 47.3339M46.333 40.6676C46.3511 41.7296 46.1576 42.7847 45.7637 43.7711C45.3698 44.7576 44.7835 45.6558 44.0388 46.4133C43.2942 47.1707 42.4061 47.7724 41.4265 48.183C40.4469 48.5937 39.3954 48.8052 38.3332 48.8052C37.2709 48.8052 36.2194 48.5937 35.2398 48.183C34.2602 47.7724 33.3721 47.1707 32.6275 46.4133C31.8828 45.6558 31.2965 44.7576 30.9026 43.7711C30.5087 42.7847 30.3152 41.7296 30.3333 40.6676C30.3692 38.5696 31.2277 36.5696 32.7241 35.0986C34.2205 33.6275 36.2348 32.8032 38.3332 32.8032C40.4315 32.8032 42.4458 33.6275 43.9422 35.0986C45.4386 36.5696 46.2972 38.5696 46.333 40.6676Z" stroke="#4533A4" stroke-width="4" stroke-linecap="round"/>
<path d="M16.3333 16.333H35M16.3333 25.6663H25.6666" stroke="#4533A4" stroke-width="4" stroke-linecap="round" stroke-linejoin="round"/>
</svg>
