<svg width="56" height="56" viewBox="0 0 56 56" fill="none" xmlns="http://www.w3.org/2000/svg">
<path d="M28 51.3332C28.5694 51.3332 29.099 51.0695 30.1607 50.5398L38.6774 46.3002C42.4504 44.4265 44.3334 43.4862 44.3334 41.9998V23.3332M28 51.3332C27.4307 51.3332 26.901 51.0695 25.8394 50.5398L17.3227 46.3002C13.5497 44.4265 11.6667 43.4862 11.6667 41.9998V23.3332M28 51.3332V32.6665M44.3334 23.3332C44.3334 21.8468 42.448 20.9088 38.6797 19.0328L30.1607 14.7908C29.0967 14.2635 28.5694 13.9998 28 13.9998M44.3334 23.3332C44.3334 24.8195 42.448 25.7575 38.6797 27.6335L30.1607 31.8755C29.099 32.4028 28.5694 32.6665 28 32.6665M11.6667 23.3332C11.6667 21.8468 13.5497 20.9065 17.3227 19.0328L25.8394 14.7932C26.901 14.2635 27.4307 13.9998 28 13.9998M11.6667 23.3332C11.6667 24.8195 13.552 25.7575 17.3204 27.6335L25.8394 31.8755C26.901 32.4028 27.4307 32.6665 28 32.6665M28 13.9998V4.6665M51.3334 48.9998L44.3334 43.1665M4.66669 48.9998L11.6667 43.1665" stroke="#4533A4" stroke-width="3.5" stroke-linecap="round" stroke-linejoin="round"/>
</svg>
