<svg width="56" height="56" viewBox="0 0 56 56" fill="none" xmlns="http://www.w3.org/2000/svg">
<path d="M28 49C22.1278 49 17.1601 48.0962 13.097 46.2887C9.03389 44.4811 7.00156 42.2738 7 39.6667V16.3333C7 13.7667 9.05178 11.5694 13.1553 9.74167C17.2589 7.91389 22.2071 7 28 7C33.7929 7 38.7419 7.91389 42.847 9.74167C46.9521 11.5694 49.0031 13.7667 49 16.3333V39.6667C49 42.2722 46.9677 44.4796 42.903 46.2887C38.8383 48.0978 33.8707 49.0016 28 49ZM28 21.0583C31.4611 21.0583 34.9417 20.5621 38.4417 19.5697C41.9417 18.5772 43.9056 17.5179 44.3333 16.3917C43.9056 15.2639 41.9518 14.1944 38.472 13.1833C34.9922 12.1722 31.5016 11.6667 28 11.6667C24.4611 11.6667 20.9907 12.1629 17.5887 13.1553C14.1867 14.1478 12.2127 15.2266 11.6667 16.3917C12.2111 17.5583 14.1851 18.6278 17.5887 19.6C20.9922 20.5722 24.4627 21.0583 28 21.0583ZM28 32.6667C29.6333 32.6667 31.2083 32.5889 32.725 32.4333C34.2417 32.2778 35.6907 32.0538 37.072 31.7613C38.4533 31.4689 39.7561 31.1096 40.9803 30.6833C42.2046 30.2571 43.3222 29.771 44.3333 29.225V22.225C43.3222 22.7694 42.2046 23.2556 40.9803 23.6833C39.7561 24.1111 38.4533 24.4712 37.072 24.7637C35.6907 25.0561 34.2417 25.2793 32.725 25.4333C31.2083 25.5873 29.6333 25.6651 28 25.6667C26.3667 25.6682 24.7722 25.5904 23.2167 25.4333C21.6611 25.2762 20.1927 25.0522 18.8113 24.7613C17.43 24.4704 16.1373 24.1111 14.9333 23.6833C13.7293 23.2556 12.6404 22.7694 11.6667 22.225V29.225C12.6389 29.7694 13.7278 30.2556 14.9333 30.6833C16.1389 31.1111 17.4323 31.4712 18.8137 31.7637C20.195 32.0561 21.6627 32.2793 23.2167 32.4333C24.7707 32.5873 26.3651 32.6651 28 32.6667ZM28 44.3333C29.7889 44.3333 31.6073 44.1972 33.4553 43.925C35.3033 43.6528 37.0043 43.2934 38.5583 42.847C40.1123 42.4006 41.4151 41.895 42.4667 41.3303C43.5182 40.7657 44.1404 40.1917 44.3333 39.6083V33.8917C43.3222 34.4361 42.2046 34.9222 40.9803 35.35C39.7561 35.7778 38.4533 36.1379 37.072 36.4303C35.6907 36.7228 34.2417 36.946 32.725 37.1C31.2083 37.254 29.6333 37.3318 28 37.3333C26.3667 37.3349 24.7722 37.2571 23.2167 37.1C21.6611 36.9429 20.1927 36.7189 18.8113 36.428C17.43 36.1371 16.1373 35.7778 14.9333 35.35C13.7293 34.9222 12.6404 34.4361 11.6667 33.8917V39.6667C11.8611 40.25 12.474 40.8139 13.5053 41.3583C14.5367 41.9028 15.8293 42.399 17.3833 42.847C18.9373 43.295 20.6484 43.6543 22.5167 43.925C24.3849 44.1957 26.2127 44.3318 28 44.3333Z" fill="#4533A4"/>
</svg>
