<svg width="56" height="56" viewBox="0 0 56 56" fill="none" xmlns="http://www.w3.org/2000/svg">
<path d="M42 30.9165L46.6667 35.5832V46.6665C46.6667 47.9498 46.2101 49.0488 45.297 49.9635C44.3839 50.8782 43.2849 51.3347 42 51.3332H9.33335C8.05002 51.3332 6.9518 50.8766 6.03869 49.9635C5.12558 49.0504 4.66824 47.9514 4.66669 46.6665V13.9998C4.66669 12.7165 5.12402 11.6183 6.03869 10.7052C6.95335 9.79206 8.05158 9.33473 9.33335 9.33317H22.1667C21.8556 10.0332 21.6222 10.7822 21.4667 11.5802C21.3111 12.3782 21.1945 13.1847 21.1167 13.9998H9.33335V46.6665H42V30.9165ZM45.0334 20.7665L52.5 28.2332L49.2334 31.4998L41.7667 24.0332C40.95 24.4998 40.075 24.8887 39.1417 25.1998C38.2084 25.5109 37.2167 25.6665 36.1667 25.6665C33.25 25.6665 30.7712 24.6453 28.7304 22.6028C26.6895 20.5604 25.6682 18.0816 25.6667 15.1665C25.6651 12.2514 26.6864 9.77261 28.7304 7.73017C30.7744 5.68773 33.2531 4.6665 36.1667 4.6665C39.0802 4.6665 41.5598 5.68773 43.6054 7.73017C45.6509 9.77261 46.6714 12.2514 46.6667 15.1665C46.6667 16.2165 46.5111 17.2082 46.2 18.1415C45.8889 19.0748 45.5 19.9498 45.0334 20.7665ZM36.1667 20.9998C37.8 20.9998 39.1806 20.4359 40.3084 19.3082C41.4361 18.1804 42 16.7998 42 15.1665C42 13.5332 41.4361 12.1526 40.3084 11.0248C39.1806 9.89706 37.8 9.33317 36.1667 9.33317C34.5334 9.33317 33.1528 9.89706 32.025 11.0248C30.8972 12.1526 30.3334 13.5332 30.3334 15.1665C30.3334 16.7998 30.8972 18.1804 32.025 19.3082C33.1528 20.4359 34.5334 20.9998 36.1667 20.9998ZM9.33335 30.9165V46.6665V13.9998V30.3332V29.6332V30.9165Z" fill="#4533A4"/>
</svg>
