<svg width="56" height="56" viewBox="0 0 56 56" fill="none" xmlns="http://www.w3.org/2000/svg">
<path d="M18.6083 42.5831C18.2194 41.4554 17.8601 40.3081 17.5303 39.1415C17.2006 37.9748 16.9377 36.8081 16.7417 35.6415L14 37.5081V44.4498L18.6083 42.5831ZM27.1833 11.3748C25.3167 13.3581 23.8194 15.9738 22.6917 19.2218C21.5639 22.4698 21 25.8819 21 29.4581C21 31.7915 21.2139 34.0766 21.6417 36.3135C22.0694 38.5504 22.6333 40.4458 23.3333 41.9998H32.6667C33.3667 40.4442 33.9306 38.5488 34.3583 36.3135C34.7861 34.0781 35 31.793 35 29.4581C35 25.8804 34.4361 22.4682 33.3083 19.2218C32.1806 15.9754 30.6833 13.3597 28.8167 11.3748C28.7 11.2581 28.574 11.171 28.4387 11.1135C28.3033 11.0559 28.1571 11.0264 28 11.0248C27.8429 11.0232 27.6974 11.0528 27.5637 11.1135C27.4299 11.1741 27.3031 11.2612 27.1833 11.3748ZM28 30.3331C26.7167 30.3331 25.6184 29.8766 24.7053 28.9635C23.7922 28.0504 23.3349 26.9514 23.3333 25.6665C23.3318 24.3816 23.7891 23.2834 24.7053 22.3718C25.6216 21.4602 26.7198 21.0029 28 20.9998C29.2802 20.9967 30.3792 21.454 31.297 22.3718C32.2148 23.2896 32.6713 24.3878 32.6667 25.6665C32.662 26.9451 32.2054 28.0441 31.297 28.9635C30.3886 29.8828 29.2896 30.3394 28 30.3331ZM37.3917 42.5831L42 44.4498V37.5081L39.2583 35.6415C39.0639 36.8081 38.8018 37.9748 38.472 39.1415C38.1422 40.3081 37.7821 41.4554 37.3917 42.5831ZM29.8083 6.06647C33.075 8.86647 35.5351 12.3081 37.1887 16.3915C38.8422 20.4748 39.6682 25.122 39.6667 30.3331L44.5667 33.5998C45.2278 34.0276 45.7434 34.5915 46.1137 35.2915C46.4839 35.9915 46.6682 36.7304 46.6667 37.5081V47.8915C46.6667 48.7081 46.3268 49.3498 45.647 49.8165C44.9672 50.2831 44.2377 50.3609 43.4583 50.0498L35.0583 46.6665H20.9417L12.5417 50.0498C11.7639 50.3609 11.0351 50.2831 10.3553 49.8165C9.67556 49.3498 9.33489 48.7081 9.33334 47.8915V37.5081C9.33334 36.7304 9.51845 35.9915 9.88867 35.2915C10.2589 34.5915 10.7738 34.0276 11.4333 33.5998L16.3333 30.3331C16.3333 25.122 17.1601 20.4748 18.8137 16.3915C20.4672 12.3081 22.9258 8.86647 26.1893 6.06647C26.4616 5.87203 26.7532 5.71647 27.0643 5.5998C27.3754 5.48314 27.6866 5.4248 27.9977 5.4248C28.3088 5.4248 28.6199 5.48314 28.931 5.5998C29.2421 5.71647 29.5361 5.87203 29.8083 6.06647Z" fill="#4533A4"/>
</svg>
