<svg width="56" height="56" viewBox="0 0 56 56" fill="none" xmlns="http://www.w3.org/2000/svg">
<path d="M49.875 37.4851L40.495 28.0001L48.405 20.0901C49.2188 19.2803 49.8645 18.3177 50.3052 17.2576C50.7458 16.1974 50.9726 15.0607 50.9726 13.9126C50.9726 12.7646 50.7458 11.6278 50.3052 10.5677C49.8645 9.50755 49.2188 8.54493 48.405 7.73512C46.7648 6.10009 44.5434 5.18198 42.2275 5.18198C39.9116 5.18198 37.6901 6.10009 36.05 7.73512L32.935 10.8151L28 15.7501L18.48 6.12512C17.6563 5.32129 16.5509 4.87134 15.4 4.87134C14.249 4.87134 13.1437 5.32129 12.32 6.12512L6.12498 12.3201C5.71755 12.7265 5.3943 13.2093 5.17375 13.7408C4.95319 14.2723 4.83966 14.8422 4.83966 15.4176C4.83966 15.9931 4.95319 16.5629 5.17375 17.0944C5.3943 17.6259 5.71755 18.1087 6.12498 18.5151L15.75 28.0001L14.98 28.7701L11.865 31.8501L5.73998 44.6601C5.34357 45.4781 5.21179 46.3993 5.36294 47.2956C5.5141 48.1919 5.94069 49.0189 6.58344 49.6617C7.22619 50.3044 8.05318 50.731 8.94951 50.8822C9.84583 51.0333 10.767 50.9015 11.585 50.5051L24.255 44.3801L25.97 42.6651L27.335 41.3001L28 40.4951L37.38 49.8751C38.2037 50.679 39.309 51.1289 40.46 51.1289C41.6109 51.1289 42.7163 50.679 43.54 49.8751L49.735 43.6801C50.1517 43.283 50.486 42.8076 50.7187 42.281C50.9513 41.7545 51.0778 41.1872 51.0908 40.6117C51.1038 40.0362 51.0031 39.4638 50.7944 38.9272C50.5858 38.3907 50.2734 37.9007 49.875 37.4851ZM42.21 9.48512C43.3732 9.48136 44.4915 9.93372 45.325 10.7451C45.7324 11.1515 46.0557 11.6343 46.2762 12.1658C46.4968 12.6973 46.6103 13.2672 46.6103 13.8426C46.6103 14.4181 46.4968 14.9879 46.2762 15.5194C46.0557 16.0509 45.7324 16.5337 45.325 16.9401L39.13 10.9201C39.9548 10.1172 41.0589 9.66547 42.21 9.66012V9.48512ZM9.20498 15.4001L15.4 9.24012L18.27 12.1101L15.225 15.1901L18.305 18.2701L21.385 15.1901L24.885 18.6901L18.83 25.0251L9.20498 15.4001ZM9.65998 46.5851L15.155 35.2801L21 41.0901L9.65998 46.5851ZM24.255 38.1851L18.06 31.9901L36.05 14.0001L42.21 20.1601L24.255 38.1851ZM40.6 46.7601L31.22 37.4151L37.415 31.2201L40.67 34.4751L37.59 37.5551L40.67 40.6701L43.785 37.5551L46.795 40.6001L40.6 46.7601Z" fill="#4533A4"/>
</svg>
