<svg width="56" height="56" viewBox="0 0 56 56" fill="none" xmlns="http://www.w3.org/2000/svg">
<g clip-path="url(#clip0_2141_32)">
<path d="M0.86882 27.5701C1.09504 27.7398 1.35246 27.8632 1.62639 27.9334C1.90031 28.0036 2.18538 28.0191 2.46531 27.9791C2.74524 27.9391 3.01455 27.8444 3.25787 27.7003C3.50119 27.5563 3.71375 27.3657 3.88341 27.1394C5.18713 25.4012 6.87766 23.9903 8.82113 23.0185C10.7646 22.0468 12.9076 21.5409 15.0805 21.5409C17.2533 21.5409 19.3964 22.0468 21.3398 23.0185C23.2833 23.9903 24.9738 25.4012 26.2775 27.1394C26.6206 27.5959 27.1309 27.8974 27.6962 27.9777C28.2615 28.0579 28.8356 27.9103 29.2921 27.5674C29.455 27.4465 29.5991 27.3023 29.7201 27.1394C31.0238 25.4012 32.7143 23.9903 34.6578 23.0185C36.6013 22.0468 38.7443 21.5409 40.9172 21.5409C43.09 21.5409 45.233 22.0468 47.1765 23.0185C49.12 23.9903 50.8105 25.4012 52.1142 27.1394C52.4572 27.5963 52.9677 27.8982 53.5333 27.9787C54.0989 28.0592 54.6733 27.9118 55.1301 27.5688C55.587 27.2257 55.8889 26.7153 55.9694 26.1497C56.0499 25.5841 55.9025 25.0097 55.5595 24.5528C53.6534 21.9976 51.1118 19.9858 48.1872 18.7174C49.7905 17.2536 50.9138 15.3392 51.4097 13.2255C51.9056 11.1118 51.7509 8.89755 50.9658 6.87336C50.1808 4.84918 48.8021 3.10963 47.0107 1.88301C45.2194 0.656383 43.099 0 40.9279 0C38.7568 0 36.6365 0.656383 34.8451 1.88301C33.0537 3.10963 31.6751 4.84918 30.89 6.87336C30.105 8.89755 29.9502 11.1118 30.4461 13.2255C30.942 15.3392 32.0653 17.2536 33.6687 18.7174C31.557 19.6307 29.6387 20.9379 28.0163 22.5691C26.3939 20.9379 24.4756 19.6307 22.3639 18.7174C23.9673 17.2536 25.0906 15.3392 25.5865 13.2255C26.0824 11.1118 25.9277 8.89755 25.1426 6.87336C24.3576 4.84918 22.9789 3.10963 21.1875 1.88301C19.3961 0.656383 17.2758 0 15.1047 0C12.9336 0 10.8132 0.656383 9.02188 1.88301C7.23051 3.10963 5.85183 4.84918 5.06678 6.87336C4.28174 8.89755 4.127 11.1118 4.62288 13.2255C5.11877 15.3392 6.2421 17.2536 7.84545 18.7174C4.9081 19.9819 2.35396 21.9949 0.438164 24.5555C0.2685 24.7817 0.145054 25.0391 0.0748754 25.3131C0.00469661 25.587 -0.0108411 25.8721 0.029149 26.152C0.0691391 26.4319 0.163874 26.7012 0.307945 26.9446C0.452016 27.1879 0.642602 27.4004 0.86882 27.5701ZM40.9198 4.31467C42.1975 4.31467 43.4464 4.69353 44.5087 5.40335C45.5711 6.11317 46.399 7.12206 46.888 8.30244C47.3769 9.48282 47.5048 10.7817 47.2556 12.0348C47.0063 13.2879 46.3911 14.4389 45.4876 15.3423C44.5842 16.2457 43.4332 16.861 42.1801 17.1102C40.927 17.3595 39.6281 17.2316 38.4478 16.7426C37.2674 16.2537 36.2585 15.4257 35.5487 14.3634C34.8389 13.3011 34.46 12.0521 34.46 10.7745C34.46 9.06126 35.1406 7.41817 36.352 6.20671C37.5635 4.99526 39.2066 4.31467 40.9198 4.31467ZM15.0805 4.31467C16.3581 4.31467 17.6071 4.69353 18.6694 5.40335C19.7317 6.11317 20.5597 7.12206 21.0486 8.30244C21.5375 9.48282 21.6654 10.7817 21.4162 12.0348C21.1669 13.2879 20.5517 14.4389 19.6483 15.3423C18.7448 16.2457 17.5938 16.861 16.3407 17.1102C15.0876 17.3595 13.7888 17.2316 12.6084 16.7426C11.428 16.2537 10.4191 15.4257 9.70931 14.3634C8.99949 13.3011 8.62063 12.0521 8.62063 10.7745C8.62063 9.06126 9.30122 7.41817 10.5127 6.20671C11.7241 4.99526 13.3672 4.31467 15.0805 4.31467ZM48.1872 46.7101C49.7905 45.2462 50.9138 43.3318 51.4097 41.2181C51.9056 39.1044 51.7509 36.8902 50.9658 34.866C50.1808 32.8418 48.8021 31.1023 47.0107 29.8757C45.2194 28.649 43.099 27.9926 40.9279 27.9926C38.7568 27.9926 36.6365 28.649 34.8451 29.8757C33.0537 31.1023 31.6751 32.8418 30.89 34.866C30.105 36.8902 29.9502 39.1044 30.4461 41.2181C30.942 43.3318 32.0653 45.2462 33.6687 46.7101C31.557 47.6234 29.6387 48.9306 28.0163 50.5618C26.3939 48.9306 24.4756 47.6234 22.3639 46.7101C23.9673 45.2462 25.0906 43.3318 25.5865 41.2181C26.0824 39.1044 25.9277 36.8902 25.1426 34.866C24.3576 32.8418 22.9789 31.1023 21.1875 29.8757C19.3961 28.649 17.2758 27.9926 15.1047 27.9926C12.9336 27.9926 10.8132 28.649 9.02188 29.8757C7.23051 31.1023 5.85183 32.8418 5.06678 34.866C4.28174 36.8902 4.127 39.1044 4.62288 41.2181C5.11877 43.3318 6.2421 45.2462 7.84545 46.7101C4.9081 47.9745 2.35396 49.9876 0.438164 52.5482C0.2685 52.7744 0.145054 53.0318 0.0748754 53.3057C0.00469661 53.5796 -0.0108411 53.8647 0.029149 54.1446C0.0691391 54.4246 0.163874 54.6939 0.307945 54.9372C0.452016 55.1805 0.642602 55.3931 0.86882 55.5627C1.09504 55.7324 1.35246 55.8559 1.62639 55.926C1.90031 55.9962 2.18538 56.0118 2.46531 55.9718C2.74524 55.9318 3.01455 55.837 3.25787 55.693C3.50119 55.5489 3.71375 55.3583 3.88341 55.1321C5.18713 53.3938 6.87766 51.9829 8.82113 51.0112C10.7646 50.0395 12.9076 49.5336 15.0805 49.5336C17.2533 49.5336 19.3964 50.0395 21.3398 51.0112C23.2833 51.9829 24.9738 53.3938 26.2775 55.1321C26.6206 55.5885 27.1309 55.8901 27.6962 55.9703C28.2615 56.0506 28.8356 55.903 29.2921 55.5601C29.455 55.4391 29.5991 55.2949 29.7201 55.1321C31.0238 53.3938 32.7143 51.9829 34.6578 51.0112C36.6013 50.0395 38.7443 49.5336 40.9172 49.5336C43.09 49.5336 45.233 50.0395 47.1765 51.0112C49.12 51.9829 50.8105 53.3938 52.1142 55.1321C52.4572 55.589 52.9677 55.8909 53.5333 55.9714C54.0989 56.0519 54.6733 55.9044 55.1301 55.5614C55.587 55.2184 55.8889 54.7079 55.9694 54.1423C56.0499 53.5767 55.9025 53.0023 55.5595 52.5455C53.6534 49.9902 51.1118 47.9784 48.1872 46.7101ZM15.0805 32.3073C16.3581 32.3073 17.6071 32.6862 18.6694 33.396C19.7317 34.1058 20.5597 35.1147 21.0486 36.2951C21.5375 37.4755 21.6654 38.7743 21.4162 40.0274C21.1669 41.2805 20.5517 42.4315 19.6483 43.335C18.7448 44.2384 17.5938 44.8536 16.3407 45.1029C15.0876 45.3521 13.7888 45.2242 12.6084 44.7353C11.428 44.2463 10.4191 43.4184 9.70931 42.3561C8.99949 41.2937 8.62063 40.0448 8.62063 38.7672C8.62063 37.0539 9.30122 35.4108 10.5127 34.1994C11.7241 32.9879 13.3672 32.3073 15.0805 32.3073ZM40.9198 32.3073C42.1975 32.3073 43.4464 32.6862 44.5087 33.396C45.5711 34.1058 46.399 35.1147 46.888 36.2951C47.3769 37.4755 47.5048 38.7743 47.2556 40.0274C47.0063 41.2805 46.3911 42.4315 45.4876 43.335C44.5842 44.2384 43.4332 44.8536 42.1801 45.1029C40.927 45.3521 39.6281 45.2242 38.4478 44.7353C37.2674 44.2463 36.2585 43.4184 35.5487 42.3561C34.8389 41.2937 34.46 40.0448 34.46 38.7672C34.46 37.0539 35.1406 35.4108 36.352 34.1994C37.5635 32.9879 39.2066 32.3073 40.9198 32.3073Z" fill="#4533A4"/>
</g>
<defs>
<clipPath id="clip0_2141_32">
<rect width="56" height="56" fill="white"/>
</clipPath>
</defs>
</svg>
