<?xml version="1.0" encoding="UTF-8" standalone="no"?>
<!-- Generator: Adobe Illustrator 28.1.0, SVG Export Plug-In . SVG Version: 6.00 Build 0)  -->

<svg
   version="1.1"
   id="Capa_1"
   x="0px"
   y="0px"
   viewBox="0 0 209.21 189.45"
   style="enable-background:new 0 0 209.21 189.45;"
   xml:space="preserve"
   sodipodi:docname="APP_Website_icons_ENE24-04.svg"
   inkscape:version="1.3 (0e150ed, 2023-07-21)"
   xmlns:inkscape="http://www.inkscape.org/namespaces/inkscape"
   xmlns:sodipodi="http://sodipodi.sourceforge.net/DTD/sodipodi-0.dtd"
   xmlns="http://www.w3.org/2000/svg"
   xmlns:svg="http://www.w3.org/2000/svg"><defs
   id="defs9" /><sodipodi:namedview
   id="namedview9"
   pagecolor="#ffffff"
   bordercolor="#000000"
   borderopacity="0.25"
   inkscape:showpageshadow="2"
   inkscape:pageopacity="0.0"
   inkscape:pagecheckerboard="0"
   inkscape:deskcolor="#d1d1d1"
   inkscape:zoom="1.1280531"
   inkscape:cx="104.605"
   inkscape:cy="94.853689"
   inkscape:window-width="1312"
   inkscape:window-height="449"
   inkscape:window-x="0"
   inkscape:window-y="25"
   inkscape:window-maximized="0"
   inkscape:current-layer="Capa_1" />&#10;<g
   id="g9"
   style="fill:#ffffff">&#10;	<g
   id="g1"
   style="fill:#ffffff">&#10;		<path
   d="M104.6,157.5c-34.61,0-62.77-28.16-62.77-62.77s28.16-62.77,62.77-62.77s62.77,28.16,62.77,62.77    S139.21,157.5,104.6,157.5z M104.6,34.48c-33.22,0-60.25,27.03-60.25,60.25s27.03,60.25,60.25,60.25s60.25-27.03,60.25-60.25    S137.82,34.48,104.6,34.48z"
   id="path1"
   style="fill:#ffffff" />&#10;	</g>&#10;	<g
   id="g3"
   style="fill:#ffffff">&#10;		<path
   d="M77.96,75.25H76.8l1.72-11.45h22.96v6.86c-9.18,14.33-10.84,18.92-9.18,33.25H81.95c0.61-12.12,3.54-18.87,14.94-30.99    H83.05c-1.33,0-2.93,0.61-3.93,1.38L77.96,75.25z"
   id="path2"
   style="fill:#ffffff" />&#10;		<path
   d="M130.58,92.46h1.16l-1.77,11.45h-25.23v-5.2c0-8.58,18.31-13.44,18.31-25.01c0-4.81-3.1-7.08-6.58-7.08    c-1.55,0-2.21,0.44-2.77,0.72c1.49,1.22,1.94,3.1,1.94,4.59c0,3.54-2.38,6.03-5.81,6.03c-3.38,0-5.7-2.38-5.7-5.75    c0-5.42,5.75-9.02,13.61-9.02c8.52,0,14.66,4.32,14.66,12.34c0,15.55-22.91,14.88-22.91,19.2h15.38c1.33,0,2.99-0.5,4.09-1.27    L130.58,92.46z"
   id="path3"
   style="fill:#ffffff" />&#10;	</g>&#10;	<g
   id="g8"
   style="fill:#ffffff">&#10;		<path
   d="M84.59,118.94c-1.12,0-1.9,0.3-2.48,0.63v8.38h-2.42v-16.19h2.42v5.94c0.84-0.5,1.79-0.8,2.89-0.8    c2.74,0,3.71,1.36,3.71,3.43v7.62H86.3v-7.41C86.3,119.43,85.74,118.94,84.59,118.94z"
   id="path4"
   style="fill:#ffffff" />&#10;		<path
   d="M90.7,122.54c0-3.32,0.95-5.66,4.79-5.66c3.84,0,4.79,2.33,4.79,5.66c0,3.32-0.95,5.66-4.79,5.66    C91.65,128.2,90.7,125.87,90.7,122.54z M97.85,122.54c0-2.31-0.3-3.63-2.35-3.63s-2.35,1.32-2.35,3.63c0,2.31,0.3,3.63,2.35,3.63    S97.85,124.85,97.85,122.54z"
   id="path5"
   style="fill:#ffffff" />&#10;		<path
   d="M104.69,117.14v7.41c0,1.1,0.56,1.6,1.71,1.6c1.12,0,1.9-0.3,2.48-0.63v-8.38h2.42v10.79h-1.42l-0.39-0.86    c-1.1,0.76-2.33,1.12-3.5,1.12c-2.74,0-3.71-1.36-3.71-3.43v-7.62H104.69z"
   id="path6"
   style="fill:#ffffff" />&#10;		<path
   d="M120.04,119.09c-0.26-0.09-0.69-0.13-1.19-0.13c-1.27,0-2.22,0.3-2.76,0.65v8.33h-2.42v-10.79h1.42l0.39,0.86    c0.8-0.65,2.01-1.12,3.41-1.12c0.45,0,0.84,0.07,1.14,0.13V119.09z"
   id="path7"
   style="fill:#ffffff" />&#10;		<path
   d="M125.43,121.46c3.24,0.28,4.08,1.25,4.08,3.26c0,1.86-1.14,3.48-4.6,3.48c-1.49,0-2.83-0.28-3.56-0.58v-2.07    c0.71,0.26,1.86,0.6,3.22,0.6c1.73,0,2.57-0.39,2.57-1.34c0-0.8-0.35-1.21-1.79-1.34c-3.26-0.28-4.06-1.3-4.06-3.15    s1.21-3.43,4.38-3.43c1.47,0,2.5,0.17,3.35,0.54v2.09c-0.93-0.35-1.94-0.61-3.3-0.61c-1.27,0-2.07,0.37-2.07,1.34    C123.64,121.01,124.03,121.33,125.43,121.46z"
   id="path8"
   style="fill:#ffffff" />&#10;	</g>&#10;</g>&#10;</svg>
