<?xml version="1.0" encoding="UTF-8" standalone="no"?>
<!-- Generator: Adobe Illustrator 28.1.0, SVG Export Plug-In . SVG Version: 6.00 Build 0)  -->

<svg
   version="1.1"
   id="Capa_1"
   x="0px"
   y="0px"
   viewBox="0 0 125.54 125.54"
   xml:space="preserve"
   sodipodi:docname="72-hours.svg"
   inkscape:version="1.3 (0e150ed, 2023-07-21)"
   width="125.54"
   height="125.54"
   xmlns:inkscape="http://www.inkscape.org/namespaces/inkscape"
   xmlns:sodipodi="http://sodipodi.sourceforge.net/DTD/sodipodi-0.dtd"
   xmlns="http://www.w3.org/2000/svg"
   xmlns:svg="http://www.w3.org/2000/svg"><defs
   id="defs9" /><sodipodi:namedview
   id="namedview9"
   pagecolor="#ffffff"
   bordercolor="#000000"
   borderopacity="0.25"
   inkscape:showpageshadow="2"
   inkscape:pageopacity="0.0"
   inkscape:pagecheckerboard="0"
   inkscape:deskcolor="#d1d1d1"
   inkscape:zoom="1.1280531"
   inkscape:cx="62.9403"
   inkscape:cy="62.9403"
   inkscape:window-width="1312"
   inkscape:window-height="449"
   inkscape:window-x="0"
   inkscape:window-y="25"
   inkscape:window-maximized="0"
   inkscape:current-layer="Capa_1" />&#10;<g
   id="g9"
   style="fill:#ffffff"
   transform="translate(-41.83,-31.96)">&#10;	<g
   id="g1"
   style="fill:#ffffff">&#10;		<path
   d="m 104.6,157.5 c -34.61,0 -62.77,-28.16 -62.77,-62.77 0,-34.61 28.16,-62.77 62.77,-62.77 34.61,0 62.77,28.16 62.77,62.77 0,34.61 -28.16,62.77 -62.77,62.77 z m 0,-123.02 c -33.22,0 -60.25,27.03 -60.25,60.25 0,33.22 27.03,60.25 60.25,60.25 33.22,0 60.25,-27.03 60.25,-60.25 0,-33.22 -27.03,-60.25 -60.25,-60.25 z"
   id="path1"
   style="fill:#ffffff" />&#10;	</g>&#10;	<g
   id="g3"
   style="fill:#ffffff">&#10;		<path
   d="M 77.96,75.25 H 76.8 L 78.52,63.8 h 22.96 v 6.86 C 92.3,84.99 90.64,89.58 92.3,103.91 H 81.95 C 82.56,91.79 85.49,85.04 96.89,72.92 H 83.05 c -1.33,0 -2.93,0.61 -3.93,1.38 z"
   id="path2"
   style="fill:#ffffff" />&#10;		<path
   d="m 130.58,92.46 h 1.16 l -1.77,11.45 h -25.23 v -5.2 c 0,-8.58 18.31,-13.44 18.31,-25.01 0,-4.81 -3.1,-7.08 -6.58,-7.08 -1.55,0 -2.21,0.44 -2.77,0.72 1.49,1.22 1.94,3.1 1.94,4.59 0,3.54 -2.38,6.03 -5.81,6.03 -3.38,0 -5.7,-2.38 -5.7,-5.75 0,-5.42 5.75,-9.02 13.61,-9.02 8.52,0 14.66,4.32 14.66,12.34 0,15.55 -22.91,14.88 -22.91,19.2 h 15.38 c 1.33,0 2.99,-0.5 4.09,-1.27 z"
   id="path3"
   style="fill:#ffffff" />&#10;	</g>&#10;	<g
   id="g8"
   style="fill:#ffffff">&#10;		<path
   d="m 84.59,118.94 c -1.12,0 -1.9,0.3 -2.48,0.63 v 8.38 h -2.42 v -16.19 h 2.42 v 5.94 c 0.84,-0.5 1.79,-0.8 2.89,-0.8 2.74,0 3.71,1.36 3.71,3.43 v 7.62 H 86.3 v -7.41 c 0,-1.11 -0.56,-1.6 -1.71,-1.6 z"
   id="path4"
   style="fill:#ffffff" />&#10;		<path
   d="m 90.7,122.54 c 0,-3.32 0.95,-5.66 4.79,-5.66 3.84,0 4.79,2.33 4.79,5.66 0,3.32 -0.95,5.66 -4.79,5.66 -3.84,0 -4.79,-2.33 -4.79,-5.66 z m 7.15,0 c 0,-2.31 -0.3,-3.63 -2.35,-3.63 -2.05,0 -2.35,1.32 -2.35,3.63 0,2.31 0.3,3.63 2.35,3.63 2.05,0 2.35,-1.32 2.35,-3.63 z"
   id="path5"
   style="fill:#ffffff" />&#10;		<path
   d="m 104.69,117.14 v 7.41 c 0,1.1 0.56,1.6 1.71,1.6 1.12,0 1.9,-0.3 2.48,-0.63 v -8.38 h 2.42 v 10.79 h -1.42 l -0.39,-0.86 c -1.1,0.76 -2.33,1.12 -3.5,1.12 -2.74,0 -3.71,-1.36 -3.71,-3.43 v -7.62 z"
   id="path6"
   style="fill:#ffffff" />&#10;		<path
   d="m 120.04,119.09 c -0.26,-0.09 -0.69,-0.13 -1.19,-0.13 -1.27,0 -2.22,0.3 -2.76,0.65 v 8.33 h -2.42 v -10.79 h 1.42 l 0.39,0.86 c 0.8,-0.65 2.01,-1.12 3.41,-1.12 0.45,0 0.84,0.07 1.14,0.13 v 2.07 z"
   id="path7"
   style="fill:#ffffff" />&#10;		<path
   d="m 125.43,121.46 c 3.24,0.28 4.08,1.25 4.08,3.26 0,1.86 -1.14,3.48 -4.6,3.48 -1.49,0 -2.83,-0.28 -3.56,-0.58 v -2.07 c 0.71,0.26 1.86,0.6 3.22,0.6 1.73,0 2.57,-0.39 2.57,-1.34 0,-0.8 -0.35,-1.21 -1.79,-1.34 -3.26,-0.28 -4.06,-1.3 -4.06,-3.15 0,-1.85 1.21,-3.43 4.38,-3.43 1.47,0 2.5,0.17 3.35,0.54 v 2.09 c -0.93,-0.35 -1.94,-0.61 -3.3,-0.61 -1.27,0 -2.07,0.37 -2.07,1.34 -0.01,0.76 0.38,1.08 1.78,1.21 z"
   id="path8"
   style="fill:#ffffff" />&#10;	</g>&#10;</g>&#10;</svg>
