<?xml version="1.0" encoding="utf-8"?>
<!-- Generator: Adobe Illustrator 26.5.0, SVG Export Plug-In . SVG Version: 6.00 Build 0)  -->
<svg version="1.1"
	 id="Capa_1" xmlns:inkscape="http://www.inkscape.org/namespaces/inkscape" xmlns:sodipodi="http://sodipodi.sourceforge.net/DTD/sodipodi-0.dtd" xmlns:svg="http://www.w3.org/2000/svg" inkscape:version="1.3 (0e150ed, 2023-07-21)" sodipodi:docname="seach-icon.svg"
	 xmlns="http://www.w3.org/2000/svg" xmlns:xlink="http://www.w3.org/1999/xlink" x="0px" y="0px" viewBox="0 0 209.2 189.4"
	 style="enable-background:new 0 0 209.2 189.4;" xml:space="preserve">
<style type="text/css">
	.st0{fill:#E5A818;}
</style>
<sodipodi:namedview  bordercolor="#000000" borderopacity="0.25" id="namedview3" inkscape:current-layer="Capa_1" inkscape:cx="104.35805" inkscape:cy="94.724998" inkscape:deskcolor="#d1d1d1" inkscape:pagecheckerboard="0" inkscape:pageopacity="0.0" inkscape:showpageshadow="2" inkscape:window-height="449" inkscape:window-maximized="0" inkscape:window-width="1312" inkscape:window-x="0" inkscape:window-y="25" inkscape:zoom="1.2457113" pagecolor="#ffffff">
	</sodipodi:namedview>
<g>
	<path class="st0" d="M104.6,59.2c2.3,0,4.7-0.1,7,0c1.4,0.1,1.9-0.4,1.8-1.8c-0.1-4.3,0-8.6-0.1-12.9c0-1.8,0.5-3.2,1.9-4.4
		c1.4-1.3,2.6-2.7,4-4c1-0.9,1.2-1.7,0.7-3c-1.8-5.2,1-10.7,6.1-12.2c5.3-1.6,10.6,1.5,11.9,7c0.8,3.5-0.2,6.6-2.7,9
		c-2.7,2.5-6,3.4-9.5,2c-1.4-0.5-2.1-0.2-3.2,0.7c-3.6,2.8-5.1,6.2-4.5,10.7c0.3,2.4,0.1,4.8,0,7.2c-0.1,1.5,0.5,1.8,1.9,1.8
		c3-0.1,6-0.1,9,0c5.3,0,9.2,3.9,9.3,9.3c0,3,0.1,6,0,9c0,1.4,0.3,1.9,1.8,1.9c4-0.1,8-0.1,12,0c1,0,1.8-0.3,2.5-1.1
		c0.6-0.7,1.2-1.3,1.9-1.8c2.2-1.6,2.8-3.3,2-6.2c-1.4-4.9,2.6-10.1,7.8-10.9c5.4-0.8,10.4,3.2,10.9,8.9c0.4,4.9-3.8,9.7-8.8,9.9
		c-1,0-2.2,0.2-3-0.3c-2.1-1.1-3.6-0.3-4.8,1.4c-3,4.2-7,5.7-12.1,5c-2.8-0.4-5.7,0-8.5-0.1c-1.2,0-1.6,0.4-1.6,1.6
		c0.1,4.8,0.1,9.6,0,14.4c0,1.3,0.5,1.6,1.7,1.6c4.4-0.1,8.9,0,13.3,0c1.6,0,2.8,0.4,3.8,1.6c0.4,0.5,0.9,0.9,1.4,1.4
		c2.2,2.2,3.9,4.4,8.1,3.3c5.4-1.4,9.8,3,10.4,8.6c0.4,4.6-3.5,9.3-8.3,9.9c-5.3,0.6-9.9-3-10.6-8.4c-0.2-1.6,0-3.1,0.7-4.5
		c0.5-0.9,0.4-1.6-0.4-2.2c-0.1,0-0.1-0.1-0.2-0.2c-2.8-3.9-6.4-5.5-11.2-4.8c-2.3,0.3-4.7,0.1-7,0c-1.3-0.1-1.8,0.3-1.7,1.7
		c0.1,2.8,0,5.5,0,8.3c0,6.4-3.7,10.1-10.2,10.1c-2.8,0-5.5,0.1-8.3,0c-1.3,0-1.6,0.4-1.6,1.6c0.1,4.1,0,8.2,0,12.2
		c0,1,0.3,1.7,1,2.3c0.7,0.6,1.4,1.3,2,2c1.6,1.9,3.1,2.9,6,1.9c4.9-1.6,10.3,2.5,11.1,7.8c0.8,5.4-3.1,10.2-8.7,10.8
		c-5,0.5-9.8-3.7-10-8.8c0-0.9-0.2-2.1,0.2-2.8c1.3-2.4,0.2-3.9-1.5-5.1c-4-2.9-5.4-6.7-4.8-11.5c0.3-2.9,0-5.8,0.1-8.7
		c0-1.3-0.3-1.8-1.7-1.8c-4.7,0.1-9.5,0.1-14.2,0c-1.4,0-1.7,0.4-1.7,1.7c0.1,4.4,0,8.7,0.1,13.1c0,1.7-0.4,3-1.6,4.1
		c-0.6,0.5-1.1,1.1-1.7,1.7c-2.2,2-3.9,3.7-3,7.6c1.3,5.5-3,10.1-8.7,10.6c-4.7,0.4-9.3-3.5-9.9-8.3c-0.6-5.3,3.1-9.9,8.5-10.6
		c1.6-0.2,3.1,0,4.5,0.7c1,0.5,1.6,0.3,2.2-0.5c0.1-0.1,0.2-0.2,0.3-0.3c3.8-2.7,5.3-6.2,4.6-10.9c-0.3-2.3-0.2-4.7,0-7
		c0.1-1.6-0.5-2-2-1.9c-3,0.1-6,0.1-9,0c-5.2-0.1-9.1-4-9.1-9.1c0-3.1-0.1-6.1,0-9.2c0-1.3-0.3-1.8-1.7-1.8c-4.1,0.1-8.2,0.1-12.2,0
		c-1,0-1.7,0.3-2.3,1c-0.6,0.7-1.3,1.4-2,2c-2,1.6-2.8,3.1-1.9,6c1.5,4.9-2.4,10.1-7.7,11c-5.4,0.9-10.4-3.1-10.9-8.8
		c-0.5-5,3.8-9.8,8.9-10c1.2,0,2.4-0.1,3.4,0.4c1.5,0.8,2.6,0.5,3.5-0.8c3.4-4.8,8-6.5,13.7-5.7c2.5,0.4,5.1,0,7.6,0.1
		c1.1,0,1.5-0.4,1.5-1.5c-0.1-4.8-0.1-9.6,0-14.4c0-1.4-0.6-1.7-1.8-1.6c-4.4,0.1-8.7,0-13.1,0.1c-1.7,0-3-0.4-4-1.7
		c-0.6-0.7-1.3-1.2-1.8-1.9c-1.9-2.2-3.6-3.6-7.2-2.7c-5.5,1.3-10.1-2.8-10.7-8.5c-0.5-4.6,3.4-9.4,8.2-10c5.3-0.7,10.1,3,10.7,8.5
		c0.2,1.4,0,2.8-0.6,4c-0.6,1.2-0.2,1.8,0.5,2.8c2.9,3.7,6.3,5.4,11.1,4.7c2.3-0.4,4.8-0.1,7.2,0c1.2,0,1.7-0.4,1.6-1.6
		c-0.1-2.8,0-5.7,0-8.5c0-6.2,3.7-10,9.9-10c2.8,0,5.7-0.1,8.5,0c1.4,0,1.7-0.4,1.7-1.7c-0.1-3.9-0.1-7.9,0-11.8
		c0-1.2-0.3-2.1-1.2-2.9c-0.6-0.5-1.1-1-1.5-1.5c-1.7-2.2-3.4-3.1-6.5-2.1c-4.7,1.5-9.9-2.6-10.7-7.8c-0.8-5.3,3-10.2,8.6-10.9
		c4.7-0.6,9.7,3.4,10.1,8.2c0.1,1.3,0.3,2.7-0.3,3.9c-0.9,1.7-0.4,2.9,1,3.9c4.6,3.2,6.3,7.6,5.5,13.2c-0.4,2.5,0,5.1-0.1,7.6
		c-0.1,1.6,0.5,2,2,1.9C100.1,59.2,102.3,59.2,104.6,59.2z M104.8,64c-7.8,0-15.6,0-23.4,0c-4.2,0-5.7,1.4-5.7,5.6
		c0,15.5,0,31,0,46.5c0,4.1,1.5,5.6,5.5,5.6c15.6,0,31.1,0,46.7,0c3.9,0,5.5-1.5,5.5-5.4c0-15.6,0-31.3,0-46.9
		c0-3.8-1.6-5.3-5.3-5.3C120.4,64,112.6,64,104.8,64z M167.5,73.2c2.5,0,4.6-2.1,4.6-4.6c0-2.5-2.1-4.6-4.6-4.6
		c-2.6,0-4.8,2.2-4.7,4.7C162.9,71.2,165,73.3,167.5,73.2z M85,155.7c0-2.5-2.1-4.6-4.5-4.7c-2.5,0-4.7,2.2-4.7,4.8
		c0.1,2.5,2.1,4.5,4.7,4.5C82.9,160.4,85,158.3,85,155.7z M167.6,112.5c-2.5,0-4.6,2-4.8,4.4c-0.1,2.5,2.1,4.8,4.6,4.8
		c2.6,0,4.5-2,4.5-4.6C172,114.5,170.2,112.5,167.6,112.5z M85,30c0-2.6-1.9-4.5-4.6-4.5c-2.6,0-4.6,1.9-4.6,4.5
		c0,2.6,2.2,4.8,4.7,4.7C82.9,34.6,85,32.4,85,30z M128.7,25.5c-2.6,0-4.5,1.9-4.5,4.6c0,2.5,2.1,4.6,4.5,4.6c2.5,0,4.7-2.2,4.6-4.8
		C133.4,27.3,131.4,25.5,128.7,25.5z M41.7,73.2c2.5,0,4.6-2.1,4.7-4.5c0.1-2.5-2.2-4.7-4.8-4.7c-2.6,0-4.5,2-4.4,4.7
		C37.2,71.3,39.1,73.2,41.7,73.2z M37.2,117.1c0,2.6,1.9,4.6,4.5,4.6c2.6,0,4.8-2.2,4.7-4.7c-0.1-2.4-2.2-4.5-4.7-4.5
		C39.1,112.5,37.2,114.4,37.2,117.1z M128.8,160.3c2.6,0,4.6-1.9,4.7-4.4c0.1-2.6-2.1-4.8-4.7-4.8c-2.4,0-4.5,2.2-4.5,4.7
		C124.2,158.3,126.1,160.2,128.8,160.3z"/>
	<path class="st0" d="M88.8,103.3c0.6-1.6,1.3-3.6,2-5.4c2-5.1,4-10.3,6-15.4c0.5-1.3,1-2.7,2.8-2.7c1.7,0,2.2,1.4,2.7,2.7
		c2.5,6.4,5,12.9,7.5,19.3c0.3,0.8,0.7,1.6,0.4,2.5c-0.3,1-1,1.6-2.1,1.6c-1.2,0.1-2.2-0.5-2.4-1.5c-0.6-3.9-3.3-3.9-6.3-3.6
		c-0.2,0-0.4,0-0.7,0c-2.7-0.5-4.6,0.2-5.2,3.3c-0.3,1.3-1.3,2.1-2.8,1.9C89.6,105.7,89,104.9,88.8,103.3z M99.6,88.9
		c-0.6,1.4-1,2.5-1.4,3.5c-1.5,3.8-1.4,3.9,2.8,3.6c1-0.1,1.3-0.4,0.9-1.3C101.2,92.9,100.5,91.1,99.6,88.9z"/>
	<path class="st0" d="M120.3,93c0,3.3,0,6.5,0,9.8c0,1.8-0.5,3.2-2.5,3.1c-1.8,0-2.4-1.3-2.4-3c0-6.7,0-13.4,0-20.1
		c0-1.7,0.5-3,2.4-3c2,0,2.5,1.4,2.5,3.1C120.3,86.3,120.3,89.6,120.3,93z"/>
</g>
</svg>
