<?xml version="1.0" encoding="UTF-8" standalone="no"?>
<!-- Generator: Adobe Illustrator 28.1.0, SVG Export Plug-In . SVG Version: 6.00 Build 0)  -->

<svg
   version="1.1"
   id="Capa_1"
   x="0px"
   y="0px"
   viewBox="0 0 209.21 189.45"
   style="enable-background:new 0 0 209.21 189.45;"
   xml:space="preserve"
   sodipodi:docname="checkbox-icon.svg"
   inkscape:version="1.3 (0e150ed, 2023-07-21)"
   xmlns:inkscape="http://www.inkscape.org/namespaces/inkscape"
   xmlns:sodipodi="http://sodipodi.sourceforge.net/DTD/sodipodi-0.dtd"
   xmlns="http://www.w3.org/2000/svg"
   xmlns:svg="http://www.w3.org/2000/svg"><defs
   id="defs2" /><sodipodi:namedview
   id="namedview2"
   pagecolor="#ffffff"
   bordercolor="#000000"
   borderopacity="0.25"
   inkscape:showpageshadow="2"
   inkscape:pageopacity="0.0"
   inkscape:pagecheckerboard="0"
   inkscape:deskcolor="#d1d1d1"
   inkscape:zoom="1.2457113"
   inkscape:cx="104.35805"
   inkscape:cy="94.724998"
   inkscape:window-width="1472"
   inkscape:window-height="637"
   inkscape:window-x="0"
   inkscape:window-y="25"
   inkscape:window-maximized="0"
   inkscape:current-layer="Capa_1" />&#10;<g
   id="g2"
   style="fill:#e5a818;fill-opacity:1">&#10;	<path
   d="M57.14,94.69c0-10.91-0.07-21.82,0.04-32.73c0.03-3.24,1.4-6.12,3.42-8.59c2.19-2.68,4.94-4.44,8.25-5.2   c0.82-0.19,1.66-0.33,2.49-0.33c16.76-0.02,33.51-0.03,50.27-0.01c2.21,0,4.06,0.82,4.97,3.11c1.43,3.61-0.71,6.82-4.05,7.29   c-0.46,0.06-0.94,0.03-1.4,0.03c-16.13,0-32.26,0.01-48.39-0.01c-2.4,0-4.31,0.75-5.24,3.21c-0.26,0.68-0.32,1.48-0.32,2.23   c-0.02,20.68,0.02,41.36-0.05,62.04c-0.01,3.07,2.15,5.51,5.33,5.5c19.8-0.07,39.6-0.06,59.4-0.01c2.77,0.01,5.3-2.54,5.28-5.58   c-0.06-10.14,0-20.27-0.04-30.41c-0.01-2.46,0.86-4.25,3.01-5.25c2.57-1.19,5.95,0.14,6.78,3.43c0.19,0.76,0.24,1.58,0.24,2.38   c0.02,9.69,0.02,19.38,0.01,29.07c0,3.14-0.47,6.17-2.09,8.9c-2.45,4.16-5.86,6.9-10.57,7.63c-1.18,0.18-2.38,0.24-3.57,0.24   c-20.07,0.01-40.15,0.06-60.22-0.04c-3.17-0.01-5.97-1.54-8.39-3.73c-2.81-2.55-4.46-5.78-5.12-9.58   c-0.08-0.47-0.03-0.97-0.03-1.46c0-10.71,0-21.41,0-32.12C57.15,94.69,57.15,94.69,57.14,94.69z"
   id="path1"
   style="fill:#e5a818;fill-opacity:1" />&#10;	<path
   d="M102.23,97.87c0.42-0.51,0.73-0.94,1.09-1.31c13.5-14.08,27.03-28.13,40.48-42.26c1.19-1.25,4.51-1.4,5.81-0.57   c1.88,1.21,2.94,3.59,2.28,5.58c-0.34,1.05-0.89,2.14-1.63,2.91c-14.82,15.52-29.69,30.99-44.54,46.49   c-1.96,2.04-5.2,2.3-7.33,0.06c-4.84-5.09-9.72-10.13-14.57-15.21c-2.5-2.61-2.32-6.04,0.42-8.39c1.2-1.03,4.35-1.01,5.63,0.06   c0.75,0.63,1.48,1.29,2.16,2C95.38,90.71,98.71,94.2,102.23,97.87z"
   id="path2"
   style="fill:#e5a818;fill-opacity:1" />&#10;</g>&#10;</svg>
