<?xml version="1.0" encoding="utf-8"?>
<!-- Generator: Adobe Illustrator 26.5.0, SVG Export Plug-In . SVG Version: 6.00 Build 0)  -->
<svg version="1.1"
	 id="Capa_1" xmlns:inkscape="http://www.inkscape.org/namespaces/inkscape" xmlns:sodipodi="http://sodipodi.sourceforge.net/DTD/sodipodi-0.dtd" xmlns:svg="http://www.w3.org/2000/svg" inkscape:version="1.3 (0e150ed, 2023-07-21)" sodipodi:docname="seach-icon.svg"
	 xmlns="http://www.w3.org/2000/svg" xmlns:xlink="http://www.w3.org/1999/xlink" x="0px" y="0px" viewBox="0 0 209.2 189.4"
	 style="enable-background:new 0 0 209.2 189.4;" xml:space="preserve">
<style type="text/css">
	.st0{fill:#E5A818;}
</style>
<sodipodi:namedview  bordercolor="#000000" borderopacity="0.25" id="namedview3" inkscape:current-layer="Capa_1" inkscape:cx="104.35805" inkscape:cy="94.724998" inkscape:deskcolor="#d1d1d1" inkscape:pagecheckerboard="0" inkscape:pageopacity="0.0" inkscape:showpageshadow="2" inkscape:window-height="449" inkscape:window-maximized="0" inkscape:window-width="1312" inkscape:window-x="0" inkscape:window-y="25" inkscape:zoom="1.2457113" pagecolor="#ffffff">
	</sodipodi:namedview>
<g>
	<path class="st0" d="M32.2,87c0.8-1.8,0.9-3.8,1.6-5.6c2.7-7.4,7.6-12.8,14.7-16.1c0.8-0.4,1.2-0.8,1.5-1.7
		c4.7-14.6,22-21.1,35.1-13.2c1.1,0.6,1.4,0.4,1.9-0.6c8.3-14.5,24.7-22,41.2-19.1c16.1,2.9,29.1,15.9,31.7,32
		c0.3,1.7,0.9,2.6,2.5,3.4c10.3,5.5,16,17,14.3,28.7c-1.6,11.1-10.4,20.4-21.4,22.9c-3.5,0.8-7,0.7-10.6,0.6c-1.2,0-1.6,0.4-1.9,1.5
		c-5.5,19.2-17.6,32.4-36.4,39.4c-1.2,0.5-2.3,0.5-3.5,0c-18.8-7-31-20.2-36.5-39.5c-0.3-1-0.7-1.4-1.8-1.3c-5,0.2-10,0.1-14.7-1.9
		c-9.3-3.9-15-10.7-17.1-20.6c-0.1-0.5,0-1.1-0.5-1.5C32.2,91.9,32.2,89.4,32.2,87z M144.4,112.7c1.7,0,3.4,0,5.2,0
		c14.8-0.2,25.2-14.7,20.7-28.8c-2.1-6.6-6.4-11.2-12.8-13.8c-1.8-0.7-2.7-1.7-2.8-3.6c0-1.1-0.2-2.3-0.4-3.4
		c-3-14.9-14.9-25.6-30.4-27.1c-13.7-1.3-27.5,6.1-33.6,20c-1.3,2.8-3,3.2-5.4,1.2c-10.6-8.9-26.4-3.9-29.8,9.5
		c-0.4,1.7-1.3,2.6-2.9,3.2c-12.7,4.9-18.2,20-11.2,31.6c5.3,9,13.8,12,24,11c-0.1-0.5-0.1-1-0.2-1.5c-0.6-9.7-0.2-19.4-0.3-29.1
		c0-1.6,1.1-2.7,2.7-2.9c12.5-1.2,24.5-4.4,35.9-9.7c1-0.5,2-0.5,3,0c11.4,5.2,23.4,8.5,35.9,9.7c1.7,0.2,2.8,1.3,2.7,3
		C144.6,92.3,145.1,102.5,144.4,112.7z M139.1,97.6c0-4.5,0-8.3,0-12c0-0.8-0.1-1.1-1-1.2c-1.5-0.1-2.9-0.4-4.3-0.6
		c-9.8-1.6-19.2-4.4-28.3-8.4c-0.5-0.2-1-0.3-1.6-0.1c-10.4,4.6-21.3,7.6-32.6,9c-1,0.1-1.2,0.5-1.2,1.4c0,6.1,0,12.2,0,18.2
		c0,3.4,0.2,6.9,0.8,10.3c3.3,17.1,12.8,29.7,28.4,37.4c6.3,3.1,4.2,3.1,10.5,0c16.3-8.1,25.8-21.2,28.7-39.2
		C139.4,107.2,139,102,139.1,97.6z"/>
	<path class="st0" d="M104.6,133.6c-4,0-7.9,0-11.9,0c-3.7,0-5.7-2-5.7-5.7c0-6.3,0-12.6,0-18.9c0-3.1,1.5-4.9,4.4-5.4
		c0.8-0.1,0.9-0.5,0.9-1.2c0-1.9-0.1-3.8,0.6-5.7c1.8-5.5,7.5-9.2,13-8.4c6.2,0.9,10.6,5.7,10.8,11.8c0,0.2,0,0.4,0,0.6
		c0,0.8-0.2,1.8,0.1,2.5c0.3,0.7,1.4,0.4,2.1,0.7c1.9,0.9,3.1,2.4,3.1,4.5c0.1,6.8,0.1,13.6,0,20.3c0,2.9-2.2,4.8-5.3,4.9
		C112.7,133.6,108.7,133.6,104.6,133.6z M104.5,103.5c1.1,0,2.3,0,3.4,0c3.3,0,3.3,0,3.2-3.3c-0.1-3.3-2.5-6-5.8-6.4
		c-3.1-0.4-6,1.6-7,4.7c-0.4,1.3-0.2,2.6-0.3,3.9c-0.1,0.8,0.2,1.1,1,1C100.9,103.4,102.7,103.5,104.5,103.5z M104.6,125.2
		c0.4,0,0.8,0,1.3,0c1.8,0,1.8,0,1.8-1.9c0-1.8-0.1-3.6,1-5.3c1.1-1.7,0.2-4.1-1.5-5.3c-1.6-1.2-3.9-1.1-5.5,0.2
		c-1.6,1.4-2.3,3.7-1.1,5.4c0.8,1.3,0.9,2.5,0.9,3.8C101.5,125.2,101.5,125.2,104.6,125.2z"/>
</g>
</svg>
