<?xml version="1.0" encoding="utf-8"?>
<!-- Generator: Adobe Illustrator 28.1.0, SVG Export Plug-In . SVG Version: 6.00 Build 0)  -->
<svg version="1.1" id="Capa_1" xmlns="http://www.w3.org/2000/svg" xmlns:xlink="http://www.w3.org/1999/xlink" x="0px" y="0px"
	 viewBox="0 0 97.07 92.19" style="enable-background:new 0 0 97.07 92.19;" xml:space="preserve">
<style type="text/css">
	.st0{fill:#FFFFFF;}
</style>
<g>
	<g>
		<path class="st0" d="M46.01,89.29c-1.66-0.22-3.35-0.36-4.99-0.68c-13.67-2.63-23.9-10.08-30.59-22.26
			c-3.77-6.85-5.48-14.28-5-22.07c1-16.21,8.7-28.36,22.86-36.29c6.82-3.82,14.27-5.49,22.06-5.01c16.21,1,28.34,8.7,36.29,22.85
			c2.96,5.26,4.52,10.99,4.94,17.02c0.02,0.24,0.09,0.48,0.14,0.73v5.06c-0.05,0.24-0.13,0.48-0.14,0.73
			c-0.42,6.02-2.02,11.73-4.93,17.01c-6.72,12.17-16.92,19.62-30.59,22.24c-1.65,0.32-3.33,0.46-4.99,0.68H46.01z M48.58,6.83
			C26.96,6.78,9.33,24.38,9.27,46.07C9.22,67.69,26.83,85.33,48.51,85.38c21.61,0.05,39.25-17.56,39.3-39.24
			C87.86,24.52,70.26,6.88,48.58,6.83"/>
	</g>
	<g>
		<path class="st0" d="M49.61,64.76c4.94,0,9.57-1.75,13.07-4.94l1.28-1.28l-6.06-6.06l-1.28,1.59c-1.91,1.75-4.3,2.71-7.02,2.71
			c-6.06,0-10.52-4.3-10.52-10.68c0-6.38,4.3-10.52,10.52-10.52c2.71,0,5.1,0.8,7.02,2.71l1.28,1.11l5.74-5.74l-1.28-1.28
			c-3.67-3.03-7.97-4.94-12.76-4.94c-10.84-0.16-18.82,7.66-18.82,18.65C30.79,56.46,38.92,64.76,49.61,64.76"/>
		<path class="st0" d="M42.91,46.1c0,3.51,2.87,6.22,6.22,6.22c3.51,0,6.22-2.87,6.22-6.22c0-3.51-2.87-6.22-6.22-6.22
			C45.78,39.88,42.91,42.59,42.91,46.1"/>
	</g>
</g>
</svg>
