<?xml version="1.0" encoding="utf-8"?>
<!-- Generator: Adobe Illustrator 26.5.0, SVG Export Plug-In . SVG Version: 6.00 Build 0)  -->
<svg version="1.1"
	 id="Capa_1" xmlns:inkscape="http://www.inkscape.org/namespaces/inkscape" xmlns:sodipodi="http://sodipodi.sourceforge.net/DTD/sodipodi-0.dtd" xmlns:svg="http://www.w3.org/2000/svg" inkscape:version="1.3 (0e150ed, 2023-07-21)" sodipodi:docname="seach-icon.svg"
	 xmlns="http://www.w3.org/2000/svg" xmlns:xlink="http://www.w3.org/1999/xlink" x="0px" y="0px" viewBox="0 0 209.2 189.4"
	 style="enable-background:new 0 0 209.2 189.4;" xml:space="preserve">
<style type="text/css">
	.st0{fill:#E5A818;}
</style>
<sodipodi:namedview  bordercolor="#000000" borderopacity="0.25" id="namedview3" inkscape:current-layer="Capa_1" inkscape:cx="104.35805" inkscape:cy="94.724998" inkscape:deskcolor="#d1d1d1" inkscape:pagecheckerboard="0" inkscape:pageopacity="0.0" inkscape:showpageshadow="2" inkscape:window-height="449" inkscape:window-maximized="0" inkscape:window-width="1312" inkscape:window-x="0" inkscape:window-y="25" inkscape:zoom="1.2457113" pagecolor="#ffffff">
	</sodipodi:namedview>
<g>
	<path class="st0" d="M102.7,48.1c0,2.8-0.1,5.5,0,8.3c0.1,1.4-0.3,2.1-1.9,1.9c-1-0.1-2.1-0.1-3.1,0c-2.5,0.3-4.3,2.2-4.1,4.6
		c0.1,2.5,1.6,4,4,4.4c1.6,0.2,3.9-0.5,4.6,0.4c1.2,1.3,0.4,3.6,0.4,5.5c0.1,5.6,0,5.5,5.5,5.7c2.3,0.1,3.6-0.1,4.2-2.9
		c0.9-4,4.7-6.4,8.8-6.3c4.1,0.1,7.7,2.9,8.5,7.1c0.4,1.9,1.2,2.1,2.8,2.1c3.1-0.1,6.3,0.1,9.4-0.1c1.5-0.1,1.9,0.4,1.9,1.9
		c0,13.7-4.9,25.2-15.1,34.3c-2.8,2.5-5.7,4.7-8.6,7.1c-2.2,1.9-2.1,6.5,0.2,8.2c4,3,3.9,8.5-0.3,11.2c-1.2,0.8-1.7,1.3-1.4,2.8
		c0.4,2.3-0.5,4.4-2.4,5.7c-1.6,1.1-2.3,2.3-2.9,4.2c-1.9,6.7-8.4,11.3-15.5,11.2c-7-0.1-13.3-5-15.1-11.7c-0.4-1.5-0.9-2.5-2.3-3.3
		c-2.2-1.3-3.2-3.5-2.9-6.1c0.1-1.2,0.1-1.9-1.1-2.7c-4.6-2.9-4.7-8.3-0.3-11.5c1.9-1.4,2-6.3,0.2-7.9c-2.8-2.3-5.7-4.5-8.3-6.9
		c-14-12.6-18.9-28.2-13.6-46.1c5.3-17.6,17.8-27.9,36.1-31c3.5-0.6,7-0.3,10.5-0.5c1.6-0.1,1.7,0.6,1.6,1.9
		C102.6,42.4,102.7,45.2,102.7,48.1z M66.4,83.3c-2.5,0-4.9,0.1-7.4,0c-1.8-0.1-2,0.6-1.8,2.1c1.2,10.2,5.4,18.9,13.1,25.8
		c2.3,2,4.5,4.1,7.1,5.8c3.7,2.5,5.8,5.4,4.9,10.1c-0.4,1.7,0.6,2,2.1,2c3.9-0.1,7.8-0.2,11.7,0c2,0.1,2.3-0.7,2.2-2.4
		c-0.1-4.4-0.1-8.7,0-13.1c0-1.8-0.2-2.7-2.3-3.2c-4-0.8-6.6-4.3-6.8-8.1c-0.2-3.8,1.7-8,5.4-8.8c4-0.8,3.9-3.1,3.7-5.9
		c-0.1-0.9-0.1-1.7,0-2.6c0.1-1.2-0.3-1.7-1.6-1.6c-2.2,0.1-4.4,0.1-6.6,0c-1.8,0-3.9,0.4-5.2-0.4c-1.1-0.7-0.2-3-0.4-4.6
		c-0.3-2.5-2.3-4.3-4.6-4.1c-2.5,0.1-4,1.6-4.4,4c-0.3,1.6,0.8,4-0.5,4.8c-1.3,0.8-3.5,0.2-5.3,0.3C68.5,83.3,67.5,83.3,66.4,83.3z
		 M102.7,117.3c0,1.7,0,3.4,0,5.1c0,6.5,0,6.5,6.6,6.5c4.8,0,4.9,0,4.7-4.6c-0.1-2.5,0.7-4,2.6-5.4c3-2.3,6-4.7,8.8-7.2
		c7.9-6.9,12.3-15.7,13.6-26.1c0.2-1.7-0.2-2.4-2-2.2c-1.9,0.2-3.8,0.1-5.7,0c-1.9,0-4.1,0.4-5.5-0.4c-1.1-0.6-0.2-3-0.4-4.6
		c-0.3-2.5-2.3-4.3-4.6-4.1c-2.5,0.2-4,1.6-4.4,4.1c-0.1,0.9-0.1,1.9,0,2.8c0.2,1.7-0.2,2.3-2.1,2.2c-3.2-0.2-6.5,0-9.7-0.1
		c-1.4,0-2.1,0.2-1.9,1.8c0.1,2.1,0.1,4.2,0,6.3c0,1.8,0.5,3.9-0.4,5.2c-0.7,1.1-3,0.2-4.6,0.4c-2.5,0.3-4.3,2.2-4.1,4.6
		c0.1,2.5,1.6,4,4,4.4c0.7,0.1,1.5,0.2,2.3,0c2.5-0.5,3,0.7,2.8,2.9C102.5,111.8,102.7,114.6,102.7,117.3z M57.2,78.8
		c3.7,0,7.4-0.1,11.1,0c1.6,0,2.4-0.2,2.8-2.1c0.8-4.1,4.3-6.8,8.3-7.1c3.9-0.2,8.2,2,8.9,5.7c0.7,3.6,2.7,3.6,5.3,3.4
		c1-0.1,2.1,0,3.1,0c0.4,0,1.3-0.1,1.3-0.3c0.1-2,0.3-4,0.2-5.9c-0.1-1.2-1.4-0.7-2.1-0.9c-3.8-1.1-6.5-4.2-6.9-7.9
		c-0.4-3.8,1.4-8.1,5-9c4.6-1.1,4.3-3.9,4.1-7.2c-0.1-0.9-0.1-1.9,0-2.8c0.3-2.1-0.3-2.7-2.6-2.6C75.7,42.6,59.1,58.3,57.2,78.8z
		 M98,138.1c5.7,0,11.4,0,17.1,0c1.7,0,3.5-0.1,3.4-2.3c0-2-1.6-2.2-3.3-2.2c-11.5,0-23,0-34.5,0c-1.7,0-3.2,0.4-3.2,2.4
		c0,2,1.6,2.2,3.3,2.2C86.7,138.1,92.4,138.1,98,138.1z M109.1,151.8c-6.9,0-13.6,0.1-20.3,0c-1.9,0-1.7,0.8-1.2,2
		c1.8,4.5,6.7,7.5,11.5,7.1C104,160.4,107.9,157,109.1,151.8z M98,147.2c4.3,0,8.5,0,12.8,0c1.7,0,3.2-0.4,3.2-2.3
		c0-1.8-1.4-2.2-3-2.2c-8.6,0-17.3,0-25.9,0c-1.6,0-2.9,0.6-2.9,2.3c0,1.8,1.4,2.2,3,2.2C89.5,147.2,93.8,147.2,98,147.2z"/>
	<path class="st0" d="M143.9,24c5,0,10.1,0,15.1,0c4.9,0,7.6,2.7,7.6,7.6c0,8.6,0,17.3,0,25.9c0,4.7-2.8,7.4-7.4,7.5
		c-3,0-6.1-0.1-9.1,0c-1.4,0-1.9-0.4-1.7-1.7c0.1-1,0.1-2.1,0-3.1c-0.2-2.5-2.1-4.3-4.5-4.3c-2.4,0-4.2,1.7-4.6,4.2
		c-0.2,1.6,0.8,3.8-0.4,4.6c-1.3,0.8-3.5,0.3-5.3,0.3c-3.5,0-7-0.1-10.5,0c-1.6,0-2.2-0.3-2.1-2c0.1-2.5,0-4.9,0-7.4
		c0-1.2,0-1.9-1.6-2.2c-4.7-1-7.6-4.6-7.5-9.1c0.1-4.3,2.9-7.9,7.5-8.8c1.6-0.3,1.7-1,1.7-2.2c-0.1-2.5-0.2-5,1.7-7
		c1.6-1.7,3.5-2.4,5.8-2.4C133.6,24,138.7,24,143.9,24z M143.9,28.6c-3.6,0-7.2,0-10.8,0c-8.4,0-7.6-0.8-7.6,7.7
		c0,3.6,0,3.6-3.7,3.7c-3.4,0.1-5.4,1.8-5.4,4.5c0,2.8,2,4.5,5.4,4.6c3.7,0.1,3.7,0.1,3.7,3.7c0,0.4,0,0.8,0,1.1
		c0,6.6,0,6.5,6.5,6.6c1.8,0,2.5-0.3,2.9-2.2c0.9-4,4.2-6.6,8.1-6.9c3.9-0.3,8.1,1.9,9,5.6c0.8,3.5,2.6,3.9,5.5,3.5
		c0.5-0.1,0.9,0,1.4,0c2.2,0.1,3.1-0.9,3.1-3.1c0-8.6,0-17.1,0-25.7c0-2.3-1-3.3-3.3-3.2C153.8,28.6,148.9,28.6,143.9,28.6z"/>
</g>
</svg>
