<?xml version="1.0" encoding="utf-8"?>
<!-- Generator: Adobe Illustrator 26.5.0, SVG Export Plug-In . SVG Version: 6.00 Build 0)  -->
<svg version="1.1"
	 id="Capa_1" xmlns:inkscape="http://www.inkscape.org/namespaces/inkscape" xmlns:sodipodi="http://sodipodi.sourceforge.net/DTD/sodipodi-0.dtd" xmlns:svg="http://www.w3.org/2000/svg" inkscape:version="1.3 (0e150ed, 2023-07-21)" sodipodi:docname="seach-icon.svg"
	 xmlns="http://www.w3.org/2000/svg" xmlns:xlink="http://www.w3.org/1999/xlink" x="0px" y="0px" viewBox="0 0 209.2 189.4"
	 style="enable-background:new 0 0 209.2 189.4;" xml:space="preserve">
<style type="text/css">
	.st0{fill:#E5A818;}
</style>
<sodipodi:namedview  bordercolor="#000000" borderopacity="0.25" id="namedview3" inkscape:current-layer="Capa_1" inkscape:cx="104.35805" inkscape:cy="94.724998" inkscape:deskcolor="#d1d1d1" inkscape:pagecheckerboard="0" inkscape:pageopacity="0.0" inkscape:showpageshadow="2" inkscape:window-height="449" inkscape:window-maximized="0" inkscape:window-width="1312" inkscape:window-x="0" inkscape:window-y="25" inkscape:zoom="1.2457113" pagecolor="#ffffff">
	</sodipodi:namedview>
<g>
	<path class="st0" d="M191,69c-0.9,2-2.7,3-4.5,4.1c-7.3,4.2-14.6,8.4-21.9,12.6c-0.9,0.5-1.3,1.1-1.3,2.2
		c0.1,6.1-0.2,12.2,0.1,18.2c0.3,8.6-3.2,15.3-9.5,20.8c-6.8,6-14.9,9.4-23.6,11.5c-15.3,3.6-30.6,3.3-45.7-1.4
		c-8.1-2.6-15.6-6.4-21.4-12.8c-4.4-4.8-6.8-10.3-6.6-16.9c0.1-6.5,0-13,0-19.5c0-0.8-0.1-1.3-0.9-1.8c-5.9-3.4-11.8-6.8-17.7-10.2
		c-0.1-0.1-0.3-0.1-0.4-0.1c-0.3,0.6-0.2,1.1-0.2,1.7c0,15.7,0,31.4,0,47.1c0,3.4,0.5,6.6,1.5,9.8c3.1,9.8,6.1,19.7,9.1,29.5
		c0.8,2.7,0.2,4.1-2.6,5.9c-8.2,0-16.4,0-24.5,0c-2.3-1.6-3.1-3.6-2.2-6.4c2.9-9.2,5.8-18.5,8.6-27.7c0.8-2.8,2-5.5,2-8.5
		c-0.1-19.2,0-38.4-0.1-57.7c0-2.4,0.9-4,3-5.2c24.8-14.2,49.5-28.5,74.3-42.9c2.6-1.5,4.7-1.4,7.2,0C138,35.4,162.5,49.5,187,63.6
		c1.8,1,3.3,2.1,3.9,4.1C191,68.1,191,68.6,191,69z M49.2,63.7c0,0.1,0.1,0.2,0.1,0.3c0.6,0,1.1,0,1.7,0c14,0,28,0,42,0
		c1.8,0,3.5,0,4.5-1.9c0.4-0.6,1.1-1.1,1.8-1.5c6.9-4,14-4.2,20.9-0.2c6.7,3.9,6.4,11.8-0.3,15.7c-2.5,1.5-5.3,2.2-8.2,2.4
		c-5.9,0.3-11.4-0.7-15.3-5.8c-0.5-0.6-1-0.5-1.5-0.5c-14.9,0-29.8,0-44.6,0c-0.3,0-0.7-0.2-1,0.3c0.2,0.1,0.4,0.3,0.7,0.4
		c19.7,11.4,39.5,22.8,59.2,34.2c0.9,0.5,1.4,0.2,2.1-0.2c16.8-9.7,33.7-19.4,50.5-29.2c5.6-3.2,11.1-6.4,16.7-9.7
		c-0.3-0.2-0.5-0.4-0.8-0.5c-22.2-12.8-44.4-25.6-66.6-38.5c-0.8-0.5-1.3-0.4-2.1,0c-14.5,8.4-29,16.8-43.6,25.2
		C59.9,57.5,54.6,60.6,49.2,63.7z M155.1,91.2c-0.7,0.4-1.2,0.7-1.7,1c-13.6,7.8-27.2,15.7-40.7,23.5c-1.8,1-3.5,1.2-5.3,0.1
		c-11.9-6.9-23.8-13.8-35.7-20.6c-2.2-1.3-4.5-2.6-6.9-4c0,5.6,0.1,11,0,16.3c-0.1,3.6,1.1,6.7,3.2,9.5c3.3,4.4,7.8,7.4,12.8,9.6
		c17.2,7.4,34.7,7.8,52.5,2.4c6.6-2,12.6-5.1,17.4-10.2c2.5-2.7,4.4-5.7,4.5-9.4C155.2,103.2,155.1,97.3,155.1,91.2z M33.2,143.9
		c-1.9,6-3.6,11.7-5.4,17.5c3.4,0,6.7,0,9.9,0c0.9,0,0.8-0.4,0.6-1C36.7,155,35,149.6,33.2,143.9z M110,70.4c2.1,0,4.1-0.4,6-1.5
		c0.8-0.5,0.8-1-0.1-1.4c-3.9-1.9-7.9-2-11.9,0c-1.3,0.6-0.8,1.1,0.1,1.7C106,70.1,108,70.4,110,70.4z"/>
</g>
</svg>
