<?xml version="1.0" encoding="utf-8"?>
<!-- Generator: Adobe Illustrator 26.5.0, SVG Export Plug-In . SVG Version: 6.00 Build 0)  -->
<svg version="1.1"
	 id="Capa_1" xmlns:inkscape="http://www.inkscape.org/namespaces/inkscape" xmlns:sodipodi="http://sodipodi.sourceforge.net/DTD/sodipodi-0.dtd" xmlns:svg="http://www.w3.org/2000/svg" inkscape:version="1.3 (0e150ed, 2023-07-21)" sodipodi:docname="seach-icon.svg"
	 xmlns="http://www.w3.org/2000/svg" xmlns:xlink="http://www.w3.org/1999/xlink" x="0px" y="0px" viewBox="0 0 209.2 189.4"
	 style="enable-background:new 0 0 209.2 189.4;" xml:space="preserve">
<style type="text/css">
	.st0{fill:#E5A818;}
</style>
<sodipodi:namedview  bordercolor="#000000" borderopacity="0.25" id="namedview3" inkscape:current-layer="Capa_1" inkscape:cx="104.35805" inkscape:cy="94.724998" inkscape:deskcolor="#d1d1d1" inkscape:pagecheckerboard="0" inkscape:pageopacity="0.0" inkscape:showpageshadow="2" inkscape:window-height="449" inkscape:window-maximized="0" inkscape:window-width="1312" inkscape:window-x="0" inkscape:window-y="25" inkscape:zoom="1.2457113" pagecolor="#ffffff">
	</sodipodi:namedview>
<g>
	<path class="st0" d="M73.8,167.1c-0.3-0.3-0.6-0.7-0.9-1c-12-12-24-24-35.9-35.9c-0.3-0.3-0.7-0.6-1.1-1c2.9-2.9,5.7-5.7,8.5-8.5
		c3.8-3.8,7.6-7.6,11.4-11.4c0.6-0.6,1-0.8,1.6,0c1.2,1.3,2.5,2.4,3.7,3.7c0.6,0.7,0.9,0.5,1.5,0c4.2-4.2,8.4-8.4,12.6-12.6
		c0.7-0.7,0.6-1.1,0-1.8c-6-6.3-9.9-13.8-11.6-22.3c-4-19.9,6.1-40.5,24.5-49.1c17.1-8,33.4-6,48.2,5.6c9.1,7.1,14.3,16.7,16,28.2
		c0.8,5.5,0.7,10.9-0.6,16.2c-0.2,0.8-0.1,1.2,0.9,1.2c4.5,0.1,8.2,2,10.6,5.9c3.3,5.4,2.6,11.4-1.9,16c-8.5,8.6-17,17.1-25.6,25.6
		c-5.3,5.2-11.8,7.6-19.3,7.6c-7.8,0-15.5,0-23.3,0c-1,0-1.8,0.3-2.4,1c-1,1.1-2,2.1-3.1,3.1c-0.8,0.7-0.9,1.2-0.1,2
		c2,1.9,3.9,3.9,5.9,5.8c0.8,0.7,0.8,1.1,0,1.8c-6.3,6.2-12.5,12.4-18.7,18.7c-0.3,0.3-0.8,0.6-0.9,1
		C74,167.1,73.9,167.1,73.8,167.1z M71.2,69c0.1,8.2,3.3,16.5,9.7,23.6c0.8,0.9,1.2,0.9,2.1,0.2c2.3-2,5-3.3,7.9-4.3
		c3.7-1.3,7.5-1.4,11.4-1.4c0.4,0,0.9,0.2,1.2-0.2c0.5-0.7-0.2-2.8-1-3.3c-3.2-1.9-5-4.7-5.5-8.4c-0.1-0.7,0.1-1,0.9-1
		c2.1,0,4.2,0,6.4,0c0.8,0,1.2,0.1,1.5,1c0.3,1,1.3,1.5,2.4,1.2c1.1-0.2,1.8-1,1.8-2.2c0-1.2-0.6-1.9-1.8-2.2
		c-0.5-0.1-1.1-0.2-1.7-0.2c-4.5-0.5-8.2-3.8-9.3-8.2c-1-4.3,0.8-9,4.7-11.4c1.3-0.8,1.8-1.6,1.6-3c0-0.2,0-0.4,0-0.6
		c-0.1-0.8,0.3-1,1-1c1.9,0,3.8,0.1,5.6,0c1.4-0.1,2.1,0.3,1.8,1.8c-0.2,1.3,0.3,1.9,1.4,2.6c3,1.8,4.7,4.5,5.1,8
		c0.1,0.9-0.2,1.1-1.1,1.1c-2-0.1-4,0-6.1,0c-0.7,0-1.2,0-1.5-1c-0.4-1.1-1.4-1.5-2.5-1.2c-1.1,0.2-1.7,1-1.7,2.1
		c0,1.1,0.5,1.9,1.6,2.2c0.4,0.1,0.9,0.2,1.4,0.2c4.8,0.4,8.6,3.6,9.8,8.4c1.1,4.2-0.9,9.1-4.9,11.4c-1.3,0.7-1.5,1.5-1.5,2.8
		c0,0.8,0.3,1.1,1.1,1c2.1,0,4.1,0,6.2,0c5,0,9,2,11.7,6.3c0.4,0.7,0.6,0.7,1.2,0.2c1.4-1.5,2.9-2.9,4.4-4.4c1.1-1.1,2.4-2,3.1-3.4
		c5.1-9.2,6.2-18.9,3.1-29c-5.5-17.8-23.6-28.5-41.9-25C83.7,34.9,71.1,50.3,71.2,69z M104.2,125.1c4.2,0,8.5,0,12.7,0
		c5.1,0,9.5-1.6,13.1-5.2c8.5-8.5,17-16.9,25.4-25.4c1.9-1.9,1.9-4.6,0.1-6.3c-1.7-1.7-4.4-1.7-6.2,0.1
		c-6.7,6.7-13.6,13.3-20.1,20.2c-2.3,2.4-5.1,4-8.4,4.1c-7,0.2-13.9,0.1-20.9,0.2c-0.9,0-1-0.4-1-1.1c0-2,0.1-4,0-5.9
		c-0.1-1.1,0.2-1.5,1.5-1.5c6.3,0.1,12.6,0.1,18.9,0c2.9,0,4.9-1.9,4.9-4.3c0-2.5-2-4.3-4.9-4.3c-6.6,0-13.3,0-19.9,0
		c-4.9,0-9.1,1.6-12.6,5c-6.2,6.1-12.3,12.3-18.5,18.4c-0.5,0.5-0.6,0.8,0,1.3c4,3.9,7.9,7.8,11.8,11.8c0.5,0.5,0.8,0.5,1.3,0
		c2-2,4-4,6-6c0.7-0.7,1.4-1,2.3-1C94.6,125.2,99.4,125.1,104.2,125.1z M74,155c0.3-0.3,0.5-0.5,0.8-0.7c2.3-2.3,4.6-4.7,7-7
		c0.7-0.7,0.7-1.1,0-1.7c-4.6-4.5-9.1-9-13.6-13.5c-3.6-3.6-7.3-7.2-10.9-10.9c-0.6-0.6-0.9-0.6-1.5,0c-2.4,2.4-4.8,4.8-7.2,7.2
		c-0.4,0.4-0.7,0.7-0.1,1.3c8.3,8.3,16.6,16.5,24.8,24.8C73.5,154.7,73.7,154.8,74,155z"/>
</g>
</svg>
