<?xml version="1.0" encoding="utf-8"?>
<!-- Generator: Adobe Illustrator 26.5.0, SVG Export Plug-In . SVG Version: 6.00 Build 0)  -->
<svg version="1.1"
	 id="Capa_1" xmlns:inkscape="http://www.inkscape.org/namespaces/inkscape" xmlns:sodipodi="http://sodipodi.sourceforge.net/DTD/sodipodi-0.dtd" xmlns:svg="http://www.w3.org/2000/svg" inkscape:version="1.3 (0e150ed, 2023-07-21)" sodipodi:docname="seach-icon.svg"
	 xmlns="http://www.w3.org/2000/svg" xmlns:xlink="http://www.w3.org/1999/xlink" x="0px" y="0px" viewBox="0 0 209.2 189.4"
	 style="enable-background:new 0 0 209.2 189.4;" xml:space="preserve">
<style type="text/css">
	.st0{fill:#E5A818;}
</style>
<sodipodi:namedview  bordercolor="#000000" borderopacity="0.25" id="namedview3" inkscape:current-layer="Capa_1" inkscape:cx="104.35805" inkscape:cy="94.724998" inkscape:deskcolor="#d1d1d1" inkscape:pagecheckerboard="0" inkscape:pageopacity="0.0" inkscape:showpageshadow="2" inkscape:window-height="449" inkscape:window-maximized="0" inkscape:window-width="1312" inkscape:window-x="0" inkscape:window-y="25" inkscape:zoom="1.2457113" pagecolor="#ffffff">
	</sodipodi:namedview>
<g>
	<path class="st0" d="M184,120.4c-0.8,1.7-0.8,3.7-1.2,5.5c-4.9,21.3-25.9,36.5-47.6,34.5c-7.1-0.7-13.7-2.8-19.8-6.5
		c-0.8-0.5-1.3-0.5-2.1,0c-3.9,2.2-8,4.3-12.1,6.2c-1.1,0.5-2.3,0.6-3.4,0.1c-17-8-32.7-17.9-45.8-31.5
		C40.7,117,31.9,103.7,27.7,87.9c-3.2-12-3.6-24,1-35.7C34.4,37.3,47.1,28.6,63,28.3c10.3-0.2,19.8,2.9,28.9,7.4
		c2.1,1.1,4.2,2.2,6.2,3.4c1,0.6,1.7,0.5,2.6-0.1c7.9-4.7,16.2-8.4,25.3-10c11.5-2,22.5-0.7,32.1,6.6c8.3,6.4,12.7,15.1,14.6,25.2
		c1.4,7.5,1,15-0.5,22.5c-0.2,0.8-0.2,1.5,0.4,2.3c6.2,7,9.8,15.2,11,24.5c0,0.2,0,0.5,0.3,0.6C184,114,184,117.2,184,120.4z
		 M109,149.2c-19.5-17.7-18.5-45.1-5.3-61.8c13.2-16.7,41.2-24.4,62.9-7.7c0.1-0.4,0.2-0.8,0.3-1.2c0.8-6.2,0.8-12.4-0.6-18.5
		c-2.2-9.4-7-17.1-15.7-21.8c-7.5-4.1-15.6-4.5-23.8-2.9c-9,1.7-17.2,5.5-24.8,10.3c-1.7,1.1-3.2,1.2-5,0c-2.9-1.9-6-3.6-9.2-5.1
		c-7.8-3.7-15.9-6.3-24.7-6.1c-13.4,0.4-22.9,6.7-28.3,19c-4.4,10.1-4.1,20.5-1.6,31c3.4,14.1,10.8,26.1,20.4,36.7
		c12.7,14.1,28.2,24.3,45.1,32.4c0.6,0.3,1,0.3,1.6,0C103.1,152.1,106,150.7,109,149.2z M138.9,76.6c-21.4,0-38.8,17.4-38.8,38.8
		c0,21.4,17.5,38.9,39,38.8c21.4-0.1,38.8-17.5,38.7-38.9C177.8,94,160.3,76.6,138.9,76.6z"/>
	<path class="st0" d="M139.1,90c2.8,0,5.6,0,8.4,0c2.4,0,3.5,1.1,3.6,3.5c0.1,2.7,0.1,5.4,0,8.1c-0.1,1.4,0.2,2,1.8,1.9
		c2.7-0.2,5.4-0.1,8.1,0c2.4,0,3.6,1.2,3.6,3.6c0,5.6,0,11.3,0,16.9c0,2.3-1.2,3.5-3.5,3.6c-2.8,0-5.6,0.1-8.4,0
		c-1.2,0-1.6,0.2-1.6,1.5c0.1,2.7,0,5.4,0,8.1c0,2.8-1.1,3.9-3.8,3.9c-5.5,0-11.1,0-16.6,0c-2.6,0-3.6-1.1-3.7-3.7
		c0-2.8,0-5.7,0-8.5c0-1-0.3-1.2-1.2-1.2c-2.8,0.1-5.7,0-8.5,0c-2.5,0-3.7-1.1-3.7-3.7c0-5.6,0-11.2,0-16.7c0-2.6,1.2-3.7,3.9-3.7
		c2.8,0,5.6-0.1,8.4,0c1.1,0,1.3-0.3,1.3-1.3c-0.1-2.9,0-5.8,0-8.7c0-2.3,1.1-3.4,3.4-3.4C133.3,90,136.2,90,139.1,90z M138.9,134.7
		c1.3,0,2.7-0.1,4,0c1.4,0.1,2-0.3,1.9-1.8c-0.1-2.7-0.1-5.4,0-8.1c0.1-2.5,1.2-3.5,3.7-3.6c2.8,0,5.7,0,8.5,0c1,0,1.3-0.3,1.3-1.3
		c-0.1-3.1-0.1-6.2,0-9.3c0-0.9-0.2-1.2-1.1-1.1c-2.7,0.1-5.5,0-8.2,0c-3.2,0-4.1-1-4.2-4.2c0-2.6,0-5.3,0-7.9c0-1-0.2-1.4-1.3-1.3
		c-3,0.1-6.1,0.1-9.1,0c-0.9,0-1.3,0.2-1.2,1.2c0.1,2.9,0,5.8,0,8.7c0,2.3-1.2,3.5-3.6,3.5c-2.8,0-5.7,0-8.5,0
		c-0.9,0-1.4,0.1-1.4,1.2c0.1,3.1,0.1,6.2,0,9.3c0,1,0.4,1.2,1.3,1.2c2.8,0,5.7,0,8.5,0c2.5,0,3.6,1.1,3.7,3.7c0,2.7,0.1,5.5,0,8.2
		c0,1.1,0.2,1.6,1.4,1.5C136,134.6,137.4,134.7,138.9,134.7z"/>
</g>
</svg>
