<?xml version="1.0" encoding="utf-8"?>
<!-- Generator: Adobe Illustrator 28.1.0, SVG Export Plug-In . SVG Version: 6.00 Build 0)  -->
<svg version="1.1" id="Capa_1" xmlns="http://www.w3.org/2000/svg" xmlns:xlink="http://www.w3.org/1999/xlink" x="0px" y="0px"
	 viewBox="0 0 97.07 92.19" style="enable-background:new 0 0 97.07 92.19;" xml:space="preserve">
<style type="text/css">
	.st0{fill:#FFFFFF;}
</style>
<g>
	<g>
		<g>
			<path class="st0" d="M48.54,30.4c5.11,0,5.72,0.02,7.74,0.11c1.87,0.09,2.88,0.4,3.56,0.66c0.89,0.35,1.53,0.76,2.2,1.43
				c0.67,0.67,1.09,1.31,1.43,2.2c0.26,0.67,0.57,1.69,0.66,3.56c0.09,2.02,0.11,2.63,0.11,7.74s-0.02,5.72-0.11,7.74
				c-0.09,1.87-0.4,2.88-0.66,3.56c-0.35,0.89-0.76,1.53-1.43,2.2c-0.67,0.67-1.31,1.09-2.2,1.43c-0.67,0.26-1.69,0.57-3.56,0.66
				c-2.02,0.09-2.62,0.11-7.74,0.11c-5.11,0-5.72-0.02-7.74-0.11c-1.87-0.09-2.88-0.4-3.56-0.66c-0.89-0.35-1.53-0.76-2.2-1.43
				c-0.67-0.67-1.09-1.31-1.43-2.2c-0.26-0.67-0.57-1.69-0.66-3.56c-0.09-2.02-0.11-2.63-0.11-7.74s0.02-5.72,0.11-7.74
				c0.09-1.87,0.4-2.88,0.66-3.56c0.35-0.89,0.76-1.53,1.43-2.2c0.67-0.67,1.31-1.09,2.2-1.43c0.67-0.26,1.69-0.57,3.56-0.66
				C42.82,30.42,43.43,30.4,48.54,30.4 M48.54,26.95c-5.2,0-5.85,0.02-7.9,0.12c-2.04,0.09-3.43,0.42-4.65,0.89
				c-1.26,0.49-2.33,1.14-3.39,2.21c-1.06,1.06-1.72,2.13-2.21,3.39c-0.47,1.22-0.8,2.61-0.89,4.65c-0.09,2.04-0.12,2.69-0.12,7.9
				c0,5.2,0.02,5.85,0.12,7.9c0.09,2.04,0.42,3.43,0.89,4.65c0.49,1.26,1.14,2.33,2.21,3.39c1.06,1.06,2.13,1.72,3.39,2.21
				c1.22,0.47,2.61,0.8,4.65,0.89c2.04,0.09,2.69,0.12,7.9,0.12c5.2,0,5.85-0.02,7.9-0.12c2.04-0.09,3.43-0.42,4.65-0.89
				c1.26-0.49,2.33-1.14,3.39-2.21c1.06-1.06,1.72-2.13,2.21-3.39c0.47-1.22,0.8-2.61,0.89-4.65c0.09-2.04,0.12-2.69,0.12-7.9
				s-0.02-5.85-0.12-7.9c-0.09-2.04-0.42-3.43-0.89-4.65c-0.49-1.26-1.14-2.33-2.21-3.39c-1.06-1.06-2.13-1.72-3.39-2.21
				c-1.22-0.47-2.61-0.8-4.65-0.89C54.39,26.97,53.74,26.95,48.54,26.95L48.54,26.95z"/>
			<path class="st0" d="M48.54,36.26c-5.43,0-9.83,4.4-9.83,9.83s4.4,9.83,9.83,9.83c5.43,0,9.83-4.4,9.83-9.83
				S53.97,36.26,48.54,36.26z M48.54,52.48c-3.53,0-6.38-2.86-6.38-6.38c0-3.53,2.86-6.38,6.38-6.38c3.53,0,6.38,2.86,6.38,6.38
				C54.93,49.62,52.07,52.48,48.54,52.48z"/>
			<circle class="st0" cx="58.76" cy="35.87" r="2.3"/>
		</g>
	</g>
	<g>
		<path class="st0" d="M46.01,89.29c-1.66-0.22-3.35-0.36-4.99-0.68c-13.67-2.63-23.9-10.08-30.59-22.26
			c-3.77-6.85-5.48-14.28-5-22.07c1-16.21,8.7-28.36,22.86-36.29c6.82-3.82,14.27-5.49,22.06-5.01c16.21,1,28.34,8.7,36.29,22.85
			c2.96,5.26,4.52,10.99,4.94,17.02c0.02,0.24,0.09,0.48,0.14,0.73v5.06c-0.05,0.24-0.13,0.48-0.14,0.73
			c-0.42,6.02-2.02,11.73-4.93,17.01c-6.72,12.17-16.92,19.62-30.59,22.24c-1.65,0.32-3.33,0.46-4.99,0.68H46.01z M48.58,6.83
			C26.96,6.78,9.33,24.38,9.27,46.07C9.22,67.69,26.83,85.33,48.51,85.38c21.61,0.05,39.25-17.56,39.3-39.24
			C87.86,24.52,70.26,6.88,48.58,6.83"/>
	</g>
</g>
</svg>
