<svg width="136" height="136" viewBox="0 0 136 136" fill="none" xmlns="http://www.w3.org/2000/svg">
<path d="M128.714 106.037L112.266 89.5879C110.534 87.8555 107.735 87.8555 106.002 89.5879C104.27 91.3204 104.27 94.1197 106.002 95.8522L114.892 104.743H71.8476C71.6653 104.068 71.4374 103.402 71.1638 102.755C70.3159 100.712 69.0941 98.8795 67.5259 97.3203C65.9668 95.7519 64.1341 94.5301 62.0826 93.6821C57.9979 91.9861 53.3388 91.9861 49.245 93.6821C47.2026 94.5301 45.37 95.7519 43.8109 97.3203C42.2426 98.8886 41.0209 100.712 40.1729 102.755C39.8994 103.402 39.6897 104.068 39.5074 104.743H33.1341C28.3474 104.651 23.8615 102.709 20.5062 99.2898C17.1509 95.8705 15.3 91.3478 15.3 86.5515C15.3 81.7553 17.1509 77.2326 20.5062 73.8132C23.8615 70.3939 28.3474 68.4517 33.0521 68.3605H64.1797C64.9365 71.1416 66.3953 73.6947 68.4832 75.7919C71.6471 78.956 75.8594 80.6976 80.3362 80.6976C84.8129 80.6976 89.0253 78.956 92.1891 75.7828C94.2771 73.6856 95.7359 71.1325 96.4926 68.3514H105.009C111.683 68.3514 117.956 65.7527 122.679 61.0294C127.401 56.3061 130 50.0327 130 43.3581C130 36.6835 127.401 30.4101 122.679 25.6868C117.956 20.9635 111.683 18.3648 105.009 18.3648H63.6053C62.8485 15.5837 61.3897 13.0305 59.3018 10.9333C56.1379 7.76927 51.9256 6.01855 47.4488 6.01855C42.9721 6.01855 38.7597 7.76015 35.5959 10.9333C33.4988 13.0305 32.0491 15.5837 31.2924 18.3648H10.4312C7.98765 18.3648 6 20.3434 6 22.7963C6 25.2491 7.97853 27.2278 10.4312 27.2278H31.2832C32.04 30.0088 33.4988 32.562 35.5868 34.6592C38.7506 37.8232 42.9629 39.574 47.4397 39.574C51.9165 39.574 56.1288 37.8324 59.2926 34.6592C61.3897 32.562 62.8394 30.0088 63.5962 27.2278H105.009C109.321 27.2278 113.369 28.9055 116.415 31.951C119.46 34.9966 121.138 39.0542 121.138 43.3581C121.138 47.6619 119.46 51.7196 116.415 54.7651C113.369 57.8106 109.312 59.4884 105.009 59.4884H96.4926C95.7359 56.7073 94.2771 54.1542 92.1891 52.0569C89.0253 48.8929 84.8129 47.1422 80.3362 47.1422C75.8594 47.1422 71.6471 48.8838 68.4832 52.0569C66.3862 54.1542 64.9365 56.7073 64.1797 59.4884H32.9609C25.84 59.6343 19.1659 62.5065 14.1785 67.5946C9.19118 72.6826 6.44676 79.4028 6.44676 86.5333C6.44676 93.6638 9.19118 100.384 14.1785 105.472C19.1659 110.56 25.8309 113.441 33.0429 113.578H39.4982C39.6806 114.253 39.8903 114.919 40.1638 115.566C41.0118 117.609 42.2335 119.441 43.8018 121.001C45.37 122.569 47.1935 123.791 49.2359 124.639C53.3206 126.335 57.9888 126.335 62.0644 124.639C64.1068 123.791 65.9394 122.569 67.5076 121.001C69.0759 119.441 70.2976 117.609 71.1456 115.557C71.4191 114.909 71.6471 114.244 71.8294 113.569H114.874L105.984 122.459C104.252 124.192 104.252 126.991 105.984 128.724C106.85 129.59 107.981 130.019 109.111 130.019C110.242 130.019 111.382 129.59 112.239 128.724L128.678 112.283C128.678 112.283 128.705 112.256 128.724 112.238C128.724 112.238 128.724 112.238 128.724 112.229C128.724 112.229 128.724 112.22 128.733 112.21C129.097 111.809 129.38 111.362 129.581 110.888C129.799 110.359 129.918 109.785 129.918 109.183C129.918 108.581 129.799 108.007 129.581 107.487C129.371 106.977 129.052 106.493 128.641 106.074L128.714 106.037ZM47.4397 30.6927C45.3244 30.6927 43.3368 29.8721 41.8506 28.3767C40.3553 26.8813 39.5347 24.8935 39.5347 22.7871C39.5347 20.6808 40.3553 18.6839 41.8506 17.1976C43.3459 15.7022 45.3335 14.8816 47.4397 14.8816C49.5459 14.8816 51.5426 15.7022 53.0288 17.1976C54.4968 18.6657 55.3082 20.6079 55.3356 22.6686C55.3356 22.7051 55.3265 22.7507 55.3265 22.7871C55.3265 22.8236 55.3356 22.8692 55.3356 22.9057C55.3082 24.9755 54.4876 26.9177 53.0197 28.3767C51.5244 29.8721 49.5368 30.6927 47.4306 30.6927H47.4397ZM74.7379 58.3121C76.2332 56.8167 78.2209 55.9961 80.3271 55.9961C82.4332 55.9961 84.43 56.8167 85.9162 58.3121C87.4115 59.8075 88.2321 61.7953 88.2321 63.9016C88.2321 66.008 87.4115 68.0049 85.9162 69.4912C84.4209 70.9866 82.4332 71.8072 80.3179 71.8072C78.2026 71.8072 76.215 70.9866 74.7288 69.4912C73.2335 67.9958 72.4129 66.008 72.4129 63.8925C72.4129 61.7771 73.2335 59.7893 74.7288 58.303L74.7379 58.3121ZM62.9579 112.165C62.5568 113.131 61.9824 113.989 61.2438 114.736C60.5053 115.484 59.6391 116.049 58.6726 116.451C56.7488 117.253 54.5515 117.253 52.6185 116.451C51.6521 116.049 50.795 115.475 50.0565 114.736C49.3179 113.998 48.7435 113.141 48.3424 112.174C47.9412 111.207 47.7406 110.186 47.7406 109.147C47.7406 108.107 47.9412 107.086 48.3424 106.119C48.7435 105.153 49.3179 104.296 50.0565 103.557C50.795 102.819 51.6612 102.244 52.6185 101.843C53.585 101.442 54.6062 101.241 55.6456 101.241C56.685 101.241 57.7062 101.442 58.6726 101.843C59.6391 102.244 60.5053 102.819 61.2438 103.557C61.9824 104.296 62.5568 105.162 62.9579 106.119C63.3591 107.086 63.5597 108.098 63.5597 109.147C63.5597 110.195 63.3591 111.207 62.9579 112.174V112.165Z" fill="url(#paint0_linear_2142_338)"/>
<defs>
<linearGradient id="paint0_linear_2142_338" x1="6" y1="6.01855" x2="141.523" y2="115.792" gradientUnits="userSpaceOnUse">
<stop stop-color="#B95EE8"/>
<stop offset="1" stop-color="#0069E0"/>
</linearGradient>
</defs>
</svg>
