<?xml version="1.0" encoding="UTF-8" standalone="no"?>
<!-- Generator: Adobe Illustrator 28.1.0, SVG Export Plug-In . SVG Version: 6.00 Build 0)  -->

<svg
   version="1.1"
   id="Capa_1"
   x="0px"
   y="0px"
   viewBox="0 0 209.21 189.45"
   style="enable-background:new 0 0 209.21 189.45;"
   xml:space="preserve"
   sodipodi:docname="lamp-icon.svg"
   inkscape:version="1.3 (0e150ed, 2023-07-21)"
   xmlns:inkscape="http://www.inkscape.org/namespaces/inkscape"
   xmlns:sodipodi="http://sodipodi.sourceforge.net/DTD/sodipodi-0.dtd"
   xmlns="http://www.w3.org/2000/svg"
   xmlns:svg="http://www.w3.org/2000/svg"><defs
   id="defs7" /><sodipodi:namedview
   id="namedview7"
   pagecolor="#ffffff"
   bordercolor="#000000"
   borderopacity="0.25"
   inkscape:showpageshadow="2"
   inkscape:pageopacity="0.0"
   inkscape:pagecheckerboard="0"
   inkscape:deskcolor="#d1d1d1"
   inkscape:zoom="1.2457113"
   inkscape:cx="104.35805"
   inkscape:cy="94.724998"
   inkscape:window-width="1312"
   inkscape:window-height="449"
   inkscape:window-x="0"
   inkscape:window-y="25"
   inkscape:window-maximized="0"
   inkscape:current-layer="Capa_1" />&#10;<g
   id="g7"
   style="fill:#e5a818;fill-opacity:1">&#10;	<path
   d="M105.51,21.66c2.6,1.07,3.65,3.01,3.47,5.8c-0.13,2.03,0.01,4.08-0.04,6.12c-0.06,2.12-1.77,4.05-3.83,4.33   c-1.66,0.22-3.76-0.57-4.5-2.75c-0.07-0.21-0.2-0.42-0.2-0.63c-0.01-3.18-0.14-6.36,0.04-9.53c0.1-1.75,1.56-2.66,3.07-3.33   C104.18,21.66,104.85,21.66,105.51,21.66z"
   id="path1"
   style="fill:#e5a818;fill-opacity:1" />&#10;	<path
   d="M80.18,137.69c0-2.42-0.05-4.85,0.02-7.27c0.03-0.99-0.41-1.57-1.14-2.06c-5.57-3.74-9.83-8.66-13.25-14.41   c-2.62-4.41-4.43-9.15-5.25-14.13c-0.68-4.1-0.97-8.4-0.58-12.52c0.84-8.7,4.02-16.62,9.54-23.5c5.42-6.76,12.2-11.57,20.4-14.5   c6.19-2.22,12.56-2.7,18.94-2.17c8.62,0.72,16.43,3.88,23.29,9.28c6.07,4.77,10.62,10.7,13.67,17.75   c1.57,3.63,2.64,7.45,3.05,11.42c0.22,2.09,0.63,4.2,0.53,6.28c-0.23,4.9-0.84,9.75-2.51,14.43c-2.69,7.54-7.08,13.9-13.01,19.23   c-1.2,1.08-2.48,2.11-3.86,2.95c-0.77,0.46-0.88,0.96-0.88,1.7c0.02,4.04,0.09,8.08-0.01,12.12c-0.14,5.31-1.25,10.34-4.44,14.79   c-3.38,4.71-7.72,8.08-13.28,9.68c-7.03,2.03-13.85,1.21-19.95-2.83c-6.15-4.07-10.16-9.8-10.97-17.31   c-0.32-2.93-0.05-5.93-0.05-8.89C80.35,137.69,80.26,137.69,80.18,137.69z M100.32,130.61c0-7.22,0-14.45,0-21.67   c-0.08-0.08-0.15-0.17-0.23-0.25c-0.12-0.08-0.22-0.19-0.35-0.23c-5.13-1.67-9.16-7.42-9.11-12.83c0.02-2.27,1.71-4.46,3.68-4.41   c3.17,0.07,4.87,1.48,4.93,4.38c0.05,2.24,1.99,4.66,4.05,5.06c2.64,0.5,5.39-0.96,6.21-3.39c0.3-0.9,0.42-1.87,0.59-2.82   c0.31-1.68,1.31-2.78,2.92-3.17c2.05-0.49,3.75,0.27,4.82,1.74c1.19,1.63,0.77,3.48,0.44,5.07c-1.01,4.88-4,8.31-8.6,10.32   c-0.33,0.14-0.67,0.73-0.67,1.11c-0.03,7.03,0,14.06,0.01,21.09c0.07,0.1,0.15,0.19,0.22,0.29c3.68,0,7.37,0,11.12,0   c0-1.11,0.08-2.16-0.02-3.19c-0.21-2.39,0.88-4.05,2.84-5.19c3.85-2.23,7-5.22,9.78-8.64c4.48-5.5,6.92-11.87,7.58-18.85   c0.37-3.9,0.22-7.87-0.76-11.75c-2.07-8.16-6.31-14.97-12.93-20.12c-4.75-3.7-10.13-6.12-16.2-7.05   c-4.41-0.67-8.76-0.77-13.11,0.07c-7.3,1.4-13.56,4.85-18.77,10.11c-3.29,3.32-5.85,7.19-7.6,11.55c-1.57,3.92-2.61,7.98-2.7,12.22   c-0.04,1.97,0.14,3.94,0.28,5.91c0.27,3.61,1.39,7,2.85,10.29c3.15,7.12,8.16,12.59,14.77,16.63c1.6,0.98,2.45,2.28,2.34,4.2   c-0.07,1.26-0.01,2.53-0.01,3.8c3.92,0,7.66,0,11.41,0C100.17,130.8,100.24,130.7,100.32,130.61z M88.77,139.7   c-0.66,7.52,1.59,13.63,8.22,17.39c6.41,3.63,12.63,2.5,18.09-2.09c4.71-3.96,5.79-9.41,5.16-15.3   C109.73,139.7,99.29,139.7,88.77,139.7z"
   id="path2"
   style="fill:#e5a818;fill-opacity:1" />&#10;	<path
   d="M88.14,40.47c-2.02,0.05-3.18-1.21-3.84-2.86c-1.02-2.54-1.83-5.17-2.75-7.75c-0.57-1.61,0.27-2.76,1.24-3.82   c0.97-1.06,2.19-1.4,3.64-1.1c1.83,0.38,2.9,1.41,3.49,3.17c0.76,2.26,1.62,4.48,2.5,6.69C93.54,37.59,91.22,40.63,88.14,40.47z"
   id="path3"
   style="fill:#e5a818;fill-opacity:1" />&#10;	<path
   d="M120.43,40.49c-3,0.01-4.82-3.26-3.45-6.72c0.77-1.95,1.49-3.92,2.23-5.89c0.95-2.52,3.18-3.62,5.67-2.8   c2.29,0.76,3.44,3.16,2.57,5.62c-0.89,2.5-1.84,4.98-2.92,7.4C123.84,39.65,122.53,40.51,120.43,40.49z"
   id="path4"
   style="fill:#e5a818;fill-opacity:1" />&#10;	<path
   d="M100.32,108.94c-0.08-0.08-0.15-0.17-0.23-0.25C100.17,108.77,100.24,108.86,100.32,108.94z"
   id="path5"
   style="fill:#e5a818;fill-opacity:1" />&#10;	<path
   d="M100.09,130.9c0.07-0.1,0.15-0.19,0.22-0.29C100.24,130.7,100.17,130.8,100.09,130.9z"
   id="path6"
   style="fill:#e5a818;fill-opacity:1" />&#10;	<path
   d="M109,130.61c0.07,0.1,0.15,0.19,0.22,0.29C109.15,130.8,109.07,130.7,109,130.61z"
   id="path7"
   style="fill:#e5a818;fill-opacity:1" />&#10;</g>&#10;</svg>
