<?xml version="1.0" encoding="utf-8"?>
<!-- Generator: Adobe Illustrator 28.1.0, SVG Export Plug-In . SVG Version: 6.00 Build 0)  -->
<svg version="1.1" id="Capa_1" xmlns="http://www.w3.org/2000/svg" xmlns:xlink="http://www.w3.org/1999/xlink" x="0px" y="0px"
	 viewBox="0 0 97.07 92.19" style="enable-background:new 0 0 97.07 92.19;" xml:space="preserve">
<style type="text/css">
	.st0{fill:#FFFFFF;}
</style>
<g>
	<path class="st0" d="M46.01,89.29c-1.66-0.22-3.35-0.36-4.99-0.68c-13.67-2.63-23.9-10.08-30.59-22.26
		c-3.77-6.85-5.48-14.28-5-22.07c1-16.21,8.7-28.36,22.86-36.29c6.82-3.82,14.27-5.49,22.06-5.01c16.21,1,28.34,8.7,36.29,22.85
		c2.96,5.26,4.52,10.99,4.94,17.02c0.02,0.24,0.09,0.48,0.14,0.73v5.06c-0.05,0.24-0.13,0.48-0.14,0.73
		c-0.42,6.02-2.02,11.73-4.93,17.01c-6.72,12.17-16.92,19.62-30.59,22.24c-1.65,0.32-3.33,0.46-4.99,0.68H46.01z M48.58,6.83
		C26.96,6.78,9.33,24.38,9.27,46.07C9.22,67.69,26.83,85.33,48.51,85.38c21.61,0.05,39.25-17.56,39.3-39.24
		C87.86,24.52,70.26,6.88,48.58,6.83"/>
	<path class="st0" d="M51.99,60.04h-7.77V38.52h7.74v2.76c0.92-0.69,1.76-1.61,2.8-2.05c2.9-1.2,6.48-1.17,8.65,1.33
		c1.35,1.57,2.1,3.47,2.16,5.47c0.13,4.63,0.04,9.27,0.04,13.97h-7.73v-0.87c0-3.43,0.01-6.86-0.01-10.29c0-0.7-0.03-1.41-0.14-2.1
		c-0.22-1.38-0.9-2.14-1.97-2.33c-1.22-0.21-2.54,0.31-3.05,1.46c-0.4,0.9-0.67,1.92-0.69,2.9c-0.08,3.43-0.03,6.86-0.03,10.29
		V60.04z"/>
	<rect x="32.42" y="38.53" class="st0" width="7.75" height="21.48"/>
	<path class="st0" d="M40.2,32.62c-0.02,2.17-1.78,3.89-3.95,3.86c-2.17-0.03-3.89-1.78-3.87-3.94c0.02-2.16,1.79-3.89,3.95-3.87
		C38.49,28.69,40.22,30.46,40.2,32.62"/>
</g>
</svg>
