<svg width="136" height="136" viewBox="0 0 136 136" fill="none" xmlns="http://www.w3.org/2000/svg">
<path d="M123.023 49.3562C130.107 42.2729 126.877 33.9995 123.023 29.9762L106.023 12.9762C98.8833 5.89285 90.6667 9.12285 86.6433 12.9762L77.01 22.6662H62.3333C51.5667 22.6662 45.3333 28.3328 42.16 34.8495L17 60.0095V82.6762L12.9767 86.6429C5.89334 93.7829 9.12334 102 12.9767 106.023L29.9767 123.023C33.0367 126.083 36.3233 127.216 39.44 127.216C43.4633 127.216 47.1467 125.233 49.3567 123.023L64.6567 107.666H85C94.6333 107.666 99.5067 101.66 101.263 95.7662C107.667 94.0662 111.18 89.1928 112.597 84.4328C121.38 82.1662 124.667 73.8362 124.667 67.9995V50.9995H121.323L123.023 49.3562ZM113.333 67.9995C113.333 70.5495 112.257 73.6662 107.667 73.6662H102V79.3328C102 81.8829 100.923 84.9995 96.3333 84.9995H90.6667V90.6662C90.6667 93.2162 89.59 96.3328 85 96.3328H60.01L41.4233 114.92C39.6667 116.563 38.6467 115.6 38.0233 114.976L21.08 98.0895C19.4367 96.3328 20.4 95.3128 21.0233 94.6895L28.3333 87.3228V64.6562L39.6667 53.3228V62.3329C39.6667 69.1895 44.2 79.3328 56.6667 79.3328C69.1333 79.3328 73.6667 69.1895 73.6667 62.3329H113.333V67.9995ZM114.977 41.3095L105.343 50.9995H62.3333V62.3329C62.3333 64.8829 61.2567 67.9995 56.6667 67.9995C52.0767 67.9995 51 64.8829 51 62.3329V45.3328C51 42.7262 51.9633 33.9995 62.3333 33.9995H81.6567L94.5767 21.0795C96.3333 19.4362 97.3533 20.3995 97.9767 21.0228L114.92 37.9095C116.563 39.6662 115.6 40.6862 114.977 41.3095Z" fill="url(#paint0_linear_2142_323)"/>
<defs>
<linearGradient id="paint0_linear_2142_323" x1="8.78955" y1="8.78906" x2="127.21" y2="127.216" gradientUnits="userSpaceOnUse">
<stop stop-color="#B95EE8"/>
<stop offset="1" stop-color="#0069E0"/>
</linearGradient>
</defs>
</svg>
