<?xml version="1.0" encoding="utf-8"?>
<!-- Generator: Adobe Illustrator 26.5.0, SVG Export Plug-In . SVG Version: 6.00 Build 0)  -->
<svg version="1.1"
	 id="Capa_1" xmlns:inkscape="http://www.inkscape.org/namespaces/inkscape" xmlns:sodipodi="http://sodipodi.sourceforge.net/DTD/sodipodi-0.dtd" xmlns:svg="http://www.w3.org/2000/svg" inkscape:version="1.3 (0e150ed, 2023-07-21)" sodipodi:docname="seach-icon.svg"
	 xmlns="http://www.w3.org/2000/svg" xmlns:xlink="http://www.w3.org/1999/xlink" x="0px" y="0px" viewBox="0 0 209.2 189.4"
	 style="enable-background:new 0 0 209.2 189.4;" xml:space="preserve">
<style type="text/css">
	.st0{fill:#E5A818;}
</style>
<sodipodi:namedview  bordercolor="#000000" borderopacity="0.25" id="namedview3" inkscape:current-layer="Capa_1" inkscape:cx="104.35805" inkscape:cy="94.724998" inkscape:deskcolor="#d1d1d1" inkscape:pagecheckerboard="0" inkscape:pageopacity="0.0" inkscape:showpageshadow="2" inkscape:window-height="449" inkscape:window-maximized="0" inkscape:window-width="1312" inkscape:window-x="0" inkscape:window-y="25" inkscape:zoom="1.2457113" pagecolor="#ffffff">
	</sodipodi:namedview>
<g>
	<path class="st0" d="M73.1,150.6c0-2.2,0-4.4,0-6.6c0-3.7,2.2-6.2,5.9-6.6c0.6-0.1,1-0.1,1-0.9c0.3-7.2-0.8-14.2-4.4-20.6
		c-1.8-3.1-3.9-5.9-6.4-8.4c-2.9-2.9-5.6-5.9-7.7-9.4c-0.5-0.8-1.1-1.1-2-1.1c-2.2,0.1-4.4,0-6.6,0c-0.7,0-1.1,0.2-1.6,0.7
		c-1.6,1.7-3.3,3.4-5,4.9c-0.8,0.7-0.9,1.2-0.3,2.2c3,5.4,1.2,12-4,15.2c-5.2,3.2-11.9,1.8-15.4-3.2c-2.9-4.1-2.7-9.8,0.5-13.8
		c3.2-3.9,8.7-5.3,13.3-3.3c1,0.4,1.5,0.3,2.2-0.4c2-2.1,4.2-4.2,6.2-6.3c0.7-0.7,1.5-1.1,2.5-1c1.9,0,3.7,0,5.6,0
		c0.8,0,1.2-0.1,0.8-1c-2.4-5.4-3.8-11.1-4.2-17.1c0-0.7-0.4-0.9-1.1-0.9c-2.4-0.2-3.9,0.1-5.1,2.8c-2.1,5-8,7.2-13.1,5.7
		c-5.3-1.6-8.7-6.4-8.3-12c0.4-5.3,4.6-9.7,10-10.4c5.3-0.7,10.4,2.5,12.1,7.5c0.4,1.1,0.9,1.4,1.9,1.3c1-0.1,2.3,0.4,3-0.2
		c0.8-0.6,0.4-1.9,0.5-3c0.6-5,1.8-9.8,3.8-14.4C58,49,58,49,56.5,49c-1.6,0-3.3,0-4.9,0c-1.2,0-2.1-0.4-2.9-1.2
		c-2-2.1-4.1-4.1-6.1-6.2c-0.6-0.6-1.1-0.8-2-0.4c-5.3,2.3-11.2,0.4-14.2-4.4c-3-4.6-2.1-10.9,2-14.6c4.2-3.8,10.4-4,14.8-0.5
		c4.4,3.5,5.7,9.7,2.9,14.6c-0.5,0.9-0.4,1.3,0.3,2c1.7,1.6,3.3,3.3,5,5c0.5,0.5,1.1,0.8,1.8,0.8c2.2,0,4.3-0.1,6.5,0
		c0.9,0,1.3-0.3,1.8-1c6-9.4,14-16.5,24.4-20.6c16.5-6.5,32.3-4.9,47.4,4.4c6.6,4.1,11.9,9.6,16,16.3c0.4,0.6,0.8,0.9,1.5,0.9
		c1.8-0.1,3.6,0,5.5,0c0.8,0,1.3-0.2,1.8-0.8c1.6-1.7,3.3-3.3,5-5c0.7-0.6,0.7-1.1,0.3-2c-2.3-4.2-2.1-8.5,0.7-12.4
		c2.8-3.8,6.7-5.3,11.3-4.5c4.7,0.9,7.8,3.8,9,8.5c1.1,4.5-0.1,8.4-3.6,11.4c-3.5,3-7.5,3.6-11.8,1.9c-1.1-0.4-1.7-0.2-2.4,0.5
		c-1.9,2-4,4-5.9,6c-0.8,0.8-1.7,1.2-2.9,1.2c-1.3,0-2.7,0-4,0c-1,0-1.2,0.2-0.8,1.2c1.9,4.5,3.1,9.2,3.7,14c0,0.2,0,0.4,0.1,0.6
		c0.2,1-0.3,2.7,0.6,3c1.4,0.5,3,0.2,4.5,0.1c0.6,0,0.5-0.7,0.7-1.1c1.6-4.2,4.6-6.9,9.1-7.6c4.3-0.7,8,0.8,10.7,4.2
		c3,3.8,3.4,8.1,1.1,12.4c-2.3,4.3-6.1,6.4-10.9,6.1c-4.9-0.3-8.2-3-9.9-7.5c-0.4-1-0.8-1.4-1.9-1.3c-0.9,0.1-1.9,0-2.9,0
		c-0.7,0-0.9,0.2-1,0.9c-0.4,6-1.8,11.7-4.2,17.2c-0.3,0.7-0.1,0.9,0.6,0.9c1.6,0,3.1,0,4.7,0c1.1,0,1.9,0.3,2.7,1.1
		c2,2.1,4.1,4.1,6.1,6.2c0.7,0.7,1.2,0.9,2.2,0.5c5.5-2.3,11.6-0.1,14.4,5c2.8,5.1,1.4,11.4-3.3,14.8c-4.7,3.4-11.2,2.7-15.2-1.6
		c-3.3-3.5-3.9-8.8-1.5-13.3c0.5-0.9,0.4-1.3-0.3-2c-1.7-1.6-3.3-3.3-5-5c-0.5-0.5-1-0.8-1.8-0.8c-2,0.1-4,0-6,0
		c-0.5,0-0.8,0-1.1,0.5c-2.6,4.3-6.1,7.8-9.5,11.5c-6.3,7-9.6,15.2-9.4,24.6c0,0.3,0,0.5,0,0.8c0,0.9-0.2,1.8,0.1,2.6
		c0.4,0.9,1.5,0.4,2.3,0.7c2.6,0.8,4.5,3.1,4.5,5.9c0.1,4.8,0.1,9.5,0,14.3c0,3.4-2.7,6-6,6.1c-1.4,0.1-2.8,0.1-4.2,0
		c-1,0-1.5,0.2-1.9,1.2c-1.2,3-2.6,5.9-3.8,8.8c-1.3,3.2-3.6,4.7-7.1,4.7c-6.6,0-13.2,0-19.7,0c-3.3,0-5.6-1.5-6.9-4.5
		c-1.3-3.1-2.7-6.1-4-9.2c-0.3-0.7-0.7-1-1.4-1c-0.9,0.1-1.7,0-2.6,0c-3.7-0.1-6.3-2.7-6.3-6.4C73.1,155.2,73.1,152.9,73.1,150.6z
		 M105,137.3c6.2,0,12.4,0,18.6,0c1.2,0,1.6-0.3,1.5-1.5c-0.1-3.9,0-7.9,0.9-11.8c1.9-8.3,6.3-15.2,12.2-21.2
		c13.9-14,17.4-34.7,9-52.6c-11.3-24.2-41.1-34-64.3-20.9C68,37.7,59.6,50.7,58.6,67.8C57.7,82,62.9,94.1,73,104
		c4.5,4.5,7.9,9.7,10,15.8c1.7,5,2.2,10.2,2.1,15.5c0,2.3-0.3,2,2,2C93,137.4,99,137.3,105,137.3z M105.2,142.4
		c-8.3,0-16.6,0-24.9,0c-1.8,0-2.1,0.3-2.1,2.1c0,4.1,0,8.2,0,12.3c0,1.7,0.3,2,2.1,2c16.6,0,33.2,0,49.9,0c1.6,0,2-0.4,2-2
		c0-4.1,0-8.2,0-12.3c0-1.8-0.3-2.1-2.1-2.1C121.7,142.4,113.4,142.4,105.2,142.4z M104.3,163.8c-4.8,0-9.7,0-14.5,0
		c-1.1,0-1.1,0.3-0.7,1.2c1.1,2.3,2.1,4.7,3.1,7c0.4,1,1.1,1.5,2.2,1.5c6.7,0,13.3,0,20,0c1,0,1.7-0.4,2.1-1.4c1-2.3,2-4.6,3-6.9
		c0.6-1.3,0.6-1.3-0.8-1.3C113.8,163.8,109.1,163.8,104.3,163.8z M29.6,30.7c0,3.5,2.9,6.4,6.4,6.4c3.5,0,6.5-2.9,6.5-6.4
		c0-3.5-2.9-6.4-6.4-6.5C32.5,24.2,29.6,27.2,29.6,30.7z M179.5,30.7c0-3.5-3-6.5-6.5-6.4c-3.5,0-6.3,2.9-6.4,6.4
		c0,3.5,2.9,6.5,6.4,6.5C176.6,37.1,179.5,34.2,179.5,30.7z M37.4,64c-3.5,0-6.4,2.9-6.4,6.4c0,3.5,2.9,6.5,6.4,6.5
		c3.5,0,6.5-2.9,6.5-6.4C43.9,66.9,41,64,37.4,64z M166.6,70.4c0,3.5,2.9,6.5,6.4,6.4c3.5,0,6.4-2.9,6.4-6.5c0-3.5-2.9-6.4-6.5-6.4
		C169.5,64.1,166.6,67,166.6,70.4z M42.5,110.3c0-3.5-2.9-6.5-6.4-6.4c-3.5,0-6.3,2.9-6.4,6.4c0,3.5,2.8,6.5,6.4,6.5
		C39.5,116.7,42.5,113.8,42.5,110.3z M179.5,110.2c0-3.5-3-6.4-6.5-6.4c-3.5,0-6.4,3-6.3,6.5c0.1,3.5,3,6.3,6.4,6.3
		C176.6,116.7,179.5,113.7,179.5,110.2z"/>
	<path class="st0" d="M112.7,39c0,3.4,0,3.4,3.4,3.5c2.4,0,2.4,0,2.4-2.5c0-1.1,0-2.3,0-3.4c0-1.6,1.1-2.7,2.5-2.8
		c1.4,0,2.5,1.1,2.5,2.7c0,1.6,0,3.2,0,4.8c0,0.7,0.2,1,1,1.1c5.4,0.5,8.7,3.8,9.1,9.2c0.1,0.7,0.3,0.9,0.9,0.9c1.6,0,3.2,0,4.8,0
		c1.8,0,2.9,1,2.9,2.5c0,1.5-1.1,2.5-2.8,2.5c-1.6,0-3.1,0-4.7,0c-0.7,0-1.1,0.1-1.1,1c0.1,1.3,0,2.6,0,3.9c0,0.8,0.3,1,1,1
		c1.6,0,3.2,0,4.8,0c1.7,0,2.8,1.1,2.8,2.6c0,1.4-1.1,2.4-2.8,2.4c-1.6,0-3.1,0-4.7,0c-0.8,0-1.2,0.2-1.2,1.1c0.1,1.3,0.1,2.5,0,3.8
		c0,0.8,0.2,1.1,1,1.1c1.5,0,3,0,4.5,0c1.9,0,3,0.9,3,2.5c0,1.6-1.1,2.5-3.1,2.5c-1.5,0-3,0-4.5,0c-0.7,0-1,0.2-1,1c0,1.3,0,2.7,0,4
		c0,0.7,0.3,0.9,0.9,0.9c1.6,0,3.2,0,4.8,0c1.8,0,2.9,1,2.9,2.5c0,1.5-1.1,2.5-2.9,2.5c-1.6,0-3.1,0-4.7,0c-0.7,0-1,0.1-1.1,1
		c-0.3,5.1-3.8,8.7-8.9,9.1c-0.9,0.1-1.2,0.3-1.2,1.2c0.1,1.6,0,3.1,0,4.7c0,1.6-1,2.7-2.5,2.7c-1.4,0-2.5-1.1-2.5-2.7
		c0-1.6,0-3.3,0-4.9c0-0.7-0.2-0.9-0.9-0.9c-1.3,0-2.7,0-4,0c-0.7,0-1,0.3-1,1c0,1.6,0,3.1,0,4.7c0,1.7-1,2.9-2.5,2.9
		c-1.5,0-2.5-1.1-2.6-3c0-1.5,0-3,0-4.5c0-0.7-0.2-1.1-1-1.1c-1.3,0.1-2.6,0-3.9,0c-0.7,0-1,0.3-1,1c0,1.6,0,3.1,0,4.7
		c0,1.8-1,2.9-2.4,2.9c-1.5,0-2.6-1.1-2.6-2.9c0-1.6,0-3.1,0-4.7c0-0.7-0.3-1-1-1c-1.3,0-2.6,0-3.9,0c-0.8,0-1,0.3-0.9,1
		c0,1.6,0,3.1,0,4.7c0,1.8-1,2.9-2.5,2.9c-1.5,0-2.5-1.1-2.6-2.8c0-1.6,0-3.1,0-4.7c0-0.7-0.2-1-1-1.1c-5.3-0.5-8.6-3.8-9.1-9.1
		c-0.1-0.8-0.3-1-1.1-1c-1.6,0.1-3.2,0-4.8,0c-1.6,0-2.8-1.1-2.7-2.5c0-1.5,1.1-2.5,2.7-2.5c1.6,0,3.2,0,4.8,0c0.8,0,1.1-0.3,1.1-1
		c0-1.3-0.1-2.5,0-3.8c0-0.9-0.3-1.1-1.2-1.1c-1.6,0-3.1,0-4.7,0c-1.7,0-2.8-1-2.8-2.5c0-1.5,1.1-2.5,2.8-2.5c1.6,0,3.2,0,4.8,0
		c0.7,0,1-0.3,1-1c0-1.3,0-2.6,0-3.9c0-0.8-0.4-1-1.1-1c-1.6,0-3.1,0-4.7,0c-1.7,0-2.9-1-2.8-2.5c0-1.4,1.1-2.4,2.8-2.5
		c1.6,0,3.2,0,4.8,0c0.8,0,1.1-0.3,1-1.1c0-1.3,0-2.5,0-3.8c0-0.8-0.3-1-1.1-1c-1.6,0-3.2,0-4.8,0c-1.7,0-2.7-1-2.7-2.5
		c0-1.4,1.1-2.5,2.7-2.5c1.6,0,3.3,0,4.9,0c0.7,0,0.9-0.2,0.9-0.9c0.6-5.7,3.5-8.6,9.2-9.2c0.7-0.1,0.9-0.3,0.9-1c0-1.6,0-3.2,0-4.8
		c0-1.7,1.1-2.9,2.5-2.9c1.5,0,2.5,1.1,2.5,2.9c0,1.6,0,3.2,0,4.8c0,0.7,0.2,0.9,0.9,0.9c1.3,0,2.6,0,3.9,0c0.8,0,1.1-0.2,1-1
		c-0.1-1.6,0-3.1,0-4.7c0-1.7,1.1-2.9,2.5-2.9c1.5,0,2.5,1.1,2.5,2.9c0,1.6,0,3.1,0,4.7c0,0.7,0.2,1.1,1,1.1c1.3-0.1,2.6,0,3.9,0
		c0.8,0,1-0.3,0.9-1c0-1.6,0-3.2,0-4.8c0-1.7,1.1-2.8,2.6-2.8c1.4,0,2.4,1.2,2.4,2.8C112.7,37.4,112.7,38.2,112.7,39z M80.9,71.3
		c0,6.2,0,12.4,0,18.6c0,3.8,1.6,5.4,5.3,5.4c12.4,0,24.8,0,37.2,0c3.6,0,5.3-1.7,5.3-5.2c0-12.4,0-24.9,0-37.3
		c0-3.6-1.7-5.2-5.3-5.2c-12.5,0-25,0-37.5,0c-3.2,0-5,1.7-5,5C80.9,58.7,80.9,65,80.9,71.3z"/>
	<path class="st0" d="M104.7,86.7c-4.1,0-8.2,0-12.3,0c-2.1,0-3-0.9-3-2.9c0-8.3,0-16.5,0-24.8c0-1.9,0.9-2.9,2.9-2.9
		c5,0,10,0,14.9,0c1.1,0,1.9,0.4,2.7,1.1c3,3.1,6.1,6.1,9.2,9.2c0.7,0.7,1,1.5,1,2.4c0,5,0,10,0,14.9c0,1.9-1,2.9-2.9,2.9
		C113.1,86.7,108.9,86.7,104.7,86.7z M104.7,81.6c3.1,0,6.1,0,9.2,0c0.9,0,1.2-0.3,1.2-1.2c0-3.3,0-6.7,0-10c0-0.8-0.2-1.3-0.8-1.8
		c-2.3-2.2-4.5-4.5-6.8-6.8c-0.5-0.5-1-0.8-1.8-0.8c-3.3,0-6.7,0-10,0c-0.9,0-1.3,0.2-1.3,1.2c0,6.1,0,12.1,0,18.2
		c0,1,0.4,1.2,1.3,1.2C98.7,81.6,101.7,81.6,104.7,81.6z"/>
</g>
</svg>
