<svg id="Capa_1" data-name="Capa 1" xmlns="http://www.w3.org/2000/svg" viewBox="0 0 32 32"><defs><style>.cls-1{fill:#fff;}</style></defs><rect x="0.08" y="0.04" width="31.92" height="31.92" rx="5.74"/><path class="cls-1" d="M25.38,24.73l-.15-.38s-1-2-1-2l-.05-.08a1.12,1.12,0,0,1-.09-.17l-.36-.73a.36.36,0,0,1,0-.09l0-.08-.08-.14-.06-.12-2.16-4.38c-.13-.23-.26-.51-.4-.8s-.29-.63-.45-.91L19.1,11.94a.73.73,0,0,0-.05-.12.77.77,0,0,0-.07-.16L17.39,8.45a2.26,2.26,0,0,1-.11-.22,2.68,2.68,0,0,0-.16-.34l-.46-.95a.65.65,0,0,0-.6-.38h0a.65.65,0,0,0-.6.41,1.85,1.85,0,0,1-.11.24l-1.95,3.94a1.54,1.54,0,0,1-.12.23,1.18,1.18,0,0,1-.08.16,7.59,7.59,0,0,0-.39.88,1.51,1.51,0,0,0,.23.64q.08.13.15.3l.38.75a2,2,0,0,0,.11.21l.07.15,2.09,4.25,0,.07a2.73,2.73,0,0,1,.13.29l.12.24a.59.59,0,0,1,.08.16l.13.26.26.5a.81.81,0,0,0,.06.13,1.66,1.66,0,0,0,.11.24l1.95,4a.65.65,0,0,0,.6.37h5.88s.11,0,.16,0A.2.2,0,0,0,25.38,24.73Z"/><path class="cls-1" d="M10.83,19a4,4,0,0,0-1.89,0c-.11,0-.38.13-.52.19a4.42,4.42,0,0,0-.94.7l0,0-.23.29a2.6,2.6,0,0,0-.28.45,2.69,2.69,0,0,0-.32,1.21V22a3.18,3.18,0,0,0,1,2.47,3.14,3.14,0,0,0,2.25.93,3.55,3.55,0,0,0,.46,0,3.28,3.28,0,0,0,2.42-1.61,1.74,1.74,0,0,0,.1-.19l0-.08a3.32,3.32,0,0,0-.62-3.67A3.25,3.25,0,0,0,10.83,19Z"/></svg>