<svg width="56" height="56" viewBox="0 0 56 56" fill="none" xmlns="http://www.w3.org/2000/svg">
<path d="M35 44.3333C37.8 35.7513 40.894 32.6549 49 30.3333C40.894 28.0116 37.8 24.9153 35 16.3333C32.2 24.9153 29.106 28.0116 21 30.3333C29.106 32.6549 32.2 35.7513 35 44.3333ZM16.3333 23.3333C17.7333 19.0399 19.2803 17.4929 23.3333 16.3333C19.2803 15.1736 17.7333 13.6266 16.3333 9.33325C14.9333 13.6266 13.3863 15.1736 9.33334 16.3333C13.3863 17.4929 14.9333 19.0399 16.3333 23.3333ZM19.8333 46.6666C20.5333 44.5199 21.3057 43.7476 23.3333 43.1666C21.3057 42.5856 20.5333 41.8133 19.8333 39.6666C19.1333 41.8133 18.361 42.5856 16.3333 43.1666C18.361 43.7476 19.1333 44.5199 19.8333 46.6666Z" stroke="#4533A4" stroke-width="4.66667" stroke-linejoin="round"/>
</svg>
