<svg width="56" height="56" viewBox="0 0 56 56" fill="none" xmlns="http://www.w3.org/2000/svg">
<path d="M25.565 23.2319V18.6027C25.565 17.58 26.394 16.751 27.4167 16.751C28.4393 16.751 29.2684 17.58 29.2684 18.6027V23.2319H33.8976C34.9203 23.2319 35.7493 24.0609 35.7493 25.0836C35.7493 26.1063 34.9203 26.9353 33.8976 26.9353H29.2684V31.5645C29.2684 32.5872 28.4393 33.4162 27.4167 33.4162C26.394 33.4162 25.565 32.5872 25.565 31.5645V26.9353H20.9357C19.9131 26.9353 19.084 26.1063 19.084 25.0836C19.084 24.0609 19.9131 23.2319 20.9357 23.2319H25.565Z" fill="#4533A4"/>
<path fill-rule="evenodd" clip-rule="evenodd" d="M7.07058 37.2357C7.02362 37.0432 6.99998 36.8458 7.00017 36.6476V13.1754C7.00017 12.5201 7.26048 11.8916 7.72384 11.4283C8.18719 10.9649 8.81564 10.7046 9.47093 10.7046H46.5324C47.1877 10.7046 47.8162 10.9649 48.2795 11.4283C48.7429 11.8916 49.0032 12.5201 49.0032 13.1754V36.6476C49.0032 36.9491 48.9488 37.2369 48.8512 37.5038L52.6945 43.3842C52.8163 43.5705 52.8854 43.7864 52.8947 44.0088C52.9039 44.2312 52.8528 44.452 52.7469 44.6478C52.6409 44.8436 52.4841 45.0071 52.2928 45.1211C52.1016 45.2351 51.8831 45.2953 51.6605 45.2953H4.28232C4.06207 45.2953 3.84584 45.2363 3.65603 45.1246C3.46621 45.0129 3.30971 44.8525 3.20274 44.6599C3.09577 44.4674 3.04221 44.2498 3.04761 44.0296C3.05302 43.8094 3.11719 43.5947 3.23348 43.4076L7.07058 37.2357ZM10.4709 14.1754H45.5324V35.6476H10.4709V14.1754Z" fill="#4533A4"/>
</svg>
