<svg width="56" height="56" viewBox="0 0 56 56" fill="none" xmlns="http://www.w3.org/2000/svg">
<path d="M14 51.3333C12.7166 51.3333 11.6184 50.8767 10.7053 49.9636C9.7922 49.0505 9.33487 47.9515 9.33331 46.6666V23.3333C9.33331 22.0499 9.79065 20.9517 10.7053 20.0386C11.62 19.1255 12.7182 18.6681 14 18.6666H16.3333V13.9999C16.3333 10.7721 17.4712 8.02114 19.747 5.74692C22.0228 3.4727 24.7738 2.33481 28 2.33325C31.2262 2.3317 33.978 3.46959 36.2553 5.74692C38.5326 8.02425 39.6698 10.7753 39.6666 13.9999V18.6666H42C43.2833 18.6666 44.3823 19.1239 45.297 20.0386C46.2116 20.9533 46.6682 22.0515 46.6666 23.3333V46.6666C46.6666 47.9499 46.2101 49.0489 45.297 49.9636C44.3839 50.8783 43.2849 51.3348 42 51.3333H14ZM14 46.6666H42V23.3333H14V46.6666ZM28 39.6666C29.2833 39.6666 30.3823 39.21 31.297 38.2969C32.2116 37.3838 32.6682 36.2848 32.6666 34.9999C32.6651 33.715 32.2085 32.6168 31.297 31.7053C30.3854 30.7937 29.2864 30.3364 28 30.3333C26.7135 30.3301 25.6153 30.7875 24.7053 31.7053C23.7953 32.623 23.338 33.7213 23.3333 34.9999C23.3286 36.2786 23.786 37.3776 24.7053 38.2969C25.6246 39.2163 26.7229 39.6728 28 39.6666ZM21 18.6666H35V13.9999C35 12.0555 34.3194 10.4027 32.9583 9.04159C31.5972 7.68048 29.9444 6.99992 28 6.99992C26.0555 6.99992 24.4028 7.68048 23.0416 9.04159C21.6805 10.4027 21 12.0555 21 13.9999V18.6666Z" fill="#4533A4"/>
</svg>
