<?xml version="1.0" encoding="utf-8"?>
<!-- Generator: Adobe Illustrator 28.1.0, SVG Export Plug-In . SVG Version: 6.00 Build 0)  -->
<svg version="1.1" id="Capa_1" xmlns="http://www.w3.org/2000/svg" xmlns:xlink="http://www.w3.org/1999/xlink" x="0px" y="0px"
	 viewBox="0 0 1124.49 323.8" style="enable-background:new 0 0 1124.49 323.8;" xml:space="preserve">
<style type="text/css">
	.st0{fill:#FFFFFF;}
	.st1{fill-rule:evenodd;clip-rule:evenodd;fill:#FFFFFF;}
	.st2{fill:#050505;}
</style>
<g>
	<g>
		<path class="st0" d="M239.32,227.8c-0.5-1.23-1.08-2.76-1.14-2.85c-0.05-0.08-7.24-14.86-7.24-14.86l-0.33-0.59
			c-0.22-0.37-0.3-0.52-0.65-1.32l-2.71-5.41c-0.13-0.25-0.21-0.46-0.3-0.66c-0.08-0.2-0.16-0.39-0.26-0.6
			c-0.2-0.43-0.4-0.77-0.58-1.09c-0.15-0.26-0.3-0.52-0.45-0.84l-16.11-32.65c-0.96-1.72-1.92-3.8-2.95-6
			c-1.08-2.32-2.2-4.72-3.35-6.8l-10.72-21.68c-0.16-0.34-0.27-0.63-0.37-0.9c-0.16-0.41-0.3-0.78-0.53-1.21l-11.91-23.87
			c-0.29-0.58-0.53-1.14-0.77-1.69c-0.37-0.87-0.76-1.76-1.24-2.54l-3.4-7.08c-0.83-1.74-2.53-2.8-4.45-2.8c-0.04,0-0.09,0-0.14,0
			c-1.97,0.05-3.67,1.21-4.43,3.03c-0.3,0.72-0.56,1.34-0.8,1.79l-14.56,29.39c-0.36,0.81-0.59,1.23-0.87,1.74
			c-0.17,0.31-0.36,0.66-0.6,1.13c-0.03,0.06-2.95,5.83-2.95,6.57c0,1.5,0.84,3.09,1.73,4.78c0.37,0.7,0.76,1.44,1.13,2.24l2.82,5.6
			c0.26,0.58,0.54,1.11,0.81,1.62c0.2,0.37,0.39,0.73,0.57,1.11l15.56,31.65l0.26,0.5c0.35,0.68,0.66,1.29,1.02,2.16
			c0.38,0.93,0.63,1.36,0.88,1.8c0.18,0.31,0.36,0.62,0.61,1.18c0.49,1.08,0.66,1.38,0.96,1.92l1.88,3.74
			c0.19,0.4,0.33,0.72,0.46,1.02c0.25,0.57,0.46,1.05,0.85,1.76l14.54,29.54c0.84,1.7,2.54,2.76,4.43,2.76h43.83
			c0,0,0.87,0.1,1.25-0.34C239.54,228.59,239.32,227.8,239.32,227.8z"/>
		<path class="st0" d="M130.85,185.1c-3.27-1.16-10.62-1.21-14.05-0.11c-0.86,0.28-2.87,1-3.88,1.47c-2.28,1.08-5.4,3.52-7,5.18
			c-0.1,0.11-0.19,0.21-0.28,0.32l-1.76,2.15c-0.74,1.03-1.58,2.19-2.11,3.36c-1.12,2.44-2.32,5.34-2.32,8.98l0,1.28
			c-0.01,4.87-0.02,6.7,2.32,11.76c1.03,2.23,2.6,4.36,4.93,6.7c4.45,4.48,10.43,6.91,16.79,6.91c1.14,0,2.29-0.08,3.44-0.24
			c7.67-1.05,14.42-5.54,18.05-12.02c0.25-0.45,0.49-0.94,0.71-1.4l0.3-0.6c4.33-8.5,2.4-19.99-4.58-27.32
			C138.22,188.17,134.88,186.53,130.85,185.1z"/>
	</g>
	<g>
		<path class="st0" d="M544.95,102.8c3.96,0,7.18,3.21,7.18,7.18c0,3.96-3.21,7.18-7.18,7.18c-3.96,0-7.18-3.21-7.18-7.18
			C537.78,106.01,540.99,102.8,544.95,102.8"/>
		<path class="st0" d="M366.6,134.19l-2.35-7.05H352.5v98.73h14.11l-0.22-36.43c5.58,4.48,9.33,8.76,22.42,8.69
			c16.93-0.09,33.05-13.74,33.05-33.38c0-23.82-12.33-39.21-35.71-38.79C377.3,125.97,371.82,130.7,366.6,134.19 M386.58,138.89
			c26.74,0,27.59,44.88,0.95,46.73C360.8,187.48,359.48,138.89,386.58,138.89"/>
		<path class="st0" d="M300.51,198.31c12.59,0,16.82-5.47,21.91-8.88c0.09,3.58,0.54,4.28,1.18,7.05h12.93v-69.35H323.6l-1.35,8.18
			c-7.21-7.44-12.9-9.67-23.56-9.36c-16.26,0-32.6,17.45-32.36,36.83C266.56,181.06,281.92,198.31,300.51,198.31 M281.28,161.22
			c0-10.9,6.3-23.08,20.54-23.18c11.37,0,20.08,11.35,20.11,23.26c0.02,12.24-7.51,24.51-21.62,24.33
			C289.23,184.88,281.28,173.92,281.28,161.22"/>
		<path class="st0" d="M596.31,198.84c12.34,0,23.2-7.8,28.21-15.28l-9.4-8.23c-4.71,3.16-10.08,13.94-24.18,8.95
			c-9.9-3.5-14.6-12.78-14.61-22.04c-0.03-11.69,7.39-23.35,21.17-23.35c8.93,0,12.17,3.57,16.45,8.22l9.4-7.05
			c-1.81-5.97-14.27-14.11-26.29-14.11c-21.07,0-35.77,17.26-35.72,36.75C561.38,182.13,577.3,198.84,596.31,198.84"/>
		<rect x="510.25" y="90.7" class="st0" width="14.11" height="105.79"/>
		<path class="st0" d="M898.2,134.22l-2.38-7.08h-11.16v69.35h14.12v-41.15c0-14.53,16.15-19.04,25.84-15.25l3.61-13.38
			C913.93,122.44,905.48,127.18,898.2,134.22"/>
		<path class="st0" d="M445.02,134.19l-2.35-7.05h-11.76v98.73h14.11l-0.22-36.43c5.58,4.48,9.33,8.76,22.42,8.69
			c16.93-0.09,33.05-13.74,33.05-33.38c0-23.82-12.33-39.21-35.71-38.79C455.71,125.97,450.23,130.7,445.02,134.19 M464.99,138.89
			c26.74,0,27.59,44.88,0.95,46.73C439.21,187.48,437.89,138.89,464.99,138.89"/>
		<rect x="537.83" y="127.12" class="st0" width="14.11" height="69.37"/>
		<path class="st0" d="M665.06,198.31c12.59,0,16.82-5.47,21.91-8.88c0.09,3.58,0.54,4.28,1.18,7.05h12.93v-69.35h-12.93l-1.35,8.18
			c-7.21-7.44-12.9-9.67-23.56-9.36c-16.26,0-32.6,17.45-32.36,36.83C631.11,181.06,646.47,198.31,665.06,198.31 M645.83,161.22
			c0-10.9,6.29-23.08,20.54-23.18c11.37,0,20.08,11.35,20.11,23.26c0.02,12.24-7.51,24.51-21.62,24.33
			C653.78,184.88,645.83,173.92,645.83,161.22"/>
		<path class="st0" d="M771.14,198.84c12.34,0,23.2-7.8,28.21-15.28l-9.4-8.23c-4.71,3.16-10.08,13.94-24.18,8.95
			c-9.9-3.5-14.6-12.78-14.61-22.04c-0.03-11.69,7.39-23.35,21.17-23.35c8.93,0,12.17,3.57,16.45,8.22l9.4-7.05
			c-1.81-5.97-14.27-14.11-26.29-14.11c-21.07,0-35.77,17.26-35.72,36.75C736.21,182.13,752.13,198.84,771.14,198.84"/>
		<path class="st0" d="M948.55,134.19l-2.35-7.05h-11.76v98.73h14.11l-0.22-36.43c5.58,4.48,9.33,8.76,22.42,8.69
			c16.93-0.09,33.05-13.74,33.05-33.38c0-23.82-12.33-39.21-35.71-38.79C959.25,125.97,953.76,130.7,948.55,134.19 M968.53,138.89
			c26.74,0,27.59,44.88,0.95,46.73C942.74,187.48,941.43,138.89,968.53,138.89"/>
		<path class="st0" d="M1023.39,179.85c4.83,0,8.74,3.92,8.74,8.74c0,4.84-3.92,8.75-8.74,8.75c-4.83,0-8.74-3.92-8.74-8.75
			C1014.65,183.77,1018.57,179.85,1023.39,179.85"/>
		<path class="st1" d="M842.01,139.01c11.19,0,20.25,10.47,20.25,23.39c0,12.92-9.06,23.39-20.25,23.39
			c-11.19,0-20.26-10.47-20.26-23.39C821.75,149.48,830.82,139.01,842.01,139.01 M842.01,126.33c19.19,0,34.76,16.15,34.76,36.07
			s-15.56,36.07-34.76,36.07s-34.76-16.15-34.76-36.07S822.81,126.33,842.01,126.33"/>
	</g>
</g>
</svg>
