<?xml version="1.0" encoding="utf-8"?>
<!-- Generator: Adobe Illustrator 28.1.0, SVG Export Plug-In . SVG Version: 6.00 Build 0)  -->
<svg version="1.1" id="Capa_1" xmlns="http://www.w3.org/2000/svg" xmlns:xlink="http://www.w3.org/1999/xlink" x="0px" y="0px"
	 viewBox="0 0 620.8 545.68" style="enable-background:new 0 0 620.8 545.68;" xml:space="preserve">
<style type="text/css">
	.st0{fill:#FFFFFF;}
	.st1{fill-rule:evenodd;clip-rule:evenodd;fill:#FFFFFF;}
	.st2{fill:#050505;}
</style>
<g>
	<g>
		<path class="st0" d="M426.54,303.02c-0.88-2.16-1.89-4.83-2-4.99c-0.09-0.13-12.67-26.02-12.67-26.02l-0.58-1.04
			c-0.38-0.66-0.52-0.91-1.13-2.31l-4.74-9.47c-0.22-0.44-0.37-0.8-0.52-1.15c-0.15-0.34-0.28-0.68-0.46-1.05
			c-0.36-0.76-0.69-1.35-1.02-1.92c-0.26-0.46-0.52-0.9-0.79-1.47l-28.21-57.18c-1.67-3.02-3.37-6.66-5.16-10.51
			c-1.9-4.07-3.86-8.27-5.87-11.92l-18.77-37.98c-0.28-0.6-0.47-1.11-0.65-1.57c-0.28-0.71-0.53-1.37-0.92-2.11l-20.85-41.81
			c-0.51-1.01-0.93-1.99-1.35-2.96c-0.66-1.52-1.33-3.08-2.17-4.45l-5.95-12.4c-1.46-3.04-4.43-4.9-7.79-4.9c-0.08,0-0.16,0-0.24,0
			c-3.45,0.09-6.43,2.13-7.75,5.31c-0.52,1.26-0.98,2.35-1.4,3.14l-25.5,51.47c-0.63,1.43-1.04,2.16-1.52,3.04
			c-0.3,0.55-0.63,1.15-1.05,1.98c-0.05,0.1-5.17,10.22-5.17,11.5c0,2.63,1.47,5.42,3.04,8.37c0.65,1.23,1.33,2.52,1.97,3.92
			l4.94,9.8c0.46,1.02,0.94,1.94,1.41,2.83c0.34,0.65,0.68,1.28,1,1.95l27.25,55.44l0.45,0.88c0.61,1.19,1.16,2.26,1.79,3.78
			c0.67,1.62,1.1,2.38,1.55,3.16c0.31,0.54,0.63,1.09,1.07,2.07c0.85,1.89,1.15,2.42,1.69,3.36l3.3,6.56
			c0.33,0.7,0.58,1.26,0.8,1.78c0.44,1,0.81,1.84,1.49,3.08l25.46,51.73c1.47,2.98,4.44,4.83,7.76,4.83h76.77
			c0,0,1.52,0.18,2.19-0.59C426.93,304.41,426.54,303.02,426.54,303.02z"/>
		<path class="st0" d="M236.56,228.23c-5.73-2.03-18.6-2.13-24.6-0.19c-1.5,0.49-5.03,1.75-6.8,2.58
			c-3.99,1.88-9.46,6.17-12.25,9.07c-0.17,0.19-0.33,0.36-0.49,0.56l-3.09,3.77c-1.29,1.8-2.76,3.84-3.7,5.89
			c-1.96,4.27-4.06,9.36-4.06,15.72l0,2.24c-0.02,8.54-0.04,11.73,4.07,20.59c1.81,3.9,4.55,7.63,8.64,11.73
			c7.8,7.84,18.27,12.1,29.4,12.1c1.99,0,4.01-0.13,6.03-0.41c13.44-1.84,25.26-9.7,31.61-21.04c0.45-0.79,0.86-1.64,1.25-2.45
			l0.52-1.05c7.58-14.89,4.21-35.02-8.02-47.85C249.48,233.61,243.63,230.74,236.56,228.23z"/>
	</g>
	<g>
		<path class="st0" d="M239.64,346.52c2.57,0,4.66,2.09,4.66,4.66c0,2.57-2.09,4.66-4.66,4.66c-2.57,0-4.66-2.09-4.66-4.66
			C234.98,348.61,237.07,346.52,239.64,346.52"/>
		<path class="st0" d="M123.78,366.91l-1.53-4.58h-7.64v64.14h9.16l-0.14-23.66c3.62,2.91,6.06,5.69,14.56,5.65
			c11-0.06,21.47-8.93,21.47-21.69c0-15.47-8.01-25.47-23.2-25.2C130.73,361.57,127.16,364.64,123.78,366.91 M136.76,369.97
			c17.37,0,17.92,29.16,0.62,30.36C120.01,401.53,119.15,369.97,136.76,369.97"/>
		<path class="st0" d="M80.84,408.57c8.18,0,10.93-3.55,14.23-5.77c0.06,2.33,0.35,2.78,0.77,4.58h8.4v-45.05h-8.4l-0.88,5.31
			c-4.68-4.83-8.38-6.28-15.3-6.08c-10.56,0-21.18,11.33-21.02,23.93C58.78,397.36,68.76,408.57,80.84,408.57 M68.35,384.48
			c0-7.08,4.09-14.99,13.34-15.06c7.39,0,13.05,7.37,13.07,15.11c0.01,7.95-4.88,15.92-14.05,15.8
			C73.51,399.84,68.35,392.72,68.35,384.48"/>
		<path class="st0" d="M273.01,408.91c8.02,0,15.07-5.07,18.33-9.92l-6.11-5.35c-3.06,2.05-6.55,9.06-15.71,5.82
			c-6.43-2.28-9.48-8.3-9.49-14.32c-0.02-7.59,4.8-15.17,13.75-15.17c5.8,0,7.9,2.32,10.69,5.34l6.11-4.58
			c-1.18-3.88-9.27-9.16-17.08-9.16c-13.69,0-23.24,11.22-23.2,23.88C250.31,398.06,260.66,408.91,273.01,408.91"/>
		<rect x="217.1" y="338.66" class="st0" width="9.16" height="68.72"/>
		<path class="st0" d="M469.13,366.94l-1.55-4.6h-7.25v45.05h9.17v-26.73c0-9.44,10.49-12.37,16.79-9.91l2.34-8.69
			C479.35,359.28,473.85,362.36,469.13,366.94"/>
		<path class="st0" d="M174.72,366.91l-1.53-4.58h-7.64v64.14h9.16l-0.14-23.66c3.62,2.91,6.06,5.69,14.56,5.65
			c11-0.06,21.47-8.93,21.47-21.69c0-15.47-8.01-25.47-23.2-25.2C181.67,361.57,178.1,364.64,174.72,366.91 M187.7,369.97
			c17.37,0,17.92,29.16,0.62,30.36C170.95,401.53,170.09,369.97,187.7,369.97"/>
		<rect x="235.02" y="362.32" class="st0" width="9.16" height="45.07"/>
		<path class="st0" d="M317.67,408.57c8.18,0,10.93-3.55,14.23-5.77c0.06,2.33,0.35,2.78,0.77,4.58h8.4v-45.05h-8.4l-0.88,5.31
			c-4.68-4.83-8.38-6.28-15.3-6.08c-10.56,0-21.18,11.33-21.02,23.93C295.61,397.36,305.59,408.57,317.67,408.57 M305.17,384.48
			c0-7.08,4.09-14.99,13.34-15.06c7.39,0,13.05,7.37,13.07,15.11c0.01,7.95-4.88,15.92-14.05,15.8
			C310.34,399.84,305.17,392.72,305.17,384.48"/>
		<path class="st0" d="M386.58,408.91c8.02,0,15.07-5.07,18.33-9.92l-6.11-5.35c-3.06,2.05-6.55,9.06-15.71,5.82
			c-6.43-2.28-9.48-8.3-9.49-14.32c-0.02-7.59,4.8-15.17,13.75-15.17c5.8,0,7.9,2.32,10.69,5.34l6.11-4.58
			c-1.18-3.88-9.27-9.16-17.08-9.16c-13.69,0-23.24,11.22-23.2,23.88C363.89,398.06,374.23,408.91,386.58,408.91"/>
		<path class="st0" d="M501.83,366.91l-1.53-4.58h-7.64v64.14h9.16l-0.14-23.66c3.62,2.91,6.06,5.69,14.56,5.65
			c11-0.06,21.47-8.93,21.47-21.69c0-15.47-8.01-25.47-23.2-25.2C508.78,361.57,505.22,364.64,501.83,366.91 M514.81,369.97
			c17.37,0,17.92,29.16,0.62,30.36C498.06,401.53,497.21,369.97,514.81,369.97"/>
		<path class="st0" d="M550.46,396.58c3.14,0,5.68,2.54,5.68,5.68c0,3.14-2.54,5.69-5.68,5.69c-3.14,0-5.68-2.54-5.68-5.69
			C544.78,399.12,547.32,396.58,550.46,396.58"/>
		<path class="st1" d="M432.62,370.05c7.27,0,13.15,6.8,13.15,15.19s-5.88,15.19-13.15,15.19s-13.16-6.8-13.16-15.19
			S425.35,370.05,432.62,370.05 M432.62,361.81c12.47,0,22.58,10.49,22.58,23.43s-10.11,23.43-22.58,23.43
			c-12.47,0-22.58-10.49-22.58-23.43S420.15,361.81,432.62,361.81"/>
	</g>
</g>
<g id="Tag_Line_00000150799644092715520510000018195287910452870797_">
	<path class="st0" d="M169.6,473.13H167v-21.7h2.6v3.27h0.09c1.34-2.47,4.03-3.85,6.93-3.85c4.16,0,5.64,1.88,6.59,4.19
		c1.47-2.81,4.12-4.19,7.32-4.19c6.11,0,6.97,4.23,6.97,8.59v13.69h-2.6v-14.99c0-3.1-1.12-5.02-4.81-5.02
		c-1.91,0-3.77,0.79-5.07,2.47c-1.13,1.43-1.47,4.07-1.47,5.87v11.68h-2.6v-14.99c0-3.1-1.13-5.02-4.81-5.02
		c-1.91,0-3.77,0.79-5.07,2.47c-1.12,1.43-1.47,4.07-1.47,5.87V473.13z"/>
	<path class="st0" d="M213.74,460.48c0.96-0.08,2.56-0.34,3.43-0.71c0.86-0.37,0.95-1.51,0.95-2.26c0-2.55-1.56-4.4-5.59-4.4
		c-3.59,0-6.07,1.13-6.54,4.9h-2.64c0.39-5.11,4.34-7.16,9.23-7.16c4.55,0,8.14,1.72,8.14,6.75v11.81c0,1.97,0.52,2.43,2.73,1.67
		v1.97c-0.39,0.13-1.3,0.42-2.04,0.42c-0.44,0-0.78-0.04-1.17-0.12c-1.73-0.25-2.04-1.72-2.08-3.23c-2.16,2.34-5.11,3.6-8.36,3.6
		c-3.94,0-7.49-2.05-7.49-6.24c0-3.64,2.6-5.86,7.84-6.54L213.74,460.48z M218.12,461.74c-2.21,0.88-4.46,1.05-6.72,1.21
		c-3.94,0.29-6.32,1.67-6.32,4.61c0,2.64,2.38,3.89,4.85,3.89c4.11,0,8.19-1.93,8.19-6.32V461.74z"/>
	<polygon class="st0" points="227.35,473.13 227.35,442.97 229.95,442.97 229.95,461.73 240.95,451.43 244.5,451.43 236.1,459.27 
		245.5,473.13 242.59,473.13 234.19,461.02 229.95,464.92 229.95,473.13 	"/>
	<path class="st0" d="M250.79,462.86c-0.05,4.69,2.55,8.59,7.54,8.59c3.38,0,6.02-1.8,6.8-4.98h2.9c-1.3,4.1-3.99,7.24-9.7,7.24
		c-7.19,0-10.31-4.94-10.31-11.35c0-6.33,3.89-11.52,10.31-11.52c6.15,0,9.92,4.23,9.87,12.02H250.79z M265.42,460.77
		c0-4.23-2.42-7.67-7.1-7.67c-4.59,0-7.02,3.56-7.54,7.67H265.42z"/>
	<rect x="283.13" y="442.97" class="st0" width="2.94" height="30.15"/>
	<polygon class="st0" points="291.31,442.97 314.01,442.97 314.01,445.4 304.14,445.4 304.14,473.13 301.19,473.13 301.19,445.4 
		291.31,445.4 	"/>
	<path class="st0" d="M326.26,473.13v-30.15h2.6v11.47c2.08-2.13,4.11-3.6,7.23-3.6c2.73,0,5.24,0.83,6.84,3.1
		c1.09,1.55,1.13,3.18,1.13,4.99v14.2h-2.6v-14.15c0-3.9-1.64-5.86-5.8-5.86c-3.21,0-5.42,2.01-6.24,4.23
		c-0.52,1.39-0.56,2.6-0.56,4.11v11.68H326.26z"/>
	<path class="st0" d="M360.66,460.48c0.95-0.08,2.55-0.34,3.42-0.71c0.86-0.37,0.95-1.51,0.95-2.26c0-2.55-1.56-4.4-5.59-4.4
		c-3.6,0-6.07,1.13-6.54,4.9h-2.64c0.39-5.11,4.34-7.16,9.23-7.16c4.54,0,8.14,1.72,8.14,6.75v11.81c0,1.97,0.52,2.43,2.73,1.67
		v1.97c-0.39,0.13-1.3,0.42-2.04,0.42c-0.44,0-0.78-0.04-1.17-0.12c-1.73-0.25-2.04-1.72-2.08-3.23c-2.16,2.34-5.11,3.6-8.36,3.6
		c-3.94,0-7.49-2.05-7.49-6.24c0-3.64,2.6-5.86,7.84-6.54L360.66,460.48z M365.03,461.74c-2.21,0.88-4.46,1.05-6.72,1.21
		c-3.94,0.29-6.32,1.67-6.32,4.61c0,2.64,2.38,3.89,4.85,3.89c4.12,0,8.19-1.93,8.19-6.32V461.74z"/>
	<path class="st0" d="M377.34,481.67h-2.6v-30.23h2.6v3.81h0.09c1.51-2.85,4.94-4.4,7.79-4.4c7.24,0,10.14,4.99,10.14,11.39
		c0,6.07-3.16,11.47-10,11.47c-3.16,0-6.37-1.42-8.02-4.07V481.67z M384.92,471.45c5.37,0,7.89-4.4,7.67-9.84
		c-0.04-5.45-3.29-8.5-7.67-8.5c-4.89,0-7.58,4.02-7.58,9.25C377.34,467.26,380.19,471.45,384.92,471.45"/>
	<path class="st0" d="M403.81,481.67h-2.6v-30.23h2.6v3.81h0.09c1.51-2.85,4.94-4.4,7.79-4.4c7.24,0,10.14,4.99,10.14,11.39
		c0,6.07-3.16,11.47-10,11.47c-3.16,0-6.37-1.42-8.02-4.07V481.67z M411.39,471.45c5.37,0,7.89-4.4,7.67-9.84
		c-0.04-5.45-3.29-8.5-7.67-8.5c-4.89,0-7.58,4.02-7.58,9.25C403.81,467.26,406.66,471.45,411.39,471.45"/>
	<path class="st0" d="M428.97,462.86c-0.04,4.69,2.56,8.59,7.54,8.59c3.37,0,6.02-1.8,6.79-4.98h2.91c-1.3,4.1-3.99,7.24-9.7,7.24
		c-7.19,0-10.31-4.94-10.31-11.35c0-6.33,3.9-11.52,10.31-11.52c6.14,0,9.92,4.23,9.87,12.02H428.97z M443.62,460.77
		c0-4.23-2.43-7.67-7.1-7.67c-4.59,0-7.02,3.56-7.54,7.67H443.62z"/>
	<path class="st0" d="M454.06,473.13h-2.6v-21.7h2.6v3.02c2.08-2.13,4.11-3.6,7.24-3.6c2.73,0,5.24,0.83,6.84,3.1
		c1.08,1.55,1.12,3.18,1.12,4.99v14.2h-2.59v-14.15c0-3.9-1.65-5.86-5.81-5.86c-3.21,0-5.42,2.01-6.24,4.23
		c-0.52,1.39-0.56,2.6-0.56,4.11V473.13z"/>
</g>
</svg>
