<?xml version="1.0" encoding="utf-8"?>
<!-- Generator: Adobe Illustrator 26.5.0, SVG Export Plug-In . SVG Version: 6.00 Build 0)  -->
<svg version="1.1" id="Capa_1" xmlns="http://www.w3.org/2000/svg" xmlns:xlink="http://www.w3.org/1999/xlink" x="0px" y="0px"
	 viewBox="0 0 1124.49 323.8" style="enable-background:new 0 0 1124.49 323.8;" xml:space="preserve">
<style type="text/css">
	.st0{fill:#FFFFFF;}
	.st1{fill-rule:evenodd;clip-rule:evenodd;fill:#FFFFFF;}
</style>
<g>
	<g>
		<path class="st0" d="M169.14,241.25c-0.61-1.48-1.3-3.32-1.37-3.43c-0.06-0.09-8.71-17.89-8.71-17.89l-0.4-0.71
			c-0.26-0.45-0.36-0.62-0.78-1.58l-3.26-6.51c-0.15-0.3-0.26-0.55-0.36-0.79c-0.1-0.24-0.19-0.47-0.32-0.72
			c-0.25-0.52-0.48-0.92-0.7-1.32c-0.18-0.31-0.36-0.62-0.54-1.01l-19.39-39.31c-1.15-2.08-2.32-4.58-3.55-7.22
			c-1.3-2.8-2.65-5.69-4.04-8.19l-12.9-26.11c-0.19-0.42-0.32-0.76-0.45-1.08c-0.19-0.49-0.36-0.94-0.64-1.45L97.4,95.17
			c-0.35-0.69-0.64-1.37-0.93-2.04c-0.45-1.04-0.92-2.12-1.49-3.06l-4.09-8.52c-1-2.09-3.04-3.37-5.35-3.37c-0.05,0-0.11,0-0.16,0
			c-2.37,0.06-4.42,1.46-5.33,3.65c-0.36,0.86-0.67,1.62-0.96,2.16l-17.53,35.39c-0.43,0.98-0.71,1.48-1.05,2.09
			c-0.21,0.38-0.43,0.79-0.72,1.36c-0.04,0.07-3.56,7.02-3.56,7.9c0,1.81,1.01,3.72,2.09,5.75c0.45,0.84,0.92,1.73,1.36,2.7
			l3.4,6.74c0.32,0.7,0.65,1.33,0.97,1.95c0.24,0.45,0.47,0.88,0.69,1.34l18.74,38.11l0.31,0.6c0.42,0.82,0.8,1.56,1.23,2.6
			c0.46,1.12,0.76,1.64,1.06,2.17c0.21,0.37,0.43,0.75,0.73,1.42c0.58,1.3,0.79,1.67,1.16,2.31l2.27,4.51
			c0.23,0.48,0.4,0.87,0.55,1.22c0.3,0.69,0.55,1.27,1.02,2.12l17.5,35.57c1.01,2.05,3.06,3.32,5.33,3.32h52.78
			c0,0,1.04,0.12,1.51-0.41C169.41,242.21,169.14,241.25,169.14,241.25z"/>
		<path class="st0" d="M38.54,189.83c-3.94-1.39-12.79-1.46-16.91-0.13c-1.03,0.34-3.46,1.2-4.68,1.77c-2.74,1.3-6.5,4.24-8.42,6.23
			c-0.12,0.13-0.23,0.25-0.34,0.38l-2.12,2.59c-0.89,1.24-1.9,2.64-2.54,4.05c-1.35,2.94-2.79,6.43-2.79,10.81l0,1.54
			c-0.02,5.87-0.03,8.06,2.8,14.16c1.24,2.68,3.13,5.25,5.94,8.07c5.36,5.39,12.56,8.32,20.21,8.32c1.37,0,2.75-0.09,4.15-0.28
			c9.24-1.26,17.36-6.67,21.73-14.47c0.31-0.55,0.59-1.13,0.86-1.68l0.36-0.72c5.21-10.24,2.89-24.07-5.52-32.9
			C47.42,193.53,43.4,191.56,38.54,189.83z"/>
	</g>
	<g>
		<path class="st0" d="M537.16,90.74c4.77,0,8.64,3.87,8.64,8.64c0,4.77-3.87,8.64-8.64,8.64c-4.77,0-8.64-3.87-8.64-8.64
			C528.51,94.61,532.38,90.74,537.16,90.74"/>
		<path class="st0" d="M322.41,128.53l-2.83-8.49h-14.15v118.88h16.99l-0.27-43.86c6.71,5.4,11.23,10.55,26.99,10.47
			c20.38-0.1,39.79-16.55,39.79-40.2c0-28.68-14.85-47.21-42.99-46.7C335.29,118.63,328.68,124.33,322.41,128.53 M346.47,134.2
			c32.2,0,33.22,54.04,1.14,56.27C315.42,192.7,313.84,134.2,346.47,134.2"/>
		<path class="st0" d="M242.83,205.75c15.16,0,20.26-6.59,26.38-10.69c0.1,4.31,0.65,5.15,1.42,8.49h15.56v-83.5h-15.56l-1.63,9.84
			c-8.68-8.95-15.53-11.65-28.37-11.27c-19.57,0-39.25,21.01-38.96,44.35C201.95,184.97,220.44,205.75,242.83,205.75 M219.67,161.09
			c0-13.13,7.58-27.79,24.73-27.92c13.69,0,24.18,13.67,24.22,28.01c0.02,14.73-9.05,29.51-26.03,29.29
			C229.25,189.57,219.67,176.37,219.67,161.09"/>
		<path class="st0" d="M599,206.38c14.86,0,27.94-9.39,33.97-18.39l-11.32-9.91c-5.67,3.8-12.13,16.79-29.12,10.78
			c-11.92-4.22-17.57-15.39-17.6-26.54c-0.03-14.07,8.9-28.11,25.49-28.11c10.76,0,14.65,4.3,19.8,9.9l11.32-8.49
			c-2.18-7.19-17.18-16.99-31.66-16.99c-25.37,0-43.08,20.79-43.01,44.25C556.94,186.26,576.11,206.38,599,206.38"/>
		<rect x="495.37" y="76.17" class="st0" width="16.99" height="127.38"/>
		<path class="st0" d="M962.5,128.57l-2.87-8.53H946.2v83.5h17v-49.55c0-17.49,19.45-22.92,31.12-18.36l4.34-16.11
			C981.44,114.39,971.26,120.09,962.5,128.57"/>
		<path class="st0" d="M416.82,128.53l-2.83-8.49h-14.15v118.88h16.99l-0.27-43.86c6.71,5.4,11.23,10.55,26.99,10.47
			c20.38-0.1,39.79-16.55,39.79-40.2c0-28.68-14.85-47.21-42.99-46.7C429.71,118.63,423.1,124.33,416.82,128.53 M440.88,134.2
			c32.2,0,33.22,54.04,1.14,56.27C409.83,192.7,408.25,134.2,440.88,134.2"/>
		<rect x="528.59" y="120.02" class="st0" width="16.99" height="83.53"/>
		<path class="st0" d="M681.77,205.75c15.16,0,20.26-6.59,26.38-10.69c0.1,4.31,0.65,5.15,1.42,8.49h15.56v-83.5h-15.56l-1.63,9.84
			c-8.68-8.95-15.53-11.65-28.37-11.27c-19.57,0-39.25,21.01-38.96,44.35C640.89,184.97,659.39,205.75,681.77,205.75 M658.62,161.09
			c0-13.13,7.58-27.79,24.73-27.92c13.69,0,24.18,13.67,24.22,28.01c0.02,14.73-9.05,29.51-26.03,29.29
			C668.2,189.57,658.62,176.37,658.62,161.09"/>
		<path class="st0" d="M809.5,206.38c14.86,0,27.94-9.39,33.97-18.39l-11.32-9.91c-5.67,3.8-12.13,16.79-29.12,10.78
			c-11.92-4.22-17.57-15.39-17.6-26.54c-0.03-14.07,8.9-28.11,25.49-28.11c10.76,0,14.65,4.3,19.8,9.9l11.32-8.49
			c-2.18-7.19-17.18-16.99-31.66-16.99c-25.37,0-43.08,20.79-43.01,44.25C767.44,186.26,786.61,206.38,809.5,206.38"/>
		<path class="st0" d="M1023.12,128.53l-2.83-8.49h-14.15v118.88h16.99l-0.27-43.86c6.71,5.4,11.23,10.55,26.99,10.47
			c20.38-0.1,39.79-16.55,39.79-40.2c0-28.68-14.85-47.21-42.99-46.7C1036,118.63,1029.39,124.33,1023.12,128.53 M1047.17,134.2
			c32.2,0,33.22,54.04,1.14,56.27C1016.13,192.7,1014.54,134.2,1047.17,134.2"/>
		<path class="st0" d="M1113.24,183.51c5.81,0,10.53,4.71,10.53,10.53c0,5.82-4.71,10.54-10.53,10.54
			c-5.81,0-10.53-4.71-10.53-10.54C1102.71,188.23,1107.43,183.51,1113.24,183.51"/>
		<path class="st1" d="M894.83,134.34c13.47,0,24.38,12.61,24.38,28.16s-10.91,28.16-24.38,28.16c-13.47,0-24.39-12.61-24.39-28.16
			S881.36,134.34,894.83,134.34 M894.83,119.07c23.11,0,41.85,19.45,41.85,43.43s-18.74,43.43-41.85,43.43s-41.85-19.45-41.85-43.43
			S871.72,119.07,894.83,119.07"/>
	</g>
</g>
</svg>
