<?xml version="1.0" encoding="utf-8"?>
<!-- Generator: Adobe Illustrator 28.1.0, SVG Export Plug-In . SVG Version: 6.00 Build 0)  -->
<svg version="1.1" id="Capa_1" xmlns="http://www.w3.org/2000/svg" xmlns:xlink="http://www.w3.org/1999/xlink" x="0px" y="0px"
	 viewBox="0 0 281.51 280.54" style="enable-background:new 0 0 281.51 280.54;" xml:space="preserve">
<style type="text/css">
	.st0{fill:#FFFFFF;}
	.st1{fill-rule:evenodd;clip-rule:evenodd;fill:#FFFFFF;}
	.st2{fill:#050505;}
</style>
<g>
	<path class="st2" d="M242.24,235.08c-0.75-1.84-1.61-4.12-1.7-4.26c-0.07-0.11-10.81-22.2-10.81-22.2l-0.49-0.89
		c-0.32-0.56-0.44-0.77-0.96-1.97l-4.05-8.08c-0.19-0.38-0.32-0.68-0.44-0.98c-0.12-0.29-0.24-0.58-0.39-0.89
		c-0.3-0.65-0.59-1.15-0.87-1.64c-0.22-0.39-0.44-0.77-0.67-1.26l-24.07-48.79c-1.43-2.58-2.88-5.68-4.4-8.96
		c-1.62-3.47-3.29-7.06-5.01-10.17l-16.01-32.41c-0.24-0.52-0.4-0.94-0.56-1.34c-0.24-0.61-0.45-1.17-0.79-1.8L153.2,53.76
		c-0.43-0.86-0.8-1.7-1.15-2.53c-0.56-1.29-1.14-2.63-1.85-3.8l-5.08-10.58c-1.24-2.6-3.78-4.18-6.64-4.18c-0.07,0-0.13,0-0.2,0
		c-2.95,0.08-5.48,1.82-6.62,4.53c-0.44,1.07-0.84,2.01-1.19,2.68L108.7,83.81c-0.54,1.22-0.89,1.84-1.3,2.6
		c-0.26,0.47-0.54,0.98-0.9,1.69c-0.04,0.08-4.41,8.72-4.41,9.81c0,2.24,1.26,4.62,2.59,7.14c0.56,1.05,1.14,2.15,1.68,3.35
		l4.21,8.36c0.39,0.87,0.81,1.66,1.21,2.42c0.29,0.55,0.58,1.09,0.85,1.67l23.26,47.31l0.38,0.75c0.52,1.02,0.99,1.93,1.53,3.23
		c0.57,1.39,0.94,2.03,1.32,2.7c0.27,0.46,0.54,0.93,0.91,1.76c0.73,1.61,0.99,2.07,1.44,2.87l2.81,5.59
		c0.28,0.6,0.49,1.08,0.68,1.52c0.37,0.86,0.69,1.57,1.27,2.63l21.73,44.15c1.25,2.54,3.79,4.12,6.62,4.12h65.51
		c0,0,1.3,0.15,1.87-0.51C242.57,236.27,242.24,235.08,242.24,235.08z"/>
	<path class="st2" d="M80.13,171.26c-4.89-1.73-15.88-1.82-20.99-0.16c-1.28,0.42-4.29,1.49-5.8,2.2c-3.4,1.61-8.07,5.26-10.45,7.74
		c-0.15,0.16-0.28,0.31-0.42,0.48l-2.63,3.22c-1.1,1.54-2.35,3.27-3.16,5.02c-1.68,3.64-3.47,7.99-3.47,13.42l0,1.91
		c-0.02,7.28-0.03,10.01,3.47,17.57c1.54,3.33,3.89,6.51,7.37,10.01C50.7,239.36,59.63,243,69.13,243c1.7,0,3.42-0.11,5.15-0.35
		c11.47-1.57,21.55-8.28,26.97-17.96c0.38-0.68,0.73-1.4,1.07-2.09l0.44-0.9c6.47-12.71,3.59-29.88-6.85-40.83
		C91.16,175.85,86.16,173.4,80.13,171.26z"/>
</g>
</svg>
