<?xml version="1.0" standalone="no"?>
<!DOCTYPE svg PUBLIC "-//W3C//DTD SVG 20010904//EN"
 "http://www.w3.org/TR/2001/REC-SVG-20010904/DTD/svg10.dtd">
<svg version="1.0" xmlns="http://www.w3.org/2000/svg"
 width="126.000000pt" height="103.000000pt" viewBox="0 0 126.000000 103.000000"
 preserveAspectRatio="xMidYMid meet">
<metadata>
Created by potrace 1.16, written by Peter Selinger 2001-2019
</metadata>
<g transform="translate(0.000000,103.000000) scale(0.100000,-0.100000)"
fill="#000000" stroke="none">
<path d="M201 995 c-68 -19 -140 -51 -163 -72 -17 -15 -18 -46 -18 -444 0
-375 2 -429 16 -443 22 -22 49 -20 109 9 133 62 295 61 430 -5 51 -25 63 -24
155 17 59 25 75 28 180 28 104 0 121 -3 180 -29 92 -40 124 -44 144 -15 14 21
16 71 16 429 0 223 -3 415 -6 428 -8 28 -94 74 -181 96 -116 30 -307 15 -396
-31 -27 -14 -34 -13 -101 13 -60 23 -90 27 -191 30 -86 3 -135 0 -174 -11z
m303 -125 l66 -21 0 -338 0 -339 -42 15 c-66 24 -229 28 -311 9 -38 -9 -70
-16 -73 -16 -2 0 -4 151 -4 335 l0 334 63 20 c86 27 213 28 301 1z m579 -8
l47 -21 0 -332 0 -332 -32 8 c-96 21 -119 24 -188 24 -69 0 -92 -3 -187 -24
l-33 -7 0 335 0 335 23 7 c12 4 42 13 67 21 69 21 242 13 303 -14z"/>
</g>
</svg>
