<svg width="137" height="137" viewBox="0 0 137 137" fill="none" xmlns="http://www.w3.org/2000/svg">
<path d="M68.5003 7.31494C81.7152 7.31494 92.1296 7.30481 100.255 8.39697C108.266 9.47373 114.751 11.6987 119.906 16.5933L120.401 17.0757L120.402 17.0767C125.635 22.3133 127.972 28.9575 129.084 37.228C130.177 45.3539 130.166 55.7671 130.166 68.9819C130.166 82.1967 130.177 92.6109 129.084 100.737C127.972 109.007 125.635 115.651 120.4 120.883L120.399 120.882C115.17 126.117 108.525 128.454 100.257 129.566C92.1306 130.659 81.715 130.648 68.5003 130.648C55.2856 130.648 44.871 130.659 36.7445 129.566C28.4739 128.454 21.8284 126.117 16.5941 120.882V120.881C11.3618 115.652 9.02669 109.007 7.91537 100.739C6.82322 92.6125 6.83334 82.1968 6.83334 68.9819C6.83334 55.7669 6.82321 45.3524 7.91537 37.2261C9.02685 28.9562 11.3614 22.3111 16.5921 17.0767L16.596 17.0728C21.8327 11.8432 28.4767 9.50854 36.7464 8.39697C44.8721 7.3048 55.2853 7.31494 68.5003 7.31494ZM68.5003 17.3149C55.0027 17.3149 45.3831 17.3253 38.0785 18.3071C30.9182 19.2696 26.733 21.0826 23.6624 24.1489C20.5996 27.2157 18.7877 31.3993 17.8255 38.5581C16.8437 45.8635 16.8333 55.4843 16.8333 68.9819C16.8333 82.4794 16.8437 92.1014 17.8255 99.4067C18.7581 106.345 20.4886 110.486 23.3802 113.52L23.6634 113.81L23.6644 113.811C26.7317 116.878 30.9164 118.692 38.0775 119.655C45.3826 120.637 55.0029 120.648 68.5003 120.648C81.9978 120.648 91.6191 120.637 98.9242 119.655C106.086 118.692 110.267 116.879 113.327 113.814L113.33 113.81C116.397 110.746 118.21 106.564 119.173 99.4038C120.156 92.0995 120.166 82.4795 120.166 68.9819C120.166 55.4843 120.156 45.8654 119.173 38.561C118.21 31.402 116.397 27.2166 113.329 24.146C110.266 21.0822 106.083 19.2696 98.9222 18.3071C91.6177 17.3254 81.9975 17.3149 68.5003 17.3149ZM36.3255 54.4478C38.0381 52.393 41.0502 52.0597 43.1654 53.6479L43.3675 53.8081L44.6937 54.9126L44.6927 54.9136C48.2065 57.8408 51.2643 60.372 53.3753 62.7095C55.5796 65.1502 57.389 68.0557 57.389 71.8159C57.3887 75.5738 55.583 78.4792 53.3783 80.9214C51.2674 83.2594 48.2094 85.79 44.6927 88.7173L44.6937 88.7183L43.3675 89.8237C41.2462 91.5911 38.0933 91.3041 36.3255 89.1831C34.5579 87.0619 34.8443 83.909 36.9652 82.1411L38.2914 81.0366L38.2933 81.0347C42.0453 77.9115 44.4358 75.9033 45.9554 74.2202C47.3797 72.6426 47.389 72.0419 47.389 71.8159C47.389 71.5925 47.3824 70.9927 45.9544 69.4116C44.4333 67.7273 42.0429 65.7197 38.2923 62.5952H38.2914L36.9652 61.4897L36.7718 61.3208C34.828 59.5268 34.6133 56.5029 36.3255 54.4478ZM97.0902 80.9888C99.732 81.1226 101.833 83.3069 101.833 85.9819C101.833 88.6569 99.7319 90.8422 97.0902 90.9761L96.8333 90.9819H68.4994C65.7384 90.9816 63.4996 88.7429 63.4994 85.9819C63.4995 83.2209 65.7383 80.9823 68.4994 80.9819H96.8333L97.0902 80.9888Z" fill="url(#paint0_linear_13_303)"/>
<defs>
<linearGradient id="paint0_linear_13_303" x1="6.83334" y1="7.31494" x2="130.166" y2="130.648" gradientUnits="userSpaceOnUse">
<stop stop-color="#B95EE8"/>
<stop offset="1" stop-color="#0069E0"/>
</linearGradient>
</defs>
</svg>
