<svg width="56" height="56" viewBox="0 0 56 56" fill="none" xmlns="http://www.w3.org/2000/svg">
<path d="M6.41669 32.6667H49.5834M21.2567 41.4891V44.9167C21.2567 46.1544 20.765 47.3414 19.8899 48.2166C19.0147 49.0917 17.8277 49.5834 16.59 49.5834H15.19M34.7434 41.4891V44.9167C34.7434 46.1544 35.235 47.3414 36.1102 48.2166C36.9854 49.0917 38.1723 49.5834 39.41 49.5834H40.81M15.1854 49.5834H40.8147M6.41669 14.5834C6.41669 12.4175 7.2771 10.3403 8.80865 8.80871C10.3402 7.27716 12.4174 6.41675 14.5834 6.41675H41.4167C43.5826 6.41675 45.6598 7.27716 47.1914 8.80871C48.7229 10.3403 49.5834 12.4175 49.5834 14.5834V33.3224C49.5834 35.4883 48.7229 37.5656 47.1914 39.0971C45.6598 40.6287 43.5826 41.4891 41.4167 41.4891H14.5834C12.4174 41.4891 10.3402 40.6287 8.80865 39.0971C7.2771 37.5656 6.41669 35.4883 6.41669 33.3224V14.5834Z" stroke="#4533A4" stroke-width="3.5" stroke-linecap="round" stroke-linejoin="round"/>
</svg>
