<svg width="56" height="56" viewBox="0 0 56 56" fill="none" xmlns="http://www.w3.org/2000/svg">
<path d="M14.1167 41.475C13.3389 41.0472 12.7361 40.474 12.3083 39.7553C11.8806 39.0366 11.6667 38.2293 11.6667 37.3333V26.1333L6.06667 23.0416C5.63889 22.8083 5.32778 22.5166 5.13333 22.1666C4.93889 21.8166 4.84167 21.4277 4.84167 21C4.84167 20.5722 4.93889 20.1833 5.13333 19.8333C5.32778 19.4833 5.63889 19.1916 6.06667 18.9583L25.7833 8.22497C26.1333 8.03053 26.4934 7.8843 26.8637 7.7863C27.2339 7.6883 27.6127 7.64008 28 7.64164C28.3873 7.64319 28.7669 7.69219 29.1387 7.78864C29.5104 7.88508 29.8698 8.03053 30.2167 8.22497L52.4417 20.3583C52.8306 20.5527 53.1323 20.8351 53.347 21.2053C53.5617 21.5755 53.6682 21.9737 53.6667 22.4V37.3333C53.6667 37.9944 53.4427 38.549 52.9947 38.997C52.5467 39.445 51.9929 39.6682 51.3333 39.6666C50.6738 39.6651 50.12 39.4411 49.672 38.9946C49.224 38.5482 49 37.9944 49 37.3333V23.5666L44.3333 26.1333V37.3333C44.3333 38.2277 44.1194 39.0351 43.6917 39.7553C43.2639 40.4755 42.6611 41.0487 41.8833 41.475L30.2167 47.775C29.8667 47.9694 29.5073 48.1156 29.1387 48.2136C28.77 48.3116 28.3904 48.3599 28 48.3583C27.6096 48.3567 27.23 48.3085 26.8613 48.2136C26.4927 48.1187 26.1333 47.9725 25.7833 47.775L14.1167 41.475ZM28 29.6333L43.9833 21L28 12.3666L12.0167 21L28 29.6333ZM28 43.6916L39.6667 37.3916V28.5833L30.275 33.775C29.925 33.9694 29.5556 34.1156 29.1667 34.2136C28.7778 34.3116 28.3889 34.3599 28 34.3583C27.6111 34.3567 27.2222 34.3085 26.8333 34.2136C26.4444 34.1187 26.075 33.9725 25.725 33.775L16.3333 28.5833V37.3916L28 43.6916Z" fill="#4533A4"/>
</svg>
