<svg width="137" height="137" viewBox="0 0 137 137" fill="none" xmlns="http://www.w3.org/2000/svg">
<path d="M85.1523 56.8882C90.9933 56.8882 95.7339 61.6288 95.7339 67.4698V96.1851C95.7339 103.403 92.8665 110.326 87.7626 115.43C82.6586 120.534 75.7362 123.401 68.5181 123.401C61.3 123.401 54.3776 120.534 49.2737 115.43C44.1697 110.326 41.3023 103.403 41.3023 96.1851V67.4698C41.3023 61.6288 46.0368 56.8882 51.8839 56.8882H85.1523ZM85.1523 65.9581H51.8839C51.483 65.9581 51.0985 66.1174 50.815 66.4009C50.5315 66.6844 50.3722 67.0689 50.3722 67.4698V96.1851C50.3722 100.998 52.284 105.613 55.687 109.016C59.0901 112.419 63.7055 114.331 68.5181 114.331C73.3307 114.331 77.9462 112.419 81.3492 109.016C84.7522 105.613 86.664 100.998 86.664 96.1851V67.4698C86.664 67.0689 86.5047 66.6844 86.2212 66.4009C85.9377 66.1174 85.5532 65.9581 85.1523 65.9581ZM18.6155 56.8882H39.0591C36.9265 59.465 35.6237 62.6269 35.3223 65.9581H18.6155C18.2146 65.9581 17.8301 66.1174 17.5466 66.4009C17.2631 66.6844 17.1038 67.0689 17.1038 67.4698V87.1152C17.1023 89.4005 17.6189 91.6564 18.6149 93.7133C19.6108 95.7701 21.0601 97.5744 22.8539 98.9904C24.6476 100.406 26.739 101.397 28.9709 101.889C31.2028 102.38 33.517 102.359 35.7395 101.827C36.2534 104.874 37.1907 107.783 38.4786 110.485C36.4792 111.03 34.3931 111.304 32.2203 111.308C29.0436 111.308 25.898 110.682 22.9632 109.466C20.0284 108.25 17.3618 106.468 15.1158 104.221C12.8698 101.975 11.0884 99.3079 9.87328 96.3728C8.65816 93.4377 8.03314 90.2919 8.03394 87.1152V67.4698C8.03394 61.6288 12.7745 56.8882 18.6155 56.8882ZM97.9772 56.8882H118.384C124.225 56.8882 128.966 61.6288 128.966 67.4698V87.1213C128.967 90.8288 128.115 94.4869 126.477 97.813C124.839 101.139 122.458 104.044 119.519 106.303C116.579 108.563 113.159 110.116 109.524 110.843C105.888 111.57 102.134 111.452 98.5516 110.497C99.8456 107.789 100.783 104.88 101.303 101.833C102.419 102.099 103.578 102.234 104.78 102.238C108.789 102.238 112.634 100.645 115.469 97.8102C118.303 94.9753 119.896 91.1304 119.896 87.1213V67.4698C119.896 67.0689 119.737 66.6844 119.453 66.4009C119.17 66.1174 118.785 65.9581 118.384 65.9581H101.714C101.412 62.6269 100.11 59.465 97.9772 56.8882ZM68.5 14.562C73.3109 14.562 77.9249 16.4732 81.3268 19.875C84.7286 23.2769 86.6398 27.8908 86.6398 32.7018C86.6398 37.5128 84.7286 42.1267 81.3268 45.5286C77.9249 48.9305 73.3109 50.8416 68.5 50.8416C63.689 50.8416 59.0751 48.9305 55.6732 45.5286C52.2713 42.1267 50.3602 37.5128 50.3602 32.7018C50.3602 27.8908 52.2713 23.2769 55.6732 19.875C59.0751 16.4732 63.689 14.562 68.5 14.562ZM107.803 20.6086C111.812 20.6086 115.657 22.2012 118.492 25.0361C121.327 27.871 122.919 31.716 122.919 35.7251C122.919 39.7343 121.327 43.5792 118.492 46.4141C115.657 49.249 111.812 50.8416 107.803 50.8416C103.794 50.8416 99.9488 49.249 97.1139 46.4141C94.279 43.5792 92.6864 39.7343 92.6864 35.7251C92.6864 31.716 94.279 27.871 97.1139 25.0361C99.9488 22.2012 103.794 20.6086 107.803 20.6086ZM29.197 20.6086C33.2062 20.6086 37.0511 22.2012 39.886 25.0361C42.7209 27.871 44.3136 31.716 44.3136 35.7251C44.3136 39.7343 42.7209 43.5792 39.886 46.4141C37.0511 49.249 33.2062 50.8416 29.197 50.8416C25.1879 50.8416 21.343 49.249 18.5081 46.4141C15.6732 43.5792 14.0805 39.7343 14.0805 35.7251C14.0805 31.716 15.6732 27.871 18.5081 25.0361C21.343 22.2012 25.1879 20.6086 29.197 20.6086ZM68.5 23.6319C66.0945 23.6319 63.7875 24.5875 62.0866 26.2884C60.3856 27.9894 59.4301 30.2963 59.4301 32.7018C59.4301 35.1073 60.3856 37.4143 62.0866 39.1152C63.7875 40.8162 66.0945 41.7717 68.5 41.7717C70.9055 41.7717 73.2124 40.8162 74.9134 39.1152C76.6143 37.4143 77.5699 35.1073 77.5699 32.7018C77.5699 30.2963 76.6143 27.9894 74.9134 26.2884C73.2124 24.5875 70.9055 23.6319 68.5 23.6319ZM107.803 29.6785C106.199 29.6785 104.661 30.3156 103.527 31.4495C102.393 32.5835 101.756 34.1215 101.756 35.7251C101.756 37.3288 102.393 38.8668 103.527 40.0007C104.661 41.1347 106.199 41.7717 107.803 41.7717C109.407 41.7717 110.945 41.1347 112.078 40.0007C113.212 38.8668 113.849 37.3288 113.849 35.7251C113.849 34.1215 113.212 32.5835 112.078 31.4495C110.945 30.3156 109.407 29.6785 107.803 29.6785ZM29.197 29.6785C27.5934 29.6785 26.0554 30.3156 24.9215 31.4495C23.7875 32.5835 23.1504 34.1215 23.1504 35.7251C23.1504 37.3288 23.7875 38.8668 24.9215 40.0007C26.0554 41.1347 27.5934 41.7717 29.197 41.7717C30.8007 41.7717 32.3387 41.1347 33.4726 40.0007C34.6066 38.8668 35.2437 37.3288 35.2437 35.7251C35.2437 34.1215 34.6066 32.5835 33.4726 31.4495C32.3387 30.3156 30.8007 29.6785 29.197 29.6785Z" fill="url(#paint0_linear_13_307)"/>
<defs>
<linearGradient id="paint0_linear_13_307" x1="8.03394" y1="14.562" x2="128.966" y2="123.401" gradientUnits="userSpaceOnUse">
<stop stop-color="#B95EE8"/>
<stop offset="1" stop-color="#0069E0"/>
</linearGradient>
</defs>
</svg>
