<svg width="136" height="137" viewBox="0 0 136 137" fill="none" xmlns="http://www.w3.org/2000/svg">
<path d="M128.714 107.019L112.266 90.5694C110.534 88.8369 107.735 88.8369 106.002 90.5694C104.27 92.3019 104.27 95.1012 106.002 96.8337L114.892 105.724H71.8476C71.6653 105.049 71.4374 104.384 71.1638 103.736C70.3159 101.694 69.0941 99.8609 67.5259 98.3017C65.9668 96.7334 64.1341 95.5115 62.0826 94.6635C57.9979 92.9675 53.3388 92.9675 49.245 94.6635C47.2026 95.5115 45.37 96.7334 43.8109 98.3017C42.2426 99.8701 41.0209 101.694 40.1729 103.736C39.8994 104.384 39.6897 105.049 39.5074 105.724H33.1341C28.3474 105.633 23.8615 103.691 20.5062 100.271C17.1509 96.8519 15.3 92.3292 15.3 87.533C15.3 82.7367 17.1509 78.2141 20.5062 74.7947C23.8615 71.3753 28.3474 69.4331 33.0521 69.3419H64.1797C64.9365 72.123 66.3953 74.6761 68.4832 76.7734C71.6471 79.9374 75.8594 81.679 80.3362 81.679C84.8129 81.679 89.0253 79.9374 92.1891 76.7642C94.2771 74.667 95.7359 72.1139 96.4926 69.3328H105.009C111.683 69.3328 117.956 66.7341 122.679 62.0108C127.401 57.2875 130 51.0141 130 44.3395C130 37.6649 127.401 31.3915 122.679 26.6682C117.956 21.9449 111.683 19.3462 105.009 19.3462H63.6053C62.8485 16.5651 61.3897 14.012 59.3018 11.9148C56.1379 8.75072 51.9256 7 47.4488 7C42.9721 7 38.7597 8.7416 35.5959 11.9148C33.4988 14.012 32.0491 16.5651 31.2924 19.3462H10.4312C7.98765 19.3462 6 21.3249 6 23.7777C6 26.2305 7.97853 28.2092 10.4312 28.2092H31.2832C32.04 30.9903 33.4988 33.5434 35.5868 35.6406C38.7506 38.8047 42.9629 40.5554 47.4397 40.5554C51.9165 40.5554 56.1288 38.8138 59.2926 35.6406C61.3897 33.5434 62.8394 30.9903 63.5962 28.2092H105.009C109.321 28.2092 113.369 29.887 116.415 32.9325C119.46 35.978 121.138 40.0357 121.138 44.3395C121.138 48.6434 119.46 52.701 116.415 55.7465C113.369 58.792 109.312 60.4698 105.009 60.4698H96.4926C95.7359 57.6887 94.2771 55.1356 92.1891 53.0384C89.0253 49.8743 84.8129 48.1236 80.3362 48.1236C75.8594 48.1236 71.6471 49.8652 68.4832 53.0384C66.3862 55.1356 64.9365 57.6887 64.1797 60.4698H32.9609C25.84 60.6157 19.1659 63.488 14.1785 68.576C9.19118 73.664 6.44676 80.3842 6.44676 87.5147C6.44676 94.6453 9.19118 101.365 14.1785 106.453C19.1659 111.542 25.8309 114.423 33.0429 114.56H39.4982C39.6806 115.234 39.8903 115.9 40.1638 116.547C41.0118 118.59 42.2335 120.423 43.8018 121.982C45.37 123.55 47.1935 124.772 49.2359 125.62C53.3206 127.316 57.9888 127.316 62.0644 125.62C64.1068 124.772 65.9394 123.55 67.5076 121.982C69.0759 120.423 70.2976 118.59 71.1456 116.538C71.4191 115.891 71.6471 115.225 71.8294 114.551H114.874L105.984 123.441C104.252 125.173 104.252 127.973 105.984 129.705C106.85 130.571 107.981 131 109.111 131C110.242 131 111.382 130.571 112.239 129.705L128.678 113.265C128.678 113.265 128.705 113.238 128.724 113.219C128.724 113.219 128.724 113.219 128.724 113.21C128.724 113.21 128.724 113.201 128.733 113.192C129.097 112.791 129.38 112.344 129.581 111.87C129.799 111.341 129.918 110.766 129.918 110.165C129.918 109.563 129.799 108.988 129.581 108.469C129.371 107.958 129.052 107.475 128.641 107.055L128.714 107.019ZM47.4397 31.6742C45.3244 31.6742 43.3368 30.8535 41.8506 29.3581C40.3553 27.8627 39.5347 25.8749 39.5347 23.7686C39.5347 21.6623 40.3553 19.6653 41.8506 18.1791C43.3459 16.6837 45.3335 15.863 47.4397 15.863C49.5459 15.863 51.5426 16.6837 53.0288 18.1791C54.4968 19.6471 55.3082 21.5893 55.3356 23.65C55.3356 23.6865 55.3265 23.7321 55.3265 23.7686C55.3265 23.8051 55.3356 23.8507 55.3356 23.8871C55.3082 25.957 54.4876 27.8992 53.0197 29.3581C51.5244 30.8535 49.5368 31.6742 47.4306 31.6742H47.4397ZM74.7379 59.2935C76.2332 57.7981 78.2209 56.9775 80.3271 56.9775C82.4332 56.9775 84.43 57.7981 85.9162 59.2935C87.4115 60.789 88.2321 62.7767 88.2321 64.8831C88.2321 66.9894 87.4115 68.9863 85.9162 70.4726C84.4209 71.968 82.4332 72.7887 80.3179 72.7887C78.2026 72.7887 76.215 71.968 74.7288 70.4726C73.2335 68.9772 72.4129 66.9894 72.4129 64.874C72.4129 62.7585 73.2335 60.7707 74.7288 59.2844L74.7379 59.2935ZM62.9579 113.146C62.5568 114.113 61.9824 114.97 61.2438 115.718C60.5053 116.465 59.6391 117.031 58.6726 117.432C56.7488 118.234 54.5515 118.234 52.6185 117.432C51.6521 117.031 50.795 116.456 50.0565 115.718C49.3179 114.979 48.7435 114.122 48.3424 113.155C47.9412 112.189 47.7406 111.168 47.7406 110.128C47.7406 109.089 47.9412 108.067 48.3424 107.101C48.7435 106.134 49.3179 105.277 50.0565 104.539C50.795 103.8 51.6612 103.226 52.6185 102.824C53.585 102.423 54.6062 102.223 55.6456 102.223C56.685 102.223 57.7062 102.423 58.6726 102.824C59.6391 103.226 60.5053 103.8 61.2438 104.539C61.9824 105.277 62.5568 106.143 62.9579 107.101C63.3591 108.067 63.5597 109.08 63.5597 110.128C63.5597 111.177 63.3591 112.189 62.9579 113.155V113.146Z" fill="url(#paint0_linear_2143_77)"/>
<defs>
<linearGradient id="paint0_linear_2143_77" x1="6" y1="7" x2="141.523" y2="116.774" gradientUnits="userSpaceOnUse">
<stop stop-color="#B95EE8"/>
<stop offset="1" stop-color="#0069E0"/>
</linearGradient>
</defs>
</svg>
