<svg width="56" height="56" viewBox="0 0 56 56" fill="none" xmlns="http://www.w3.org/2000/svg">
<path d="M20.3 24.9667L35.7 17.0333M20.3 31.0333L35.7 38.9667M7 28C7 29.8565 7.7375 31.637 9.05025 32.9497C10.363 34.2625 12.1435 35 14 35C15.8565 35 17.637 34.2625 18.9497 32.9497C20.2625 31.637 21 29.8565 21 28C21 26.1435 20.2625 24.363 18.9497 23.0503C17.637 21.7375 15.8565 21 14 21C12.1435 21 10.363 21.7375 9.05025 23.0503C7.7375 24.363 7 26.1435 7 28ZM35 14C35 15.8565 35.7375 17.637 37.0503 18.9497C38.363 20.2625 40.1435 21 42 21C43.8565 21 45.637 20.2625 46.9497 18.9497C48.2625 17.637 49 15.8565 49 14C49 12.1435 48.2625 10.363 46.9497 9.05025C45.637 7.7375 43.8565 7 42 7C40.1435 7 38.363 7.7375 37.0503 9.05025C35.7375 10.363 35 12.1435 35 14ZM35 42C35 43.8565 35.7375 45.637 37.0503 46.9497C38.363 48.2625 40.1435 49 42 49C43.8565 49 45.637 48.2625 46.9497 46.9497C48.2625 45.637 49 43.8565 49 42C49 40.1435 48.2625 38.363 46.9497 37.0503C45.637 35.7375 43.8565 35 42 35C40.1435 35 38.363 35.7375 37.0503 37.0503C35.7375 38.363 35 40.1435 35 42Z" stroke="#4533A4" stroke-width="3.5" stroke-linecap="round" stroke-linejoin="round"/>
</svg>
