<svg width="56" height="56" viewBox="0 0 56 56" fill="none" xmlns="http://www.w3.org/2000/svg">
<path d="M49.5534 12.3396L28.5534 5.33957C28.1942 5.21982 27.8058 5.21982 27.4466 5.33957L6.44656 12.3396C6.0981 12.4557 5.79503 12.6786 5.58028 12.9766C5.36552 13.2746 5.24997 13.6326 5.25 13.9999V31.4999C5.25 31.964 5.43437 32.4091 5.76256 32.7373C6.09075 33.0655 6.53587 33.2499 7 33.2499C7.46413 33.2499 7.90925 33.0655 8.23744 32.7373C8.56563 32.4091 8.75 31.964 8.75 31.4999V16.428L16.0978 18.8758C14.1456 22.0298 13.5248 25.8295 14.3717 29.4408C15.2187 33.0521 17.4641 36.1796 20.615 38.1368C16.6775 39.6811 13.2737 42.4746 10.7844 46.2939C10.6549 46.4864 10.565 46.7026 10.5198 46.9301C10.4747 47.1576 10.4752 47.3918 10.5213 47.619C10.5675 47.8463 10.6583 48.0622 10.7886 48.254C10.9189 48.4459 11.086 48.6099 11.2803 48.7366C11.4745 48.8633 11.692 48.9502 11.9201 48.9921C12.1482 49.034 12.3824 49.0301 12.609 48.9807C12.8356 48.9313 13.0501 48.8374 13.2401 48.7044C13.4301 48.5713 13.5917 48.4019 13.7156 48.2058C17.0122 43.1483 22.2184 40.2499 28 40.2499C33.7816 40.2499 38.9878 43.1483 42.2844 48.2058C42.541 48.5873 42.9375 48.8524 43.3881 48.9439C43.8387 49.0354 44.3072 48.9459 44.6924 48.6947C45.0775 48.4435 45.3483 48.0508 45.4462 47.6016C45.5441 47.1524 45.4613 46.6826 45.2156 46.2939C42.7262 42.4746 39.3094 39.6811 35.385 38.1368C38.5329 36.1797 40.7762 33.0542 41.623 29.4456C42.4698 25.8369 41.8509 22.0398 39.9022 18.8868L49.5534 15.6711C49.902 15.555 50.2051 15.3322 50.42 15.0342C50.6348 14.7362 50.7504 14.3782 50.7504 14.0108C50.7504 13.6435 50.6348 13.2854 50.42 12.9874C50.2051 12.6894 49.902 12.4666 49.5534 12.3505V12.3396ZM38.5 26.2499C38.5005 27.9099 38.1074 29.5463 37.3529 31.025C36.5985 32.5036 35.5042 33.7823 34.1598 34.7562C32.8155 35.73 31.2594 36.3712 29.6193 36.6272C27.9792 36.8833 26.3017 36.7467 24.7245 36.2289C23.1474 35.7111 21.7155 34.8267 20.5463 33.6483C19.3771 32.4699 18.504 31.0311 17.9986 29.4499C17.4931 27.8687 17.3698 26.1902 17.6386 24.5522C17.9075 22.9141 18.5609 21.3631 19.5453 20.0264L27.4466 22.6514C27.8058 22.7712 28.1942 22.7712 28.5534 22.6514L36.4547 20.0264C37.7841 21.829 38.5009 24.0101 38.5 26.2499ZM28 19.1558L12.5344 13.9999L28 8.84395L43.4656 13.9999L28 19.1558Z" fill="#4533A4"/>
</svg>
