<svg width="56" height="56" viewBox="0 0 56 56" fill="none" xmlns="http://www.w3.org/2000/svg">
<path d="M4.66669 11.6666C4.66669 11.0477 4.91252 10.4543 5.3501 10.0167C5.78769 9.57909 6.38118 9.33325 7.00002 9.33325H49C49.6189 9.33325 50.2124 9.57909 50.6499 10.0167C51.0875 10.4543 51.3334 11.0477 51.3334 11.6666V44.3333C51.3334 44.9521 51.0875 45.5456 50.6499 45.9832C50.2124 46.4208 49.6189 46.6666 49 46.6666H7.00002C6.38118 46.6666 5.78769 46.4208 5.3501 45.9832C4.91252 45.5456 4.66669 44.9521 4.66669 44.3333V11.6666Z" stroke="#4533A4" stroke-width="4.66667" stroke-linejoin="round"/>
<path d="M4.66669 18.6665H51.3334" stroke="#4533A4" stroke-width="4.66667" stroke-linecap="square" stroke-linejoin="round"/>
<path d="M31.5 37.3332H42M51.3334 11.6665V30.3332M4.66669 11.6665V30.3332" stroke="#4533A4" stroke-width="4.66667" stroke-linecap="round" stroke-linejoin="round"/>
</svg>
