<svg width="56" height="56" viewBox="0 0 56 56" fill="none" xmlns="http://www.w3.org/2000/svg">
<path d="M28 51.3334C28.5694 51.3334 29.099 51.0697 30.1607 50.5401L38.6774 46.3004C42.4504 44.4267 44.3334 43.4864 44.3334 42.0001V23.3334M28 51.3334C27.4307 51.3334 26.901 51.0697 25.8394 50.5401L17.3227 46.3004C13.5497 44.4267 11.6667 43.4864 11.6667 42.0001V23.3334M28 51.3334V32.6667M44.3334 23.3334C44.3334 21.8471 42.448 20.9091 38.6797 19.0331L30.1607 14.7911C29.0967 14.2637 28.5694 14.0001 28 14.0001M44.3334 23.3334C44.3334 24.8197 42.448 25.7577 38.6797 27.6337L30.1607 31.8757C29.099 32.4031 28.5694 32.6667 28 32.6667M11.6667 23.3334C11.6667 21.8471 13.5497 20.9067 17.3227 19.0331L25.8394 14.7934C26.901 14.2637 27.4307 14.0001 28 14.0001M11.6667 23.3334C11.6667 24.8197 13.552 25.7577 17.3204 27.6337L25.8394 31.8757C26.901 32.4031 27.4307 32.6667 28 32.6667M28 14.0001V4.66675M51.3334 49.0001L44.3334 43.1667M4.66669 49.0001L11.6667 43.1667" stroke="#4533A4" stroke-width="3.5" stroke-linecap="round" stroke-linejoin="round"/>
</svg>
