<svg width="56" height="56" viewBox="0 0 56 56" fill="none" xmlns="http://www.w3.org/2000/svg">
<path d="M47.25 38.5C46.025 38.5 44.8 39.025 43.925 39.725L34.825 34.3C34.825 33.95 35 33.6 35 33.25C35 32.9 35 32.55 34.825 32.2L43.925 26.775C44.8 27.475 46.025 28 47.25 28C50.225 28 52.5 25.725 52.5 22.75C52.5 19.775 50.225 17.5 47.25 17.5C44.275 17.5 42 19.775 42 22.75C42 23.1 42 23.45 42.175 23.8L33.075 29.225C32.2 28.525 30.975 28 29.75 28C26.775 28 24.5 30.275 24.5 33.25C24.5 36.225 26.775 38.5 29.75 38.5C30.975 38.5 32.2 37.975 33.075 37.275L42.175 42.7C42.175 43.05 42 43.4 42 43.75C42 46.725 44.275 49 47.25 49C50.225 49 52.5 46.725 52.5 43.75C52.5 40.775 50.225 38.5 47.25 38.5ZM47.25 21C48.3 21 49 21.7 49 22.75C49 23.8 48.3 24.5 47.25 24.5C46.2 24.5 45.5 23.8 45.5 22.75C45.5 21.7 46.2 21 47.25 21ZM29.75 35C28.7 35 28 34.3 28 33.25C28 32.2 28.7 31.5 29.75 31.5C30.8 31.5 31.5 32.2 31.5 33.25C31.5 34.3 30.8 35 29.75 35ZM47.25 45.5C46.2 45.5 45.5 44.8 45.5 43.75C45.5 42.7 46.2 42 47.25 42C48.3 42 49 42.7 49 43.75C49 44.8 48.3 45.5 47.25 45.5Z" fill="#4533A4"/>
<path d="M33.25 43.75H14.875C9.625 43.75 5.25 39.375 5.25 34.125C5.25 29.4 8.575 25.55 13.125 24.675L15.4 24.325L15.925 22.05C17.325 15.225 23.1 10.5 29.75 10.5C30.625 10.5 31.5 10.5 32.375 10.675C35.175 11.2 37.625 12.6 39.725 14.525L42.175 12.075C39.725 9.625 36.575 7.875 33.075 7.35C32.025 7.175 30.8 7 29.75 7C21.525 7 14.175 12.775 12.6 21.175C6.3 22.4 1.75 27.825 1.75 34.125C1.75 41.3 7.525 47.25 14.875 47.25H33.25V43.75Z" fill="#4533A4"/>
</svg>
