<svg width="56" height="56" viewBox="0 0 56 56" fill="none" xmlns="http://www.w3.org/2000/svg">
<path d="M7.12831 25.6666C7.58392 21.6083 9.21164 17.7705 11.8126 14.6222C14.4136 11.4738 17.8752 9.15112 21.7746 7.93789C18.601 13.3369 16.759 19.4141 16.401 25.6666H7.12831ZM25.648 2.44055C12.5766 3.62589 2.33331 14.6182 2.33331 27.9999C2.33331 41.3816 12.5766 52.3739 25.648 53.5616L25.6666 53.5849L26.6583 53.6316C27.1052 53.6531 27.5526 53.6648 28 53.6666C28.4474 53.6666 28.8948 53.6549 29.3416 53.6316L30.3333 53.5849L30.352 53.5616C43.4233 52.3692 53.6666 41.3816 53.6666 27.9999C53.6666 14.6182 43.4233 3.62589 30.352 2.44055L30.3333 2.41722L29.3393 2.36822C28.447 2.3216 27.5529 2.3216 26.6606 2.36822L25.6666 2.41489L25.648 2.44055ZM28.0046 6.99989C32.081 12.4147 34.4857 18.903 34.923 25.6666H21.077C21.515 18.9027 23.9205 12.4145 27.9976 6.99989H28M16.3986 30.3332C16.772 36.7732 18.6853 42.8049 21.7723 48.0619C17.8733 46.8483 14.4122 44.5254 11.8117 41.3771C9.21112 38.2288 7.58374 34.3912 7.12831 30.3332H16.3986ZM27.9953 48.9999C23.9182 43.5853 21.5126 37.097 21.0746 30.3332H34.9206C34.4827 37.097 32.0771 43.5853 28 48.9999H27.9953ZM34.2253 48.0619C37.3981 42.6627 39.2393 36.5854 39.5966 30.3332H48.8693C48.4139 34.3912 46.7865 38.2288 44.186 41.3771C41.5854 44.5254 38.1243 46.8483 34.2253 48.0619ZM39.5966 25.6666C39.2233 19.2266 37.31 13.1949 34.223 7.93789C38.1228 9.15074 41.5849 11.4733 44.1864 14.6216C46.7878 17.77 48.4159 21.608 48.8716 25.6666H39.5966Z" fill="#4533A4"/>
</svg>
