<svg width="56" height="56" viewBox="0 0 56 56" fill="none" xmlns="http://www.w3.org/2000/svg">
<path d="M35 12.25C35 11.7859 35.1844 11.3408 35.5126 11.0126C35.8408 10.6844 36.2859 10.5 36.75 10.5C37.2141 10.5 37.6593 10.6844 37.9875 11.0126C38.3156 11.3408 38.5 11.7859 38.5 12.25C38.5 12.7141 38.3156 13.1592 37.9875 13.4874C37.6593 13.8156 37.2141 14 36.75 14C36.2859 14 35.8408 13.8156 35.5126 13.4874C35.1844 13.1592 35 12.7141 35 12.25ZM36.75 7C35.7388 6.99958 34.7489 7.29123 33.8994 7.8399C33.0499 8.38857 32.377 9.17091 31.9615 10.0929C31.5459 11.0148 31.4055 12.0372 31.5571 13.037C31.7087 14.0369 32.1459 14.9716 32.816 15.729L30.6355 19.6525C29.3921 19.2605 28.0767 19.1514 26.7857 19.3331C25.4946 19.5147 24.2605 19.9826 23.1735 20.7025L20.489 18.011C21.0228 16.8935 21.1444 15.6232 20.8321 14.4247C20.5199 13.2262 19.7941 12.1767 18.7829 11.4617C17.7717 10.7466 16.5403 10.412 15.3063 10.5171C14.0723 10.6222 12.9151 11.1601 12.0394 12.0359C11.1637 12.9116 10.6257 14.0687 10.5206 15.3028C10.4156 16.5368 10.7501 17.7682 11.4652 18.7794C12.1802 19.7906 13.2298 20.5164 14.4282 20.8286C15.6267 21.1408 16.897 21.0193 18.0145 20.4855L20.699 23.1735C19.9774 24.2597 19.5088 25.4941 19.3276 26.7856C19.1465 28.077 19.2575 29.3927 19.6525 30.6355L15.729 32.816C14.8008 31.9962 13.6126 31.5309 12.3745 31.5024C11.1364 31.4739 9.92802 31.884 8.96302 32.6602C7.99803 33.4364 7.33851 34.5288 7.10103 35.7443C6.86356 36.9597 7.06341 38.22 7.66528 39.3024C8.26714 40.3848 9.23226 41.2195 10.3901 41.6591C11.5479 42.0987 12.8238 42.1149 13.9923 41.7047C15.1609 41.2945 16.1468 40.4845 16.7759 39.4177C17.405 38.3509 17.6367 37.0961 17.43 35.875L21.357 33.6945C22.2944 34.7883 23.4874 35.6338 24.83 36.1558C26.1727 36.6778 27.6234 36.8603 29.0535 36.687L30.0265 39.606C29.0492 40.3666 28.3722 41.4482 28.1153 42.6597C27.8583 43.8712 28.0378 45.1345 28.6222 46.2263C29.2065 47.3182 30.1581 48.1684 31.3086 48.6266C32.4591 49.0848 33.7346 49.1215 34.9096 48.7302C36.0846 48.339 37.0834 47.5449 37.7296 46.4885C38.3758 45.432 38.6277 44.1811 38.4409 42.9569C38.254 41.7327 37.6404 40.6139 36.7084 39.7983C35.7765 38.9828 34.5862 38.5229 33.348 38.5L32.3715 35.581C34.2335 34.5065 35.6615 32.767 36.33 30.6845L38.6365 30.9435C38.9184 32.1494 39.6176 33.2169 40.6104 33.9572C41.6032 34.6975 42.8258 35.063 44.062 34.9891C45.2982 34.9152 46.4686 34.4066 47.3661 33.5533C48.2636 32.7 48.8306 31.5568 48.9668 30.3259C49.1031 29.095 48.7997 27.8555 48.1105 26.8266C47.4213 25.7977 46.3905 25.0455 45.2003 24.7031C44.0101 24.3607 42.7372 24.45 41.6066 24.9553C40.4759 25.4606 39.5603 26.3494 39.0215 27.4645L36.7115 27.209C36.5061 24.9399 35.4237 22.8405 33.6945 21.357L35.8785 17.4265C36.1562 17.4755 36.4467 17.5 36.75 17.5C38.1424 17.5 39.4778 16.9469 40.4623 15.9623C41.4469 14.9777 42 13.6424 42 12.25C42 10.8576 41.4469 9.52226 40.4623 8.53769C39.4778 7.55312 38.1424 7 36.75 7ZM15.75 14C16.2141 14 16.6593 14.1844 16.9875 14.5126C17.3156 14.8408 17.5 15.2859 17.5 15.75C17.5 16.2141 17.3156 16.6592 16.9875 16.9874C16.6593 17.3156 16.2141 17.5 15.75 17.5C15.2859 17.5 14.8408 17.3156 14.5126 16.9874C14.1844 16.6592 14 16.2141 14 15.75C14 15.2859 14.1844 14.8408 14.5126 14.5126C14.8408 14.1844 15.2859 14 15.75 14ZM12.25 35C12.7141 35 13.1593 35.1844 13.4875 35.5126C13.8156 35.8408 14 36.2859 14 36.75C14 37.2141 13.8156 37.6593 13.4875 37.9874C13.1593 38.3156 12.7141 38.5 12.25 38.5C11.7859 38.5 11.3408 38.3156 11.0126 37.9874C10.6844 37.6593 10.5 37.2141 10.5 36.75C10.5 36.2859 10.6844 35.8408 11.0126 35.5126C11.3408 35.1844 11.7859 35 12.25 35ZM31.5 43.75C31.5 43.2859 31.6844 42.8408 32.0126 42.5126C32.3408 42.1844 32.7859 42 33.25 42C33.7141 42 34.1593 42.1844 34.4875 42.5126C34.8156 42.8408 35 43.2859 35 43.75C35 44.2141 34.8156 44.6593 34.4875 44.9874C34.1593 45.3156 33.7141 45.5 33.25 45.5C32.7859 45.5 32.3408 45.3156 32.0126 44.9874C31.6844 44.6593 31.5 44.2141 31.5 43.75ZM43.75 28C44.2141 28 44.6593 28.1844 44.9875 28.5126C45.3156 28.8408 45.5 29.2859 45.5 29.75C45.5 30.2141 45.3156 30.6593 44.9875 30.9874C44.6593 31.3156 44.2141 31.5 43.75 31.5C43.2859 31.5 42.8408 31.3156 42.5126 30.9874C42.1844 30.6593 42 30.2141 42 29.75C42 29.2859 42.1844 28.8408 42.5126 28.5126C42.8408 28.1844 43.2859 28 43.75 28ZM28 22.75C29.3924 22.75 30.7278 23.3031 31.7123 24.2877C32.6969 25.2723 33.25 26.6076 33.25 28C33.25 29.3924 32.6969 30.7277 31.7123 31.7123C30.7278 32.6969 29.3924 33.25 28 33.25C26.6076 33.25 25.2723 32.6969 24.2877 31.7123C23.3031 30.7277 22.75 29.3924 22.75 28C22.75 26.6076 23.3031 25.2723 24.2877 24.2877C25.2723 23.3031 26.6076 22.75 28 22.75Z" fill="#4533A4"/>
</svg>
