<svg width="56" height="56" viewBox="0 0 56 56" fill="none" xmlns="http://www.w3.org/2000/svg">
<path d="M14 51.3335C12.7167 51.3335 11.6184 50.8769 10.7053 49.9638C9.79222 49.0507 9.33489 47.9517 9.33334 46.6668V23.3335C9.33334 22.0502 9.79067 20.9519 10.7053 20.0388C11.62 19.1257 12.7182 18.6684 14 18.6668H16.3333V14.0002C16.3333 10.7724 17.4712 8.02139 19.747 5.74716C22.0228 3.47294 24.7738 2.33505 28 2.3335C31.2262 2.33194 33.978 3.46983 36.2553 5.74716C38.5327 8.0245 39.6698 10.7755 39.6667 14.0002V18.6668H42C43.2833 18.6668 44.3823 19.1242 45.297 20.0388C46.2117 20.9535 46.6682 22.0517 46.6667 23.3335V46.6668C46.6667 47.9502 46.2101 49.0492 45.297 49.9638C44.3839 50.8785 43.2849 51.335 42 51.3335H14ZM14 46.6668H42V23.3335H14V46.6668ZM28 39.6668C29.2833 39.6668 30.3823 39.2103 31.297 38.2972C32.2117 37.3841 32.6682 36.2851 32.6667 35.0002C32.6651 33.7153 32.2086 32.6171 31.297 31.7055C30.3854 30.7939 29.2864 30.3366 28 30.3335C26.7136 30.3304 25.6153 30.7877 24.7053 31.7055C23.7953 32.6233 23.338 33.7215 23.3333 35.0002C23.3287 36.2788 23.786 37.3778 24.7053 38.2972C25.6247 39.2165 26.7229 39.673 28 39.6668ZM21 18.6668H35V14.0002C35 12.0557 34.3194 10.4029 32.9583 9.04183C31.5972 7.68072 29.9444 7.00016 28 7.00016C26.0556 7.00016 24.4028 7.68072 23.0417 9.04183C21.6806 10.4029 21 12.0557 21 14.0002V18.6668Z" fill="#4533A4"/>
</svg>
