<svg width="56" height="56" viewBox="0 0 56 56" fill="none" xmlns="http://www.w3.org/2000/svg">
<path d="M14.5833 4.66675C13.1909 4.66675 11.8556 5.21987 10.871 6.20444C9.88646 7.189 9.33334 8.52436 9.33334 9.91675V46.0834C9.33334 47.4758 9.88646 48.8112 10.871 49.7957C11.8556 50.7803 13.1909 51.3334 14.5833 51.3334H32.0833C33.4673 51.3335 34.7953 50.7871 35.7784 49.8131C36.7616 48.8391 37.3204 47.5163 37.3333 46.1324V42.5857C37.3333 42.1216 37.149 41.6765 36.8208 41.3483C36.4926 41.0201 36.0475 40.8357 35.5833 40.8357C34.5263 40.8357 33.859 40.5487 33.3993 40.1777C32.914 39.7881 32.5127 39.1861 32.207 38.3367C31.57 36.5751 31.5023 34.2534 31.5023 32.0834C31.5023 31.6398 31.3338 31.2128 31.031 30.8887L30.646 30.4757C30.5193 30.3359 30.3869 30.2012 30.2493 30.0721C30.0767 29.9087 29.5493 29.4071 27.489 27.3467C26.3947 26.2524 25.7903 25.3284 25.592 24.6214C25.5099 24.3769 25.497 24.1145 25.5547 23.8631C25.641 23.5723 25.8067 23.3113 26.033 23.1094C26.2346 22.8843 26.4947 22.7195 26.7843 22.6334C27.035 22.5762 27.2965 22.5891 27.5403 22.6707C28.245 22.8691 29.169 23.4781 30.2633 24.5724C31.5233 25.8324 32.7203 27.0154 33.7913 28.0724C35.5647 29.8271 36.995 31.2457 37.8047 32.1091C38.1219 32.4457 38.5595 32.643 39.0218 32.658C39.4841 32.6729 39.9335 32.5042 40.2718 32.1887C40.61 31.8733 40.8097 31.4367 40.827 30.9745C40.8444 30.5123 40.678 30.062 40.3643 29.7221C39.3712 28.6832 38.3608 27.661 37.3333 26.6561V18.8067L43.9647 25.4381C44.947 26.4227 45.5023 27.7574 45.5023 29.1481V49.5834C45.5023 50.0475 45.6867 50.4927 46.0149 50.8209C46.3431 51.149 46.7882 51.3334 47.2523 51.3334C47.7165 51.3334 48.1616 51.149 48.4898 50.8209C48.818 50.4927 49.0023 50.0475 49.0023 49.5834V29.1504C49.0022 28.0011 48.7757 26.8631 48.3357 25.8013C47.8957 24.7396 47.2509 23.7749 46.438 22.9624L37.3333 13.8577V9.91441C37.3327 8.52243 36.7793 7.18767 35.7948 6.20361C34.8103 5.21955 33.4753 4.66675 32.0833 4.66675H14.5833ZM28.9147 39.5267C29.141 40.1521 29.4327 40.7727 29.8107 41.3514C28.919 41.7796 28.1665 42.4509 27.6397 43.2881C27.113 44.1253 26.8334 45.0943 26.8333 46.0834V47.8334H19.8333V46.0834C19.8333 44.691 19.2802 43.3557 18.2956 42.3711C17.3111 41.3865 15.9757 40.8334 14.5833 40.8334H12.8333V15.1667H14.5833C15.9757 15.1667 17.3111 14.6136 18.2956 13.6291C19.2802 12.6445 19.8333 11.3091 19.8333 9.91675V8.16675H26.8333V9.91675C26.8333 11.3091 27.3865 12.6445 28.371 13.6291C29.3556 14.6136 30.6909 15.1667 32.0833 15.1667H33.8333V23.1887L32.739 22.0967C31.5 20.8577 30.0603 19.7447 28.49 19.3014C27.6519 19.0525 26.7625 19.0324 25.914 19.2431C25.3875 19.3772 24.8884 19.6023 24.4393 19.9081C23.1201 19.7281 21.7769 19.8735 20.5267 20.3314C19.2765 20.7893 18.1573 21.546 17.2664 22.5355C16.3755 23.525 15.7401 24.7172 15.4154 26.0085C15.0908 27.2997 15.0868 28.6508 15.4037 29.9439C15.7207 31.2371 16.349 32.4331 17.2339 33.4279C18.1189 34.4227 19.2336 35.186 20.4811 35.6514C21.7285 36.1167 23.0708 36.2701 24.3911 36.098C25.7113 35.9259 26.9695 35.4337 28.056 34.6641C28.1423 36.2601 28.3593 37.9937 28.9147 39.5267ZM18.6667 28.0001C18.6665 26.9835 18.9982 25.9947 19.6114 25.184C20.2246 24.3733 21.0858 23.7849 22.064 23.5084C21.9767 24.1988 22.0307 24.8998 22.2227 25.5687C22.6637 27.1391 23.7743 28.5811 25.0157 29.8224L26.5673 31.3671C25.9074 32.0014 25.0755 32.4277 24.1752 32.5928C23.2749 32.7579 22.3458 32.6546 21.5038 32.2958C20.6617 31.9369 19.9438 31.3383 19.4393 30.5745C18.9348 29.8107 18.6662 28.9154 18.6667 28.0001ZM12.8333 9.91675C12.8333 9.45262 13.0177 9.0075 13.3459 8.67931C13.6741 8.35112 14.1192 8.16675 14.5833 8.16675H16.3333V9.91675C16.3333 10.3809 16.149 10.826 15.8208 11.1542C15.4926 11.4824 15.0475 11.6667 14.5833 11.6667H12.8333V9.91675ZM30.3333 8.16675H32.0833C32.5475 8.16675 32.9926 8.35112 33.3208 8.67931C33.649 9.0075 33.8333 9.45262 33.8333 9.91675V11.6667H32.0833C31.6192 11.6667 31.1741 11.4824 30.8459 11.1542C30.5177 10.826 30.3333 10.3809 30.3333 9.91675V8.16675ZM33.8333 44.3334V46.0834C33.8333 46.5475 33.649 46.9927 33.3208 47.3209C32.9926 47.649 32.5475 47.8334 32.0833 47.8334H30.3333V46.0834C30.3333 45.6193 30.5177 45.1742 30.8459 44.846C31.1741 44.5178 31.6192 44.3334 32.0833 44.3334H33.8333ZM16.3333 47.8334H14.5833C14.1192 47.8334 13.6741 47.649 13.3459 47.3209C13.0177 46.9927 12.8333 46.5475 12.8333 46.0834V44.3334H14.5833C15.0475 44.3334 15.4926 44.5178 15.8208 44.846C16.149 45.1742 16.3333 45.6193 16.3333 46.0834V47.8334Z" fill="#4533A4"/>
</svg>
