<svg width="56" height="56" viewBox="0 0 56 56" fill="none" xmlns="http://www.w3.org/2000/svg">
<g clip-path="url(#clip0_147_68)">
<path d="M28 46.572H54M28 46.572C28 47.3037 27.8559 48.0283 27.5759 48.7043C27.2958 49.3803 26.8854 49.9946 26.368 50.512C25.8506 51.0294 25.2363 51.4398 24.5603 51.7199C23.8843 51.9999 23.1597 52.144 22.428 52.144C21.6963 52.144 20.9717 51.9999 20.2957 51.7199C19.6197 51.4398 19.0054 51.0294 18.488 50.512C17.9706 49.9946 17.5602 49.3803 17.2801 48.7043C17.0001 48.0283 16.856 47.3037 16.856 46.572C16.856 45.8403 17.0001 45.1157 17.2801 44.4397C17.5602 43.7637 17.9706 43.1494 18.488 42.632C19.0054 42.1146 19.6197 41.7042 20.2957 41.4241C20.9717 41.1441 21.6963 41 22.428 41C23.1597 41 23.8843 41.1441 24.5603 41.4241C25.2363 41.7042 25.8506 42.1146 26.368 42.632C26.8854 43.1494 27.2958 43.7637 27.5759 44.4397C27.8559 45.1157 28 45.8403 28 46.572ZM54 46.572L46.572 39.144M54 46.572L46.572 54M13.144 7.572C13.144 9.04979 13.731 10.467 14.776 11.512C15.821 12.557 17.2382 13.144 18.716 13.144C20.1938 13.144 21.611 12.557 22.656 11.512C23.7009 10.467 24.288 9.04979 24.288 7.572C24.288 6.09421 23.7009 4.67695 22.656 3.632C21.611 2.58705 20.1938 2 18.716 2C17.2382 2 15.821 2.58705 14.776 3.632C13.731 4.67695 13.144 6.09421 13.144 7.572ZM28 26.144C28 27.6218 28.587 29.039 29.632 30.084C30.677 31.129 32.0942 31.716 33.572 31.716C35.0498 31.716 36.467 31.129 37.512 30.084C38.5569 29.039 39.144 27.6218 39.144 26.144C39.144 24.6662 38.5569 23.249 37.512 22.204C36.467 21.159 35.0498 20.572 33.572 20.572C32.0942 20.572 30.677 21.159 29.632 22.204C28.587 23.249 28 24.6662 28 26.144Z" stroke="#4533A4" stroke-width="4" stroke-linecap="round" stroke-linejoin="round"/>
<path d="M28 26.144H12.216C9.54208 26.1969 6.99553 27.2963 5.12322 29.206C3.2509 31.1158 2.20214 33.6836 2.20214 36.358C2.20214 39.0325 3.2509 41.6003 5.12322 43.51C6.99553 45.4197 9.54208 46.5191 12.216 46.572H16.856M39.144 26.144H44.716C47.1788 26.144 49.5407 25.1657 51.2822 23.4242C53.0237 21.6828 54.002 19.3208 54.002 16.858C54.002 14.3952 53.0237 12.0333 51.2822 10.2918C49.5407 8.55036 47.1788 7.57202 44.716 7.57202H24.28M13.144 7.57202H2" stroke="#4533A4" stroke-width="4" stroke-linecap="round" stroke-linejoin="round"/>
</g>
<defs>
<clipPath id="clip0_147_68">
<rect width="56" height="56" fill="white"/>
</clipPath>
</defs>
</svg>
