<svg width="56" height="56" viewBox="0 0 56 56" fill="none" xmlns="http://www.w3.org/2000/svg">
<path d="M35.3553 31.4932C34.179 31.4932 33.0509 31.9605 32.2192 32.7923C31.3874 33.624 30.9201 34.7522 30.9201 35.9285H34.4683C34.4683 35.6932 34.5617 35.4676 34.7281 35.3012C34.8945 35.1349 35.1201 35.0414 35.3553 35.0414H35.5061C36.0792 35.0414 36.5422 35.5062 36.5422 36.0775V50.2259C36.5422 50.6964 36.7291 51.1477 37.0618 51.4804C37.3945 51.8131 37.8458 52 38.3163 52C38.7868 52 39.2381 51.8131 39.5708 51.4804C39.9035 51.1477 40.0904 50.6964 40.0904 50.2259V36.0757C40.0904 34.8599 39.6074 33.6939 38.7477 32.8342C37.888 31.9744 36.722 31.4915 35.5061 31.4915L35.3553 31.4932Z" fill="#4533A4"/>
<path d="M16.3477 37.5215L16.4684 37.7433V48.3524C16.4684 49.2934 16.8422 50.1959 17.5076 50.8613C18.173 51.5267 19.0755 51.9005 20.0165 51.9005C20.9576 51.9005 21.8601 51.5267 22.5255 50.8613C23.1909 50.1959 23.5647 49.2934 23.5647 48.3524V36.8207C23.5647 32.9213 24.4713 29.1779 25.6582 26.0449L26.0396 27.5511C26.2052 28.2024 26.5525 28.7933 27.0408 29.255C27.5292 29.7167 28.1387 30.0302 28.7983 30.159L35.3021 31.4328C36.2258 31.6135 37.1833 31.4199 37.9642 30.8945C38.7451 30.3692 39.2853 29.5552 39.4659 28.6315C39.6466 27.7079 39.453 26.7503 38.9276 25.9695C38.4023 25.1886 37.5883 24.6484 36.6646 24.4677L32.3642 23.6268L30.3152 15.5458C30.1211 14.7811 29.6777 14.1029 29.055 13.6184C28.4323 13.1338 27.6659 12.8707 26.877 12.8705C21.5547 12.8705 17.9834 16.1472 15.9237 19.3991C13.9101 22.5783 12.9202 26.3358 12.9202 28.8373C12.9202 29.5541 13.0834 30.2211 13.2093 30.6646C13.3513 31.1614 13.5358 31.6705 13.7292 32.1513C14.1141 33.1129 14.6056 34.1561 15.0686 35.0804C15.537 36.0171 16.0035 36.8899 16.3477 37.5215ZM36.8704 16.4187C37.6859 16.4187 38.4933 16.258 39.2466 15.946C40 15.634 40.6845 15.1766 41.2611 14.6C41.8377 14.0234 42.2951 13.3389 42.6071 12.5855C42.9192 11.8322 43.0798 11.0248 43.0798 10.2093C43.0798 9.39391 42.9192 8.58647 42.6071 7.83312C42.2951 7.07977 41.8377 6.39526 41.2611 5.81867C40.6845 5.24208 40 4.7847 39.2466 4.47266C38.4933 4.16061 37.6859 4 36.8704 4C35.2236 4 33.6443 4.6542 32.4798 5.81867C31.3153 6.98315 30.6611 8.56251 30.6611 10.2093C30.6611 11.8561 31.3153 13.4355 32.4798 14.6C33.6443 15.7645 35.2236 16.4187 36.8704 16.4187Z" fill="#4533A4"/>
</svg>
