<svg width="56" height="56" viewBox="0 0 56 56" fill="none" xmlns="http://www.w3.org/2000/svg">
<path d="M9.33334 18.6666V13.9999C9.33334 12.7622 9.825 11.5753 10.7002 10.7001C11.5753 9.82492 12.7623 9.33325 14 9.33325H18.6667M9.33334 37.3333V41.9999C9.33334 43.2376 9.825 44.4246 10.7002 45.2997C11.5753 46.1749 12.7623 46.6666 14 46.6666H18.6667M37.3333 9.33325H42C43.2377 9.33325 44.4247 9.82492 45.2998 10.7001C46.175 11.5753 46.6667 12.7622 46.6667 13.9999V18.6666M37.3333 46.6666H42C43.2377 46.6666 44.4247 46.1749 45.2998 45.2997C46.175 44.4246 46.6667 43.2376 46.6667 41.9999V37.3333M20.0737 22.4233C20.5168 21.9717 21.0454 21.6131 21.6288 21.3682C22.2121 21.1234 22.8384 20.9973 23.471 20.9973C24.1036 20.9973 24.7299 21.1234 25.3132 21.3682C25.8966 21.6131 26.4252 21.9717 26.8683 22.4233L28 23.3333L29.1667 22.4093C29.6095 21.9627 30.1366 21.6085 30.7173 21.3673C31.2981 21.1262 31.921 21.0027 32.5499 21.0043C33.1788 21.0058 33.8011 21.1322 34.3807 21.3762C34.9603 21.6202 35.4857 21.9769 35.9263 22.4256C36.8282 23.3436 37.3336 24.5791 37.3336 25.8661C37.3336 27.153 36.8282 28.3885 35.9263 29.3066L28 37.3333L20.0737 29.3066C19.1711 28.3884 18.6653 27.1524 18.6653 25.8649C18.6653 24.5774 19.1711 23.3414 20.0737 22.4233Z" stroke="#4533A4" stroke-width="4.66667" stroke-linecap="round" stroke-linejoin="round"/>
</svg>
