<svg width="56" height="56" viewBox="0 0 56 56" fill="none" xmlns="http://www.w3.org/2000/svg">
<path d="M24.5 30.3333V33.8333C24.5 34.4944 24.724 35.0489 25.172 35.4969C25.62 35.9449 26.1738 36.1682 26.8333 36.1666H29.1667C29.8278 36.1666 30.3823 35.9426 30.8303 35.4946C31.2783 35.0466 31.5016 34.4928 31.5 33.8333V30.3333H35C35.6611 30.3333 36.2157 30.1093 36.6637 29.6613C37.1117 29.2133 37.3349 28.6595 37.3333 27.9999V25.6666C37.3333 25.0055 37.1093 24.4517 36.6613 24.0053C36.2133 23.5588 35.6596 23.3348 35 23.3333H31.5V19.8333C31.5 19.1722 31.276 18.6184 30.828 18.1719C30.38 17.7255 29.8262 17.5015 29.1667 17.4999H26.8333C26.1722 17.4999 25.6184 17.7239 25.172 18.1719C24.7256 18.6199 24.5016 19.1737 24.5 19.8333V23.3333H21C20.3389 23.3333 19.7851 23.5573 19.3387 24.0053C18.8922 24.4533 18.6682 25.007 18.6667 25.6666V27.9999C18.6667 28.661 18.8907 29.2156 19.3387 29.6636C19.7867 30.1116 20.3404 30.3348 21 30.3333H24.5ZM28 51.0999C27.7278 51.0999 27.475 51.0805 27.2417 51.0416C27.0083 51.0027 26.775 50.9444 26.5417 50.8666C21.2917 49.1166 17.1111 45.8787 14 41.1529C10.8889 36.4272 9.33334 31.3428 9.33334 25.8999V14.8749C9.33334 13.9027 9.61567 13.0277 10.1803 12.2499C10.745 11.4722 11.4738 10.9083 12.3667 10.5583L26.3667 5.30827C26.9111 5.11382 27.4556 5.0166 28 5.0166C28.5444 5.0166 29.0889 5.11382 29.6333 5.30827L43.6333 10.5583C44.5278 10.9083 45.2573 11.4722 45.822 12.2499C46.3867 13.0277 46.6682 13.9027 46.6667 14.8749V25.8999C46.6667 31.3444 45.1111 36.4295 42 41.1553C38.8889 45.881 34.7083 49.1182 29.4583 50.8666C29.225 50.9444 28.9917 51.0027 28.7583 51.0416C28.525 51.0805 28.2722 51.0999 28 51.0999ZM28 46.4333C32.0444 45.1499 35.3889 42.5833 38.0333 38.7333C40.6778 34.8833 42 30.6055 42 25.8999V14.8749L28 9.62493L14 14.8749V25.8999C14 30.6055 15.3222 34.8833 17.9667 38.7333C20.6111 42.5833 23.9556 45.1499 28 46.4333Z" fill="#4533A4"/>
</svg>
