<svg width="56" height="56" viewBox="0 0 56 56" fill="none" xmlns="http://www.w3.org/2000/svg">
<path d="M35 4.66663C36.2377 4.66663 37.4247 5.15829 38.2998 6.03346C39.175 6.90863 39.6667 8.09562 39.6667 9.33329V21H44.3333C45.571 21 46.758 21.4916 47.6332 22.3668C48.5083 23.242 49 24.4289 49 25.6666V48.7666C49 49.1037 48.9336 49.4374 48.8046 49.7488C48.6756 50.0602 48.4866 50.3432 48.2482 50.5815C48.0099 50.8199 47.727 51.0089 47.4156 51.1379C47.1041 51.2669 46.7704 51.3333 46.4333 51.3333H9.56667C9.22961 51.3333 8.89585 51.2669 8.58445 51.1379C8.27304 51.0089 7.9901 50.8199 7.75176 50.5815C7.51342 50.3432 7.32436 50.0602 7.19538 49.7488C7.06639 49.4374 7 49.1037 7 48.7666V9.33329C7 8.09562 7.49167 6.90863 8.36683 6.03346C9.242 5.15829 10.429 4.66663 11.6667 4.66663H35ZM35 9.33329H11.6667V46.6666H16.3333V39.6666C16.3333 37.8101 17.0708 36.0296 18.3836 34.7169C19.6963 33.4041 21.4768 32.6666 23.3333 32.6666C25.1898 32.6666 26.9703 33.4041 28.2831 34.7169C29.5958 36.0296 30.3333 37.8101 30.3333 39.6666V46.6666H35V9.33329ZM44.3333 25.6666H39.6667V46.6666H44.3333V25.6666ZM23.3333 37.3333C22.7618 37.3334 22.2102 37.5432 21.7831 37.923C21.356 38.3027 21.0832 38.826 21.0163 39.3936L21 39.6666V46.6666H25.6667V39.6666C25.6667 39.0478 25.4208 38.4543 24.9832 38.0167C24.5457 37.5791 23.9522 37.3333 23.3333 37.3333ZM23.3333 14C23.9522 14 24.5457 14.2458 24.9832 14.6834C25.4208 15.121 25.6667 15.7145 25.6667 16.3333V18.6666H28C28.6188 18.6666 29.2123 18.9125 29.6499 19.35C30.0875 19.7876 30.3333 20.3811 30.3333 21C30.3333 21.6188 30.0875 22.2123 29.6499 22.6499C29.2123 23.0875 28.6188 23.3333 28 23.3333H25.6667V25.6666C25.6667 26.2855 25.4208 26.879 24.9832 27.3165C24.5457 27.7541 23.9522 28 23.3333 28C22.7145 28 22.121 27.7541 21.6834 27.3165C21.2458 26.879 21 26.2855 21 25.6666V23.3333H18.6667C18.0478 23.3333 17.4543 23.0875 17.0168 22.6499C16.5792 22.2123 16.3333 21.6188 16.3333 21C16.3333 20.3811 16.5792 19.7876 17.0168 19.35C17.4543 18.9125 18.0478 18.6666 18.6667 18.6666H21V16.3333C21 15.7145 21.2458 15.121 21.6834 14.6834C22.121 14.2458 22.7145 14 23.3333 14Z" fill="#4533A4"/>
</svg>
