<svg width="56" height="56" viewBox="0 0 56 56" fill="none" xmlns="http://www.w3.org/2000/svg">
<path d="M21 39.6667C20.3389 39.6667 19.7851 39.4427 19.3386 38.9947C18.8922 38.5467 18.6682 37.993 18.6666 37.3334C18.6651 36.6739 18.8891 36.1201 19.3386 35.6721C19.7882 35.2241 20.342 35.0001 21 35.0001H23.3333C23.9944 35.0001 24.549 35.2241 24.997 35.6721C25.445 36.1201 25.6682 36.6739 25.6666 37.3334C25.6651 37.993 25.4411 38.5475 24.9946 38.9971C24.5482 39.4466 23.9944 39.6699 23.3333 39.6667H21ZM18.6666 51.3334C15.4389 51.3334 12.6879 50.1955 10.4136 47.9197C8.13942 45.644 7.00153 42.893 6.99998 39.6667V18.6667C5.71665 18.6667 4.61842 18.2102 3.70531 17.2971C2.7922 16.384 2.33487 15.285 2.33331 14.0001V9.33341C2.33331 8.05008 2.79065 6.95186 3.70531 6.03875C4.61998 5.12564 5.7182 4.6683 6.99998 4.66675H30.3333C31.6166 4.66675 32.7156 5.12408 33.6303 6.03875C34.545 6.95341 35.0015 8.05164 35 9.33341V14.0001C35 15.2834 34.5434 16.3824 33.6303 17.2971C32.7172 18.2117 31.6182 18.6683 30.3333 18.6667V25.6667C30.3333 26.9501 29.8768 28.0491 28.9636 28.9637C28.0505 29.8784 26.9515 30.335 25.6666 30.3334H21C20.3389 30.3334 19.7851 30.1094 19.3386 29.6614C18.8922 29.2134 18.6682 28.6596 18.6666 28.0001C18.6651 27.3405 18.8891 26.7867 19.3386 26.3387C19.7882 25.8907 20.342 25.6667 21 25.6667H25.6666V18.6667H11.6666V39.6667C11.6666 41.6112 12.3472 43.264 13.7083 44.6251C15.0694 45.9862 16.7222 46.6667 18.6666 46.6667C19.3666 46.6667 20.0379 46.5695 20.6803 46.3751C21.3228 46.1806 21.9154 45.9084 22.4583 45.5584C22.9639 45.2473 23.5083 45.1695 24.0916 45.3251C24.675 45.4806 25.1222 45.8306 25.4333 46.3751C25.7833 46.9195 25.8805 47.5122 25.725 48.1531C25.5694 48.794 25.2194 49.2902 24.675 49.6417C23.7805 50.1862 22.8379 50.6046 21.847 50.8971C20.8561 51.1895 19.796 51.335 18.6666 51.3334ZM6.99998 14.0001H30.3333V9.33341H6.99998V14.0001ZM38.5 44.3334C40.1333 44.3334 41.5139 43.7695 42.6416 42.6417C43.7694 41.514 44.3333 40.1334 44.3333 38.5001C44.3333 36.8667 43.7694 35.4862 42.6416 34.3584C41.5139 33.2306 40.1333 32.6667 38.5 32.6667C36.8666 32.6667 35.4861 33.2306 34.3583 34.3584C33.2305 35.4862 32.6666 36.8667 32.6666 38.5001C32.6666 40.1334 33.2305 41.514 34.3583 42.6417C35.4861 43.7695 36.8666 44.3334 38.5 44.3334ZM38.5 49.0001C35.5833 49.0001 33.1045 47.9796 31.0636 45.9387C29.0228 43.8979 28.0015 41.4183 28 38.5001C27.9984 35.5819 29.0196 33.1031 31.0636 31.0637C33.1076 29.0244 35.5864 28.0032 38.5 28.0001C41.4135 27.997 43.8931 29.0182 45.9386 31.0637C47.9842 33.1093 49.0046 35.5881 49 38.5001C49 39.5112 48.8639 40.4834 48.5916 41.4167C48.3194 42.3501 47.9111 43.2445 47.3666 44.1001L52.0333 48.7667C52.4611 49.1945 52.675 49.739 52.675 50.4001C52.675 51.0612 52.4611 51.6056 52.0333 52.0334C51.6055 52.4612 51.0611 52.6751 50.4 52.6751C49.7389 52.6751 49.1944 52.4612 48.7666 52.0334L44.1 47.3667C43.2444 47.9112 42.35 48.3195 41.4166 48.5917C40.4833 48.864 39.5111 49.0001 38.5 49.0001Z" fill="#4533A4"/>
</svg>
